<svg xmlns="http://www.w3.org/2000/svg" xmlns:xlink="http://www.w3.org/1999/xlink" width="426" height="342.32" viewBox="0 0 426 342.32">
  <defs>
    <linearGradient id="linear-gradient" x1="0.5" y1="1" x2="0.5" gradientUnits="objectBoundingBox">
      <stop offset="0" stop-color="gray" stop-opacity="0.251"/>
      <stop offset="0.54" stop-color="gray" stop-opacity="0.122"/>
      <stop offset="1" stop-color="gray" stop-opacity="0.102"/>
    </linearGradient>
  </defs>
  <g id="Group_48" data-name="Group 48" transform="translate(-0.008 0.006)">
    <path id="Path_344" data-name="Path 344" d="M330.053,73.33c-27.312-.786-53.323-8.13-78.144-16.165S202.447,40.243,175.79,35.987c-17.144-2.737-36.75-3.124-50.565,4.528-13.3,7.364-17.589,20.079-19.9,31.881-1.741,8.875-2.762,18.219,2,26.526,3.293,5.763,9.175,10.616,13.234,16.14,14.119,19.227,4.141,42.933-11.163,61.7-7.179,8.8-15.506,17.206-21.047,26.579s-8.093,20.121-3.256,29.67c4.8,9.468,16.251,16.593,28.654,21.6,25.188,10.167,54.871,13.078,83.812,14.728,64.066,3.647,128.479,2.058,192.718.486,23.772-.585,47.651-1.177,71.039-4.24,12.987-1.7,26.394-4.4,35.812-10.908,11.97-8.266,14.934-22.265,6.915-32.63-13.452-17.387-50.631-21.705-60.053-40.365-5.178-10.27.14-21.714,7.66-31.239,16.136-20.433,43.184-38.36,44.609-61.716.976-16.054-12.024-32.107-32.128-39.7-21.071-7.957-50.293-6.957-65.861,6.216C382.3,68.811,354.166,74.043,330.053,73.33Z" transform="translate(-82.53 -34.2)" fill="#6c63ff" opacity="0.1"/>
    <ellipse id="Ellipse_49" data-name="Ellipse 49" cx="119.682" cy="12.069" rx="119.682" ry="12.069" transform="translate(59.568 318.176)" fill="#6c63ff" opacity="0.1"/>
    <path id="Path_345" data-name="Path 345" d="M188.592,713.977s-5.31-30.086-25.019-45a46.1,46.1,0,0,1-16.963-24.455,73.786,73.786,0,0,1-2.379-14.037" transform="translate(-118.828 -385.042)" fill="none" stroke="#535461" stroke-miterlimit="10" stroke-width="2"/>
    <path id="Path_346" data-name="Path 346" d="M113.22,594.155c1.647,3.223,12.649,9.747,12.649,9.747s1.383-12.188-.276-15.416a7.061,7.061,0,0,0-9.188-3.009A6.33,6.33,0,0,0,113.22,594.155Z" transform="translate(-100.174 -358.174)" fill="#6c63ff"/>
    <path id="Path_347" data-name="Path 347" d="M106.936,645.063c3.252,1.857,16.235,1.692,16.235,1.692s-5.858-10.941-9.1-12.8a7.114,7.114,0,0,0-9.443,2.19A6.285,6.285,0,0,0,106.936,645.063Z" transform="translate(-94.941 -386.529)" fill="#6c63ff"/>
    <path id="Path_348" data-name="Path 348" d="M141.166,717.436c3.8.053,14.913-6.277,14.913-6.277s-10.9-6.652-14.7-6.71a6.506,6.506,0,1,0-.21,12.987Z" transform="translate(-113.03 -428.556)" fill="#6c63ff"/>
    <path id="Path_349" data-name="Path 349" d="M185.817,767.027c3.729.663,15.823-3.808,15.823-3.808s-9.558-8.307-13.283-8.957a6.864,6.864,0,0,0-8.027,5.187A6.514,6.514,0,0,0,185.817,767.027Z" transform="translate(-139.997 -457.801)" fill="#6c63ff"/>
    <path id="Path_350" data-name="Path 350" d="M164.445,641c-1.3,3.371-11.526,10.929-11.526,10.929s-2.709-11.987-1.412-15.358a7,7,0,0,1,8.813-3.89A6.405,6.405,0,0,1,164.445,641Z" transform="translate(-122.903 -386.101)" fill="#6c63ff"/>
    <path id="Path_351" data-name="Path 351" d="M212.247,696.964c-2.305,2.853-14.457,7.175-14.457,7.175s1.235-12.2,3.524-15.053a7.154,7.154,0,0,1,9.64-1.235,6.257,6.257,0,0,1,1.293,9.114Z" transform="translate(-150.341 -418.008)" fill="#6c63ff"/>
    <path id="Path_352" data-name="Path 352" d="M253.811,761.333c-1.762,3.178-12.962,9.377-12.962,9.377s-.984-12.221.778-15.4a7.081,7.081,0,0,1,9.282-2.741A6.319,6.319,0,0,1,253.811,761.333Z" transform="translate(-175.514 -456.433)" fill="#6c63ff"/>
    <path id="Path_353" data-name="Path 353" d="M113.22,594.155c1.647,3.223,12.649,9.747,12.649,9.747s1.383-12.188-.276-15.416a7.061,7.061,0,0,0-9.188-3.009A6.33,6.33,0,0,0,113.22,594.155Z" transform="translate(-100.174 -358.174)" fill="#dc7059" opacity="0.847"/>
    <path id="Path_354" data-name="Path 354" d="M106.936,645.063c3.252,1.857,16.235,1.692,16.235,1.692s-5.858-10.941-9.1-12.8a7.114,7.114,0,0,0-9.443,2.19A6.285,6.285,0,0,0,106.936,645.063Z" transform="translate(-94.941 -386.529)" fill="#dc7059" opacity="0.847"/>
    <path id="Path_355" data-name="Path 355" d="M141.166,717.436c3.8.053,14.913-6.277,14.913-6.277s-10.9-6.652-14.7-6.71a6.506,6.506,0,1,0-.21,12.987Z" transform="translate(-113.03 -428.556)" fill="#dc7059" opacity="0.847"/>
    <path id="Path_356" data-name="Path 356" d="M185.817,767.027c3.729.663,15.823-3.808,15.823-3.808s-9.558-8.307-13.283-8.957a6.864,6.864,0,0,0-8.027,5.187A6.514,6.514,0,0,0,185.817,767.027Z" transform="translate(-139.997 -457.801)" fill="#dc7059" opacity="0.847"/>
    <path id="Path_357" data-name="Path 357" d="M164.445,641c-1.3,3.371-11.526,10.929-11.526,10.929s-2.709-11.987-1.412-15.358a7,7,0,0,1,8.813-3.89A6.405,6.405,0,0,1,164.445,641Z" transform="translate(-122.903 -386.101)" fill="#dc7059" opacity="0.847"/>
    <path id="Path_358" data-name="Path 358" d="M212.247,696.964c-2.305,2.853-14.457,7.175-14.457,7.175s1.235-12.2,3.524-15.053a7.154,7.154,0,0,1,9.64-1.235,6.257,6.257,0,0,1,1.293,9.114Z" transform="translate(-150.341 -418.008)" fill="#dc7059" opacity="0.847"/>
    <path id="Path_359" data-name="Path 359" d="M253.811,761.333c-1.762,3.178-12.962,9.377-12.962,9.377s-.984-12.221.778-15.4a7.081,7.081,0,0,1,9.282-2.741A6.319,6.319,0,0,1,253.811,761.333Z" transform="translate(-175.514 -456.433)" fill="#dc7059" opacity="0.847"/>
    <path id="Path_360" data-name="Path 360" d="M237.217,698.03s8.056-29.539-3.561-50.713a43.964,43.964,0,0,1-5.01-28.847,74.094,74.094,0,0,1,3.849-13.74" transform="translate(-168.12 -369.885)" fill="none" stroke="#535461" stroke-miterlimit="10" stroke-width="2"/>
    <path id="Path_361" data-name="Path 361" d="M221.324,562.618c.132,3.581,7.381,13.753,7.381,13.753s6.5-10.616,6.364-14.2a6.887,6.887,0,0,0-13.744.449Z" transform="translate(-164.184 -341.155)" fill="#ef9b8a"/>
    <path id="Path_362" data-name="Path 362" d="M193.731,606.745c2.173,2.939,14.111,7.755,14.111,7.755s-.659-12.242-2.832-15.185a7.142,7.142,0,0,0-9.575-1.609,6.269,6.269,0,0,0-1.7,9.039Z" transform="translate(-147.228 -365.063)" fill="#ef9b8a"/>
    <path id="Path_363" data-name="Path 363" d="M193.981,686c3.449,1.5,16.334-.029,16.334-.029s-7.117-10.258-10.567-11.76a7.053,7.053,0,0,0-9.126,3.174A6.345,6.345,0,0,0,193.981,686Z" transform="translate(-145.749 -410.414)" fill="#ef9b8a"/>
    <path id="Path_364" data-name="Path 364" d="M213.476,748.415c3.133,2.034,16.1,2.573,16.1,2.573s-5.178-11.242-8.307-13.271a7.134,7.134,0,0,0-9.562,1.646,6.269,6.269,0,0,0,1.766,9.052Z" transform="translate(-157.814 -447.449)" fill="#ef9b8a"/>
    <path id="Path_365" data-name="Path 365" d="M243.13,625.019C240.5,627.6,227.9,630.6,227.9,630.6s2.672-12,5.3-14.584a7.171,7.171,0,0,1,9.727-.181,6.24,6.24,0,0,1,.2,9.179Z" transform="translate(-168.056 -375.355)" fill="#ef9b8a"/>
    <path id="Path_366" data-name="Path 366" d="M261.712,695.669c-3.33,1.725-16.292,1.029-16.292,1.029s6.351-10.7,9.682-12.415a7.1,7.1,0,0,1,9.336,2.573A6.3,6.3,0,0,1,261.712,695.669Z" transform="translate(-178.365 -416.223)" fill="#ef9b8a"/>
    <path id="Path_367" data-name="Path 367" d="M271.7,769.387C268.721,771.618,255.82,773,255.82,773s4.347-11.554,7.323-13.786a7.154,7.154,0,0,1,9.661,1.05,6.253,6.253,0,0,1-1.107,9.122Z" transform="translate(-184.484 -459.95)" fill="#ef9b8a"/>
    <path id="Path_368" data-name="Path 368" d="M895.864,297.447c.247-.675-1.605-4.417-1.605-4.6s-1.914-2.272-1.914-3.437-2.536-3.68-2.536-3.68-3.4-1.412-3.766-4.479-4.071-3.133-4.079-3.133h0s0-.28.025-.7a10.282,10.282,0,0,0-.457-3.589,3.643,3.643,0,0,0-2.1-1.782s-.37-2.392-1.111-3.128a3.523,3.523,0,0,1-.869-3.31c.37-1.165-.494-4.116-2.289-4.528s-3.828-1.1-3.828-1.1-.2.037-.494.078l-.247-.078a11.024,11.024,0,0,1-1.3.16,1.585,1.585,0,0,1-1.046-.346c-.622-.675-5.627-1.964-6.553-1.964a15.475,15.475,0,0,1-3.585-1.235l-2.651-2.025a17.486,17.486,0,0,1-2.326-3.207l-.025-.045h0a11.108,11.108,0,0,1-.56-1.614h0a14.588,14.588,0,0,0,2.3-3.157c.066-.119.123-.243.181-.362a1.478,1.478,0,0,0,.412-.066.518.518,0,0,0,.161-.062,2.7,2.7,0,0,0,1.313-1.568h0a4.008,4.008,0,0,0,.119-.412.246.246,0,0,1,.029-.14,1.218,1.218,0,0,0,.058-.28c.016-.095.021-.107.029-.156s.029-.185.041-.28a.6.6,0,0,0,0-.152,2.463,2.463,0,0,1,.045-.35h0a12.454,12.454,0,0,1,.193-1.3h0a24.075,24.075,0,0,1,2.083-4.61h0c.1-.218.2-.445.284-.671s.173-.494.243-.745l.062-.23c.045-.181.086-.366.123-.552a1.735,1.735,0,0,1,.045-.247c.041-.255.078-.51.1-.77a9.54,9.54,0,0,0-.613-4.326c-.465-1.153-1.153-2.19-1.622-3.342-.712-1.745-.9-3.7-1.766-5.384a6.414,6.414,0,0,0-7.693-3.137c-1.346.5-2.511,1.47-3.873,1.906-1.828.58-3.779.144-5.668-.119s-3.98-.284-5.5.951c-1.749,1.42-2.231,4.092-3.873,5.652-.687.654-1.548,1.074-2.276,1.679a3.705,3.705,0,0,0-1.14,1.56.542.542,0,0,1-.041.132c-.012.045-.029.1-.041.156s-.025.124-.033.185a.651.651,0,0,0,0,.128,2.2,2.2,0,0,0,0,.329h0a2.685,2.685,0,0,0,.053.309q0,.043,0,.086a2.15,2.15,0,0,0,.078.255.223.223,0,0,0,0,.049c.033.095.07.185.107.28l.062.14.049.115a7.153,7.153,0,0,1,.572,1.424,1.609,1.609,0,0,1-.054.943,2.882,2.882,0,0,1-.687.9,12.76,12.76,0,0,0-2.787,4.466c-.07.189-.14.379-.2.576h0l.086.021a3.509,3.509,0,0,0,.539.119c.1,0,.206.025.313.033a4.837,4.837,0,0,0,1.26-.1c.1-.021.21-.045.313-.074a7.767,7.767,0,0,0,1.235-.457v.585a14.6,14.6,0,0,0,8.105,13.053,3.893,3.893,0,0,0,.053.412c.016.144.029.222.041.333l-.165-.161s-1.115-.552-2.165,1.041A7.013,7.013,0,0,1,830,256.642s-11.246,1.778-11.678,3.252l-5.252.3s-1.856.247-2.058,4.116-1.173,4.236-1.173,4.236-2.161,3.8-1.976,5.763a3.227,3.227,0,0,1-1.647,2.947l-.247,3.495a2.37,2.37,0,0,0-2.6,2.087,8.167,8.167,0,0,1-1.544,3.5s-3.4,2.824-3.585,5.215l-2.1,1.288s-4.882-1.1-5.993-3.067l-.342-.321a.3.3,0,0,1-.029-.049.115.115,0,0,0,0,.025,15.424,15.424,0,0,0-2.058-1.8,1.5,1.5,0,0,1,.1.988l-.362-.412-.971-1.078s-7.891-7.409-12.526-7.977h0c-.062-.119-.358-1.284-1.148-.556a6.442,6.442,0,0,0-.045,9.468l7.389,6.9.189.14,1.589,2.058c-.268.642-.494,1.264-.679,1.832a.078.078,0,0,1-.021.054c-.037.123-.078.239-.115.354l-.037.123c-.033.115-.07.231-.1.338s-.037.136-.058.2,0,.078-.033.115c-.173.617-.288,1.091-.346,1.354l-.412-.128.412.173v.066l-.025.128.379.165c2.165.943,12.97,5.681,13.526,6.4.617.794,4.693,3.128,8.4,1.165a8.947,8.947,0,0,0,4.528-4.973s3.581-4.968,3.7-5.705,2.906-1.6,2.906-1.6.247,8.233-1.173,11.229-4.079,16.325-4.079,16.325a1.959,1.959,0,0,1,.527-.033c-.1.482-.156.77-.156.77a1.836,1.836,0,0,1,.654,0c-.2,1.515-1.334,8.545-1.334,8.545a17.552,17.552,0,0,1-.988,4.293c-.617,1.1-.679,6.874-.679,6.874l-.988,4.17a8.067,8.067,0,0,0,.375.72h0a10.7,10.7,0,0,0,2.844,3.676,7.536,7.536,0,0,1-.5,1.91,6.614,6.614,0,0,0-.494,2.943,37.736,37.736,0,0,0-.926,6.076,22.406,22.406,0,0,1-.679,4.664l-1.148,10.645s-.741,9.266-.37,11.785a22.445,22.445,0,0,1-.251,5.948s.741,7.3.556,8.1-1.111,4.232-.556,6.137.251,7.117.251,7.117.37,6.87.8,9.081a15.762,15.762,0,0,1-.123,5.034,37.072,37.072,0,0,1-.617,4.721c-.206,0-1.791,3.252,1.482,6.446s1.235,2.7,1.235,2.7-2.593-1.288-2.289,1.35c.3,2.511.7,1.856.741,1.786l-.617,2.017.412.062-.358.412a9.593,9.593,0,0,1-1.235,1.292,2.7,2.7,0,0,0-.823,1.778,48.157,48.157,0,0,1-8.834,7.488,26.477,26.477,0,0,0-5.022,3.371c-.761.823-.638,1.507.943,2.029,3.338,1.1,9.2,1.647,13.407.247A15.666,15.666,0,0,0,810.5,464.7a9.408,9.408,0,0,1,5.257-.86c2.6.49,7.784-2.881,7.784-2.881l-.095-.873-.276-2.507a1.972,1.972,0,0,1-.432-1.531,7.948,7.948,0,0,0-.218-2.206c-.041-.243-.091-.486-.136-.712l.473-.086s-.613-3.133.5-3.746.8-8.644.8-8.644a9.74,9.74,0,0,0-2.161-2.145c-.745-.3-.062-4.116.066-4.606s1.111-10,1.111-10-.37-3,.123-4.293-.593-6.228-.593-6.228a1.138,1.138,0,0,1,.313-1.35c.683-.737.412-7.3.412-7.3s-.058-3.314-.058-4.174a15.14,15.14,0,0,1,1.42-5.03c.679-1.041.247-4.3.247-4.3h0l.037-.243a2.439,2.439,0,0,1,.058-.35l.054-.325a46.34,46.34,0,0,1,1.223-5.355c.823-2.577,1.729-7.117,1.729-7.117l5.763-14.983.066-.177s2.655,4.911,2.655,9.468a54.373,54.373,0,0,1,.494,6.936,82.05,82.05,0,0,0,.547,8.368s.8,9.941.8,10.373.988,8.1,1.609,9.266-.622,4.726-.992,5.092.123,9.389.123,9.389-.926,7.117-1.111,8.591-.926,7.121-.309,9.328.37,2.515.37,2.515,2.227,2.272.926,2.47a3.4,3.4,0,0,0-2.47,4.474,57.327,57.327,0,0,0,2.721,6.586s.383-.086,1.021-.214v.729l.074,3.655a23.274,23.274,0,0,1,.185,4.3c-.181.585-.412,3.334-.547,4.771-.045.523-.07.873-.07.873s0,3.252,6.858,2.272,8.093-3.68,8.093-3.68a1.637,1.637,0,0,1,.049-.338c.1-.622.325-1.939.506-2.671.247-.984-1.976-5.4-1.976-5.4s-.37-3-.992-3.68a3.261,3.261,0,0,1-.494-1.288c-.058-.247-.107-.506-.148-.757a4.532,4.532,0,0,1,.457.082s-.37-2.149,1.054-2.824a2.026,2.026,0,0,0,.864-2.7,20.643,20.643,0,0,1,.556-4.05,2,2,0,0,1,.494-1.959c.869-.864,1.544-6.874,1.544-6.874l.123-23.2s.436-4.116-.058-5.763-.992-4.845-.313-5.705.062-4.845.062-4.845,0-8.41.93-10.492.617-15.28.617-15.28l.243-8.644s2.021-1.91,1.544-11.867c2.153-.136,4.581-.214,4.94.082.679.556,5.067,3.375,7.661,1.6a34.622,34.622,0,0,0,3.087-2.392l-1.087-18.4c.679,1.025,1.091,1.708,1.091,1.708,0-2.577,7.29-10.925,7.29-10.925s6.8-8.772,8.278-9.817,4.388-6.566,4.388-6.566a26.621,26.621,0,0,1,1.486-3.067C897.844,301.069,895.617,298.122,895.864,297.447Zm-15.947,6.438c-1.852.185-5.763,4.421-5.808,5.351a3.734,3.734,0,0,1-.823,1.647c-.029-.37-.062-.749-.091-1.132-.436-5.421-.91-12.028-.7-12.67.375-1.1.247-6.072.247-6.072h0l.066-.095c1.235,3.849,5.117,8.389,5.117,8.389s.679,1.963,1.482,2.025S879.917,303.885,879.917,303.885Z" transform="translate(-487.434 -141.788)" fill="url(#linear-gradient)"/>
    <path id="Path_369" data-name="Path 369" d="M795.34,407.636s2.252-11.814,9.5-11.876l5.3,10.9-3.532,2.437S798.934,409.34,795.34,407.636Z" transform="translate(-501.92 -246.934)" fill="#65617d"/>
    <path id="Path_370" data-name="Path 370" d="M810.138,406.678l-3.532,2.437a41.632,41.632,0,0,1-9.262-.778,11.084,11.084,0,0,1-2-.683.675.675,0,0,1,.041-.189v-.045a26.657,26.657,0,0,1,1.371-4.339c.226-.531.477-1.078.749-1.626a11,11,0,0,1,4.594-5.034,6.244,6.244,0,0,1,2.416-.63h.321l.115.243,1.791,3.68Z" transform="translate(-501.92 -246.951)" opacity="0.1"/>
    <path id="Path_371" data-name="Path 371" d="M969.536,493.169s7.615-.729,8.282-.181,4.993,3.347,7.553,1.581.852-7.916.852-8.159-.243-8.953-.243-8.953l-4.569-6.15-5.722-10.777L964,459.37l.3,17.116-.062,8.768Z" transform="translate(-601.154 -284.36)" fill="#65617d"/>
    <path id="Path_372" data-name="Path 372" d="M969.536,493.169s7.615-.729,8.282-.181,4.993,3.347,7.553,1.581.852-7.916.852-8.159-.243-8.953-.243-8.953l-4.569-6.15-5.722-10.777L964,459.37l.3,17.116-.062,8.768Z" transform="translate(-601.154 -284.36)" opacity="0.1"/>
    <path id="Path_373" data-name="Path 373" d="M789.915,378.983s-.609,7.43-5.236,7.549c0,0-1.313-.79-3.079-2.108-4.067-3.042-10.517-8.891-8.735-14.333,2.556-7.792,14.979,6.586,14.979,6.586l.951,1.07Z" transform="translate(-488.517 -230.469)" fill="#fbbebe"/>
    <path id="Path_374" data-name="Path 374" d="M802.276,393.235s-.609,7.43-5.236,7.549c0,0-1.313-.79-3.079-2.108l-.391-.506a6.088,6.088,0,0,0,2.536.683,3.429,3.429,0,0,0,3.293-2.087,26.133,26.133,0,0,0,1.28-2.947,8.584,8.584,0,0,0,.478-1.819Z" transform="translate(-500.879 -244.722)" opacity="0.1"/>
    <path id="Path_375" data-name="Path 375" d="M800.785,405.791l-1.042-1.342-3.507-4.528-1.786-2.309a6.019,6.019,0,0,0,2.536.683,3.392,3.392,0,0,0,3.293-2.083,26.613,26.613,0,0,0,1.28-2.951c.576-1.647.568-2.47.362-2.77a17.171,17.171,0,0,1,2.013,1.786l.025.025.338.317.124.247,1.766,3.528v.148C806.359,397.674,806.955,404.782,800.785,405.791Z" transform="translate(-501.396 -243.809)" fill="#e7effd"/>
    <path id="Path_376" data-name="Path 376" d="M850.009,794.642s-5.117,3.351-7.673,2.881a9.371,9.371,0,0,0-5.178.856,15.428,15.428,0,0,1-6.459,4.2c-4.116,1.4-9.92.848-13.209-.247-1.556-.519-1.684-1.185-.934-2.013a26.03,26.03,0,0,1,4.94-3.347,47.762,47.762,0,0,0,8.706-7.409A2.606,2.606,0,0,1,831,787.8a9.489,9.489,0,0,0,1.235-1.284c.654-.774,1.268-1.581,1.268-1.581l15.049.436s.255,1.083.457,2.19a7.931,7.931,0,0,1,.21,2.194,1.984,1.984,0,0,0,.412,1.519l.272,2.47Z" transform="translate(-514.141 -475.915)" fill="#65617d"/>
    <path id="Path_377" data-name="Path 377" d="M953.094,800.439c-.181.729-.412,2.034-.5,2.647l-.053.338s-1.235,2.68-7.973,3.655-6.759-2.256-6.759-2.256.025-.346.066-.869a47.253,47.253,0,0,1,.543-4.734,21.9,21.9,0,0,0-.185-4.264l-.07-3.626-.054-2.519,11.209-1.161a20.352,20.352,0,0,0,.362,2.495,3.19,3.19,0,0,0,.49,1.28c.609.671.971,3.655.971,3.655S953.337,799.464,953.094,800.439Z" transform="translate(-585.745 -477.509)" fill="#65617d"/>
    <path id="Path_378" data-name="Path 378" d="M871.493,785.3s.255,1.083.457,2.19c-1.626.3-8.731,1.531-10.5.671a27.833,27.833,0,0,0-6.335-1.523l.07-.247c.654-.774,1.268-1.581,1.268-1.581Z" transform="translate(-537.087 -475.838)" opacity="0.1"/>
    <path id="Path_379" data-name="Path 379" d="M950.1,790.145c-2.84-.482-9.056.683-11.526,1.185l-.053-2.519,11.209-1.161A20.335,20.335,0,0,0,950.1,790.145Z" transform="translate(-586.163 -477.509)" opacity="0.1"/>
    <path id="Path_380" data-name="Path 380" d="M905.765,516.693l-.243,8.587s.3,13.094-.609,15.165S904,550.858,904,550.858s.609,3.956-.062,4.808-.181,4.018.3,5.664.062,5.726.062,5.726l-.124,23.018s-.667,5.965-1.523,6.821a2,2,0,0,0-.486,1.947,20.757,20.757,0,0,0-.547,4.022,2.018,2.018,0,0,1-.852,2.676c-1.4.667-1.037,2.8-1.037,2.8-3.347-.794-12.847,1.342-12.847,1.342a57.161,57.161,0,0,1-2.68-6.52,3.371,3.371,0,0,1,2.437-4.441c1.276-.185-.914-2.437-.914-2.437s.243-.3-.366-2.494.119-7.821.3-9.262S886.764,576,886.764,576s-.486-8.949-.119-9.315,1.581-3.9.976-5.055-1.589-8.768-1.589-9.2-.786-10.291-.786-10.291a81.755,81.755,0,0,1-.547-8.344,53.628,53.628,0,0,0-.49-6.878c0-4.528-2.618-9.381-2.618-9.381l-.066.177-5.643,14.868s-.914,4.5-1.7,7.06a46.173,46.173,0,0,0-1.19,5.289l-.053.325a2.057,2.057,0,0,1-.054.342l-.037.247h0s.412,3.227-.247,4.265a15.412,15.412,0,0,0-1.4,4.993c0,.852.062,4.141.062,4.141s.243,6.516-.412,7.249a1.169,1.169,0,0,0-.309,1.338s1.095,4.94.609,6.212-.119,4.26-.119,4.26-.976,9.443-1.095,9.929-.794,4.265-.062,4.569A9.7,9.7,0,0,1,872,594.936s.309,7.982-.79,8.587-.49,3.7-.49,3.7-8.825,1.7-10.834.729a27.783,27.783,0,0,0-6.335-1.523l.605-2c-.037.07-.44.72-.729-1.774-.3-2.618,2.256-1.342,2.256-1.342s2.009.49-1.235-2.676-1.646-6.4-1.461-6.4a40.526,40.526,0,0,0,.613-4.684,15.59,15.59,0,0,0,.119-5c-.428-2.194-.79-9.015-.79-9.015s.3-5.174-.243-7.06.362-5.3.547-6.092-.568-8.019-.568-8.019a22.48,22.48,0,0,0,.243-5.9c-.366-2.495.366-11.694.366-11.694l1.095-10.6a22.579,22.579,0,0,0,.671-4.631,37.835,37.835,0,0,1,.918-6.026,6.586,6.586,0,0,1,.486-2.923c.609-1.235.852-5.236.852-5.236l5.849-13.4,2.881-11.814,38.665-.366s.144,1.025.379,2.881.564,4.614.93,8.019c.338,3.091.708,6.726,1.066,10.772C908.235,514.379,905.765,516.693,905.765,516.693Z" transform="translate(-535.51 -296.374)" fill="#3f3d56"/>
    <path id="Path_381" data-name="Path 381" d="M943.892,296.173l-9.015,9.624s-11.567-4.631-10.348-6.211c.469-.613.412-2.548.123-4.68-.412-3.375-1.342-7.257-1.342-7.257s20.215-3.293,18.523.119a5.589,5.589,0,0,0-.128,4.046A15.23,15.23,0,0,0,943.892,296.173Z" transform="translate(-577.214 -182.483)" fill="#fbbebe"/>
    <path id="Path_382" data-name="Path 382" d="M941.821,287.783c-.622,1.235-.918,1.367-.531,2.713-2.643,2.828-6.006,5.932-10.188,5.932a14.432,14.432,0,0,1-6.45-1.511c-.412-3.375-1.342-7.257-1.342-7.257S943.525,284.366,941.821,287.783Z" transform="translate(-577.214 -182.491)" opacity="0.1"/>
    <path id="Path_383" data-name="Path 383" d="M936.018,254.026a14.5,14.5,0,1,1-28.993,0c0-.07,0-.14,0-.206a14.494,14.494,0,1,1,28.987.206Z" transform="translate(-567.632 -154.954)" fill="#fbbebe"/>
    <path id="Path_384" data-name="Path 384" d="M924.289,495.707c-1.918,0-8.311.07-15.457.181h-.086l-2.359.041h-.074c-8.471.136-16.823-1.519-20.17-1.206-7.121.667,2.56-6.586,2.56-6.586a59.6,59.6,0,0,0,16.231,1.647l2.058-.107c6.471-.366,12.979-.976,16.379-2C923.6,489.565,923.922,492.3,924.289,495.707Z" transform="translate(-553.807 -301.017)" opacity="0.1"/>
    <path id="Path_385" data-name="Path 385" d="M924.289,494.823c-1.918,0-8.311.07-15.457.181h-.086l-2.359.041h-.074c-8.471.136-16.823-1.519-20.17-1.206-7.121.671,2.56-6.586,2.56-6.586a59.6,59.6,0,0,0,16.231,1.646l2.058-.107c6.471-.366,12.979-.976,16.379-1.992C923.6,488.685,923.922,491.41,924.289,494.823Z" transform="translate(-553.807 -300.499)" fill="#5f5d7e"/>
    <path id="Path_386" data-name="Path 386" d="M904.409,317.03l-11.2,5.24-8.644,66.861s5.112-2.313,8.039-.852,11.937.123,11.937.123,6.586-.366,7.553.366,12.415-3.063,12.415-3.063,2.058-4.627.486-5.351.5-7.907.5-7.907l-.988-48.231-1.951-6.212-5.236-3.165-5.351,4.26-2.556.366Z" transform="translate(-554.414 -199.323)" opacity="0.1"/>
    <path id="Path_387" data-name="Path 387" d="M904.409,315.254l-11.2,5.236-8.644,66.865s5.112-2.313,8.039-.852,11.937.119,11.937.119,6.586-.362,7.553.366,12.423-3.046,12.423-3.046,2.058-4.627.486-5.351.494-7.928.494-7.928l-.988-48.227-1.951-6.207-5.236-3.17-5.351,4.264-2.556.366Z" transform="translate(-554.414 -198.276)" fill="#e7effd"/>
    <path id="Path_388" data-name="Path 388" d="M919.874,324.5s3.227,3.836,3.17,4.631-.185,2.68-.185,2.68l-2.437,4.94s-1.338,6.15-1.338,7.43-2.132,12.349-2.132,12.349l-2.564,17.054-3.227,22.352,3.293,5.66,3.894-3.293,5.178-39.829,1.095-7.854s1.157-14.127,1.157-15.589a49.953,49.953,0,0,0-.667-5.3s.79-3.655,4.079-4.528-.243-.185-.243-.185l-1.889-1.519-1.646.667S920.85,322.8,919.874,324.5Z" transform="translate(-570.065 -204.418)" opacity="0.1"/>
    <path id="Path_389" data-name="Path 389" d="M919,323.656s3.231,3.836,3.17,4.627-.185,2.68-.185,2.68l-2.433,4.94s-1.342,6.15-1.342,7.43-2.132,12.349-2.132,12.349l-2.556,17.05-3.227,22.352,3.293,5.664,3.9-3.293,5.174-39.825,1.1-7.85s1.157-14.127,1.157-15.589a49.954,49.954,0,0,0-.667-5.3s.79-3.655,4.079-4.507-.243-.181-.243-.181l-1.889-1.523-1.646.671S919.972,321.947,919,323.656Z" transform="translate(-569.553 -203.936)" fill="#6c63ff"/>
    <path id="Path_390" data-name="Path 390" d="M922.787,309.51s-.49.366-.609,2.8a48.524,48.524,0,0,1-1.828,7.916s6.335-4.384,9.5-3.9Z" transform="translate(-575.472 -196.187)" opacity="0.1"/>
    <path id="Path_391" data-name="Path 391" d="M922.787,307.74s-.49.362-.609,2.8a48.523,48.523,0,0,1-1.828,7.916s6.335-4.384,9.5-3.894Z" transform="translate(-575.472 -195.146)" fill="#e7effd"/>
    <path id="Path_392" data-name="Path 392" d="M953.994,304.78,944,313.548s8.406,4.993,9.5,6.212,2.19-11.937,2.19-11.937Z" transform="translate(-589.387 -193.404)" opacity="0.1"/>
    <path id="Path_393" data-name="Path 393" d="M954.9,303l-9.986,8.772s8.4,4.993,9.5,6.212,2.19-11.937,2.19-11.937Z" transform="translate(-589.922 -192.357)" fill="#e7effd"/>
    <path id="Path_394" data-name="Path 394" d="M885.664,309.379s-1.095-.547-2.128,1.037a6.916,6.916,0,0,1-2.984,2.313s-11.085,1.766-11.526,3.227l-5.178.3s-1.828.243-2.009,4.079-1.157,4.2-1.157,4.2-2.132,3.775-1.947,5.722a3.2,3.2,0,0,1-1.646,2.927l7.611,19.791s.247,8.159-1.157,11.143-4.018,16.2-4.018,16.2,1.095-.243,1.033.486-1.3,8.71-1.3,8.71a17.582,17.582,0,0,1-.976,4.265c-.609,1.1-.671,6.817-.671,6.817l-.971,4.141s2.313,5.178,5.845,4.446,9.924-14.551,9.924-14.551l4.083-14.922,3.165-14.736.914-9.986,1.461-22.1,2.132-14.617S886.52,310.4,885.664,309.379Z" transform="translate(-537.987 -196.056)" opacity="0.1"/>
    <path id="Path_395" data-name="Path 395" d="M884.725,307.609s-1.1-.547-2.132,1.033a6.879,6.879,0,0,1-2.984,2.313s-11.081,1.766-11.526,3.227l-5.178.3s-1.824.247-2.009,4.083-1.157,4.2-1.157,4.2-2.132,3.779-1.947,5.726a3.192,3.192,0,0,1-1.647,2.923l7.615,19.791s.243,8.159-1.157,11.143-4.022,16.2-4.022,16.2,1.095-.247,1.037.486-1.342,8.706-1.342,8.706a17.539,17.539,0,0,1-.976,4.264c-.609,1.095-.667,6.821-.667,6.821l-.976,4.141s2.313,5.174,5.845,4.446,9.937-14.555,9.937-14.555l4.079-14.918,3.165-14.736.914-9.99,1.461-22.1,2.132-14.613S885.577,308.642,884.725,307.609Z" transform="translate(-537.41 -195.015)" fill="#65617d"/>
    <path id="Path_396" data-name="Path 396" d="M809.609,406.136l-3.532,2.437a41.63,41.63,0,0,1-9.262-.778l-1.964-.873-.412-.173.412.128a8.035,8.035,0,0,0,4.878.173c5-1.684,4.446-9.937,4.252-11.8a1.563,1.563,0,0,0-.041-.354.111.111,0,0,1,0-.025l.029.049a2.725,2.725,0,0,0,.231.321c.07.078.144.161.222.239h0l1.766,3.528v.148Z" transform="translate(-501.391 -246.41)" opacity="0.1"/>
    <path id="Path_397" data-name="Path 397" d="M822.368,364.4l-1.708.486-.243,3.47a2.335,2.335,0,0,0-2.556,2.058,8.474,8.474,0,0,1-1.523,3.474s-3.351,2.8-3.532,5.174l-2.058,1.28s-4.812-1.1-5.907-3.046c0,0,2.194,15.712-9.5,11.876,0,0,13.094,5.722,13.7,6.516s4.627,3.1,8.282,1.157a8.786,8.786,0,0,0,4.446-4.94s3.532-4.94,3.651-5.664,2.881-1.585,2.881-1.585l5.236-12.666Z" transform="translate(-501.92 -228.483)" fill="#65617d"/>
    <path id="Path_398" data-name="Path 398" d="M963.127,311.039,964.892,303s.79,2.618,1.585,3.227l2.618,2.013a15.237,15.237,0,0,0,3.532,1.214c.914,0,5.845,1.28,6.454,1.951s3.046.181,3.046.181,2.009.671,3.775,1.095,2.618,3.351,2.252,4.528a3.511,3.511,0,0,0,.852,3.293c.733.733,1.1,3.108,1.1,3.108a3.565,3.565,0,0,1,2.058,1.766,12.126,12.126,0,0,1,.412,4.26l-9.056,12.789s.119,4.94-.243,6.03,1.276,19.729,1.276,19.729l1.889,32.029a33.867,33.867,0,0,1-3.046,2.375c-.547.243-1.095-11.324-1.095-11.752s-14.065-21.071-14.065-21.071-1.889-3.042-1.889-3.7-1.766-6.821-1.766-6.821l-2.68-11.876Z" transform="translate(-599.919 -192.357)" opacity="0.1"/>
    <path id="Path_399" data-name="Path 399" d="M994.471,328.933v.7l-9.056,12.761h0s.124,4.94-.239,6.026c-.214.638.251,7.191.683,12.575.3,3.882.593,7.154.593,7.154l.8,13.584,1.083,18.441a33.715,33.715,0,0,1-3.042,2.375c-.547.243-1.095-11.324-1.095-11.752s-14.07-21.067-14.07-21.067-1.889-3.05-1.889-3.7-1.766-6.821-1.766-6.821L963.8,347.329l1.214-36.294,1-8.035a17.6,17.6,0,0,0,2.313,3.227l2.618,2.009a15.068,15.068,0,0,0,3.532,1.235c.914,0,5.849,1.276,6.458,1.947s3.042.181,3.042.181,2.009.671,3.775,1.095,2.622,3.351,2.256,4.528a3.5,3.5,0,0,0,.852,3.293c.729.729,1.095,3.1,1.095,3.1a3.581,3.581,0,0,1,2.058,1.77A9.348,9.348,0,0,1,994.471,328.933Z" transform="translate(-601.037 -192.357)" fill="#65617d"/>
    <path id="Path_400" data-name="Path 400" d="M857.48,760.14c.3,0,13.09.486,12.847,2.556S857.48,760.14,857.48,760.14Z" transform="translate(-538.481 -461.323)" opacity="0.1"/>
    <path id="Path_401" data-name="Path 401" d="M864.43,768.57s8.587,1.4,6.331,2.68S864.43,768.57,864.43,768.57Z" transform="translate(-542.57 -466.283)" opacity="0.1"/>
    <path id="Path_402" data-name="Path 402" d="M942,756.88s14.251,1.235,12.118,2.8-7.187,1.823-7.409,1.885S942,756.88,942,756.88Z" transform="translate(-588.21 -459.405)" opacity="0.1"/>
    <path id="Path_403" data-name="Path 403" d="M937.81,772.12s7.916,1.338,8.159,2.881S937.81,772.12,937.81,772.12Z" transform="translate(-585.745 -468.372)" opacity="0.1"/>
    <path id="Path_404" data-name="Path 404" d="M948.46,683.06s7.245,1.7,7.673,2.881Z" transform="translate(-592.011 -415.972)" opacity="0.1"/>
    <path id="Path_405" data-name="Path 405" d="M878.1,695.78s-3.775,1.095-.119,3.293S878.1,695.78,878.1,695.78Z" transform="translate(-549.606 -423.456)" opacity="0.1"/>
    <path id="Path_406" data-name="Path 406" d="M921.24,551.5c.412,0,7.064-2.19,9.377-1.235a15.431,15.431,0,0,0,5.174.984Z" transform="translate(-575.996 -337.698)" opacity="0.1"/>
    <path id="Path_407" data-name="Path 407" d="M910.99,565.687l-.066.605-5.66,14.868s-.914,4.5-1.7,7.06a46.186,46.186,0,0,0-1.19,5.289L907.4,562.34Z" transform="translate(-564.893 -344.944)" opacity="0.1"/>
    <path id="Path_408" data-name="Path 408" d="M939.336,497.857l-2.359.041H936.9l-1.383-6.137,2.058-.111Z" transform="translate(-584.398 -303.352)" fill="#3f3d56"/>
    <path id="Path_409" data-name="Path 409" d="M979.543,480.3l-1.519,1.235-5.059,4.17s-13.7,7.311-17.478.366c-3.326-6.117,12.209-10.484,15.951-11.435.506-.128.794-.193.794-.193Z" transform="translate(-595.873 -293.227)" fill="#fbbebe"/>
    <path id="Path_410" data-name="Path 410" d="M872.42,343.24s2.68,1.235,3.293,2.923S872.42,343.24,872.42,343.24Z" transform="translate(-547.272 -216.033)" opacity="0.1"/>
    <path id="Path_411" data-name="Path 411" d="M848.452,387.62s-3.9,4.75-2.313,6.586S848.452,387.62,848.452,387.62Z" transform="translate(-531.585 -242.145)" opacity="0.1"/>
    <path id="Path_412" data-name="Path 412" d="M1016.145,349.75s-3.655.366-3.775,3.532Z" transform="translate(-629.614 -219.863)" opacity="0.1"/>
    <path id="Path_413" data-name="Path 413" d="M939.29,454.252c.362-.366,8.768-12.789,10.7-11.69Z" transform="translate(-586.616 -274.43)" opacity="0.1"/>
    <path id="Path_414" data-name="Path 414" d="M936.021,254.026a14.407,14.407,0,0,1-1.716,6.841l-.107-.021c-.918-.193-1.4-1.264-2.1-1.931a2.852,2.852,0,0,0-3.293-.461,3.347,3.347,0,0,0-1.614,3.124c-.465-1.951-.317-4.022-.77-5.977s-1.815-3.931-3.684-3.964c-.823,0-1.741.292-2.326-.309-.35-.362-.412-.934-.683-1.379-1.334-2.157-5.4-1.066-7.055.041s-3.581,2.881-5.643,3.828a14.494,14.494,0,1,1,28.987.206Z" transform="translate(-567.635 -154.954)" opacity="0.1"/>
    <path id="Path_415" data-name="Path 415" d="M914.5,238.415c.263.44.333,1.013.683,1.375.58.605,1.523.292,2.326.309,1.869.033,3.231,2.009,3.684,3.964s.3,4.026.77,5.977a3.338,3.338,0,0,1,1.618-3.124,2.853,2.853,0,0,1,3.293.461c.7.667,1.181,1.737,2.1,1.931s1.8-.687,2.136-1.647a26.08,26.08,0,0,0,.527-3.034c.412-1.9,1.647-3.458,2.338-5.265a9.537,9.537,0,0,0-.062-6.8c-.457-1.144-1.136-2.173-1.6-3.314-.7-1.737-.881-3.7-1.737-5.351a6.307,6.307,0,0,0-7.586-3.112c-1.321.494-2.47,1.457-3.816,1.889-1.8.58-3.725.144-5.586-.115s-3.923-.284-5.421.939c-1.725,1.412-2.194,4.063-3.816,5.611-.679.65-1.523,1.066-2.239,1.647a2.965,2.965,0,0,0-1.235,2.47c.107,1.26,1.342,2.4.885,3.573a2.88,2.88,0,0,1-.675.893,12.732,12.732,0,0,0-2.947,5.014c3.256,1.021,6.784-2.573,9.336-4.273C909.11,237.349,913.169,236.254,914.5,238.415Z" transform="translate(-562.404 -143.78)" fill="#7c5c5c"/>
    <path id="Path_416" data-name="Path 416" d="M1002.664,480.3l-1.519,1.235c-1.338-2.223-6.825-6.668-6.825-6.668l.239-.231c.506-.128.794-.193.794-.193Z" transform="translate(-618.994 -293.227)" opacity="0.1"/>
    <path id="Path_417" data-name="Path 417" d="M1004.649,475.271s-.547,1.358-1.107,2.527-1.177,2.239-1.206,1.371c-.062-1.7-7.125-7.43-7.125-7.43l.959-.93,1.107-1.078Z" transform="translate(-619.517 -290.455)" fill="#e7effd"/>
    <path id="Path_418" data-name="Path 418" d="M1004.974,451.064l.8,13.584c-1.893-2.943-7.088-10.484-10.427-10.241l8.089-9.307a11.034,11.034,0,0,0,.93-1.19C1004.673,447.792,1004.974,451.064,1004.974,451.064Z" transform="translate(-619.6 -275.264)" opacity="0.1"/>
    <path id="Path_419" data-name="Path 419" d="M1006.02,475.259s-.547,1.358-1.107,2.527c-2.124-2.91-5.042-6.347-7.372-7l1.107-1.078Z" transform="translate(-620.888 -290.444)" opacity="0.1"/>
    <path id="Path_420" data-name="Path 420" d="M1011.325,363.51l2.194,1.7s3.651.062,4.018,3.108,3.7,4.446,3.7,4.446,2.495,2.494,2.495,3.651,1.889,3.227,1.889,3.412,1.828,3.9,1.581,4.565,1.951,3.594,1.28,4.689a27,27,0,0,0-1.461,3.046s-2.861,5.483-4.322,6.516-8.163,9.743-8.163,9.743-7.183,8.282-7.183,10.838c0,0-7-11.69-11.147-11.386l8.1-9.319s1.4-1.519,1.461-2.433,3.9-5.117,5.726-5.3c0,0,.3-2.5-.49-2.56s-1.461-2.009-1.461-2.009-5.351-6.331-5.421-10.353S1011.325,363.51,1011.325,363.51Z" transform="translate(-620.106 -227.959)" fill="#65617d"/>
    <path id="Path_421" data-name="Path 421" d="M1034.808,377.56s-5.113,3.779-4.018,4.993S1034.808,377.56,1034.808,377.56Z" transform="translate(-640.361 -236.226)" opacity="0.1"/>
    <path id="Path_422" data-name="Path 422" d="M1041.36,413.5s9.5-3.046,10.476,0Z" transform="translate(-646.67 -256.578)" opacity="0.1"/>
    <path id="Path_423" data-name="Path 423" d="M850.009,807.31s-5.117,3.351-7.673,2.881a9.371,9.371,0,0,0-5.178.856,15.428,15.428,0,0,1-6.459,4.2c-4.116,1.4-9.92.848-13.209-.247-1.556-.519-1.684-1.186-.934-2.013,3.577.712,11.567,2.132,13.72,1.1a57.246,57.246,0,0,0,6.821-4.265s5.24-.729,5.969-.729a66.31,66.31,0,0,0,6.85-2.626Z" transform="translate(-514.141 -488.582)" opacity="0.1"/>
    <path id="Path_424" data-name="Path 424" d="M952.6,825.15l-.053.338s-1.235,2.68-7.973,3.655-6.759-2.256-6.759-2.256.025-.346.066-.869C940.016,826.829,944.684,827.735,952.6,825.15Z" transform="translate(-585.745 -499.573)" opacity="0.1"/>
    <path id="Path_425" data-name="Path 425" d="M876.383,375.79s0,13.884-1.19,15.255S876.383,375.79,876.383,375.79Z" transform="translate(-548.708 -235.184)" opacity="0.1"/>
    <path id="Path_426" data-name="Path 426" d="M1011.92,386.66l1.766,4.964S1014.39,386.751,1011.92,386.66Z" transform="translate(-629.349 -241.58)" opacity="0.1"/>
    <g id="Group_47" data-name="Group 47" transform="translate(335.707 88.362)" opacity="0.1">
      <path id="Path_427" data-name="Path 427" d="M905.781,252.361c.445-1.144-.724-2.264-.877-3.491a2.289,2.289,0,0,0-.193,1.1c.078.922.757,1.782.939,2.639A1.651,1.651,0,0,0,905.781,252.361Z" transform="translate(-901.974 -248.87)"/>
      <path id="Path_428" data-name="Path 428" d="M922.089,270.969c-.436-1.918-.309-3.952-.753-5.874s-1.815-3.931-3.68-3.964c-.823,0-1.745.3-2.326-.3-.354-.362-.412-.939-.687-1.379-1.334-2.161-5.392-1.066-7.055.041-2.47,1.647-5.911,5.117-9.105,4.335-.152.366-.292.741-.412,1.124,3.256,1.021,6.784-2.573,9.336-4.273,1.647-1.1,5.722-2.2,7.055-.037.263.44.333,1.013.683,1.375.58.605,1.523.292,2.326.309,1.869.033,3.231,2.009,3.684,3.964s.3,4.026.77,5.977A3.357,3.357,0,0,1,922.089,270.969Z" transform="translate(-898.07 -254.364)"/>
      <path id="Path_429" data-name="Path 429" d="M965.59,282.145c-.329.963-1.2,1.852-2.136,1.647s-1.4-1.264-2.1-1.935a2.882,2.882,0,0,0-3.293-.457,3.318,3.318,0,0,0-1.618,2.947,3.194,3.194,0,0,1,1.437-1.762,2.853,2.853,0,0,1,3.293.461c.7.667,1.181,1.737,2.1,1.931s1.8-.687,2.136-1.647a8.324,8.324,0,0,0,.333-1.749A4.578,4.578,0,0,1,965.59,282.145Z" transform="translate(-932.417 -267.82)"/>
      <path id="Path_430" data-name="Path 430" d="M982.025,261.6c-.683,1.807-1.926,3.363-2.338,5.265-.082.383-.132.774-.177,1.169.412-1.893,1.646-3.445,2.334-5.248a9.392,9.392,0,0,0,.564-2.523A9.222,9.222,0,0,1,982.025,261.6Z" transform="translate(-945.987 -255.572)"/>
    </g>
    <circle id="Ellipse_50" data-name="Ellipse 50" cx="0.148" cy="0.148" r="0.148" transform="translate(283.594 138.186)" fill="#e6e8ec"/>
    <ellipse id="Ellipse_51" data-name="Ellipse 51" cx="35.54" cy="3.626" rx="35.54" ry="3.626" transform="translate(300.784 322.498)" fill="#6c63ff" opacity="0.1"/>
    <path id="Path_431" data-name="Path 431" d="M428.216,245.251,320.57,315.088l70.249,126.7a4.9,4.9,0,0,0,3.128,2.387L457.6,459.7a4.907,4.907,0,0,0,5.573-2.639l31.572-65.594,34.6-46.255-82.112-97.145a14.551,14.551,0,0,0-19.017-2.82Z" transform="translate(-222.581 -157.005)" fill="#dcdfed"/>
    <path id="Path_432" data-name="Path 432" d="M532,346.537l-.3.412-20.269,27.1-.366.49L497.4,392.8l-27,56.11-.757,1.568-3.812,7.916a4.907,4.907,0,0,1-5.582,2.639L396.593,445.5a4.894,4.894,0,0,1-3.128-2.387l-6.121-11.019-1.1-1.984-44.18-79.717-.379-.679-18.466-33.3,2.231-1.449,16.914-10.97.391-.255,35.618-23.109,2.248-1.457,50.24-32.6a14.547,14.547,0,0,1,19.026,2.816l37.458,44.333,1.647,1.976,27.188,32.165.148.177L530,344.207l1.721,2.038Z" transform="translate(-224.14 -157.778)" opacity="0.1"/>
    <path id="Path_433" data-name="Path 433" d="M539.169,376.649,535.851,399.7l-1,6.957-.572,14.819-.045,1.157-2.976,77.428a4.911,4.911,0,0,1-5.973,4.6L493.2,497.5l-.346-.078-82.281-18.363-1.511-.338-45.234-10.1L364.867,399l.033-2.326.313-21.071.346-23.257,35.618-23.109,2.248-1.457c33.038,3.388,76.975,9.9,106.74,14.551l1.647,1.976,27.168,32.165Z" transform="translate(-248.033 -206.937)" opacity="0.1"/>
    <path id="Path_434" data-name="Path 434" d="M542.339,348.434,538.432,375.6l-3.581,24.879-1,6.94-.572,14.819-3.021,78.585a4.911,4.911,0,0,1-5.973,4.6l-32.428-7.241-82.281-18.363L362.83,469.38l1.07-71.941.313-21.071.366-24.649.375-25.352c7.73-.366,20.45.461,35.635,1.988,34,3.412,80.351,10.315,110.655,15.07C529.8,346.335,542.339,348.434,542.339,348.434Z" transform="translate(-247.445 -206.054)" fill="#dc7059"/>
    <path id="Path_435" data-name="Path 435" d="M527.392,443.976l-17.4,8.533-88.8,43.551-81.837-67.635L322.811,414.73l-2.231,1.449,18.466,33.3-1.07,71.941L384.72,531.86l6.109,11.019a4.894,4.894,0,0,0,3.128,2.387l63.651,15.527a4.907,4.907,0,0,0,5.569-2.639l3.812-7.916,32.428,7.241a4.911,4.911,0,0,0,5.973-4.6l3.021-78.585,20.635-27.579.058-.7Z" transform="translate(-222.586 -258.095)" opacity="0.1"/>
    <path id="Path_436" data-name="Path 436" d="M310.067,418.25l-7.339,125.684a4.907,4.907,0,0,0,3.832,5.075l194.916,43.283a4.907,4.907,0,0,0,5.94-4.392l11.423-139.523L410.682,501.424Z" transform="translate(-212.078 -260.166)" fill="#dcdfed"/>
    <path id="Path_437" data-name="Path 437" d="M305.421,639.733l101.261-62.473a7.434,7.434,0,0,1,9.468,1.482l90.633,105.7c.329.379.49.107,0,0L305.421,639.733C304.845,639.605,304.919,640.033,305.421,639.733Z" transform="translate(-213.429 -353.088)" opacity="0.1"/>
    <path id="Path_438" data-name="Path 438" d="M307.009,642.171l100.216-60.539a7.858,7.858,0,0,1,9.994,1.572L507.033,686.5a1.083,1.083,0,0,1-1.05,1.766L307.334,644.151a1.078,1.078,0,0,1-.325-1.98Z" transform="translate(-214.293 -355.629)" fill="#e3e5f1"/>
  </g>
</svg>
