<svg id="Group_49" data-name="Group 49" xmlns="http://www.w3.org/2000/svg" width="426" height="384.228" viewBox="0 0 426 384.228">
  <circle id="Ellipse_52" data-name="Ellipse 52" cx="100.05" cy="100.05" r="100.05" transform="translate(101.688 166.437)" fill="#f2f2f2"/>
  <ellipse id="Ellipse_53" data-name="Ellipse 53" cx="94.942" cy="12.97" rx="94.942" ry="12.97" transform="translate(92.662 358.288)" fill="#3f3d56"/>
  <ellipse id="Ellipse_54" data-name="Ellipse 54" cx="6.721" cy="3.262" rx="6.721" ry="3.262" transform="translate(182.912 104.412) rotate(-18.58)" fill="#3f3d56"/>
  <path id="Path_439" data-name="Path 439" d="M468.834,270.461,504.088,254.4s59.727-22.576,110.821,32.532c0,0-22.9-14.7-40.255,4.718,0,0-32.66-8.836-60.069,23.63,0,0-42.868,6.492-60.722,29.242,0,0-19.9-3.061-27.827,22.172a.757.757,0,0,1-1.252.312h0a.751.751,0,0,1-.213-.4C423.828,362.706,415.073,310.685,468.834,270.461Z" transform="translate(-292.135 -150.229)" fill="#6c63ff"/>
  <path id="Path_440" data-name="Path 440" d="M468.834,270.461,504.088,254.4s59.727-22.576,110.821,32.532c0,0-22.9-14.7-40.255,4.718,0,0-32.66-8.836-60.069,23.63,0,0-42.868,6.492-60.722,29.242,0,0-19.9-3.061-27.827,22.172a.757.757,0,0,1-1.252.312h0a.751.751,0,0,1-.213-.4C423.828,362.706,415.073,310.685,468.834,270.461Z" transform="translate(-292.135 -150.229)" opacity="0.2"/>
  <path id="Path_441" data-name="Path 441" d="M405.524,374.233l14.68,2.447,4.893-23.244-11.826-4.893Z" transform="translate(-218.089 -187.445)" fill="#2f2e41"/>
  <circle id="Ellipse_55" data-name="Ellipse 55" cx="12.641" cy="12.641" r="12.641" transform="translate(194.979 156.816)" fill="#a0616a"/>
  <path id="Path_442" data-name="Path 442" d="M563.8,416.421s1.223,15.5-8.156,16.719,8.156,28.953,12.641,28.545,12.641-30.176,12.641-30.176-10.6-7.34-6.932-13.865Z" transform="translate(-361.681 -239.827)" fill="#a0616a"/>
  <path id="Path_443" data-name="Path 443" d="M542.483,536.716s1.631,11.826,6.525,11.826-3.262-13.457-3.262-13.457Z" transform="translate(-356.067 -303.644)" fill="#a0616a"/>
  <path id="Path_444" data-name="Path 444" d="M694.031,564.2s12.233,10.195,10.6,13.457-12.233-3.67-13.049-11.826Z" transform="translate(-436.254 -319.302)" fill="#a0616a"/>
  <path id="Path_445" data-name="Path 445" d="M518.211,648.9l-7.748,28.953L501.9,712.918h8.156s2.854-11.01,8.156-16.719c0,0,5.3-8.971,5.3-15.088l12.641-29.768Z" transform="translate(-334.242 -364.851)" fill="#a0616a"/>
  <path id="Path_446" data-name="Path 446" d="M609.535,646.257l2.447,27.321s-.408,19.574,0,24.059a89.92,89.92,0,0,1,0,11.01h7.34s6.932-24.059,4.893-37.108l2.854-30.584Z" transform="translate(-392.128 -360.581)" fill="#a0616a"/>
  <path id="Path_447" data-name="Path 447" d="M554.771,464.092s-10.987-8.707-8.144-20.869c0,0-11.022.479-15.508,4.965s1.223,19.574,1.223,19.574,9.787,16.311,8.156,23.651-19.166,46.079-13.457,48.526,40.371,11.01,57.905-3.262c0,0,4.486-40.371-13.457-53.42V473.063s3.262-2.854,1.631-10.195c0,0,6.932-12.641,2.854-15.088s-13.445-6.032-13.445-6.032S563.335,460.014,554.771,464.092Z" transform="translate(-347.151 -253.448)" fill="#2f2e41"/>
  <path id="Path_448" data-name="Path 448" d="M513.447,455.653s-5.3-.816-10.6,6.932-19.166,19.981-12.641,26.1,24.059,10.195,24.059,10.195l4.078-7.34-17.535-8.563,14.68-11.01Z" transform="translate(-327.032 -260.913)" fill="#2f2e41"/>
  <path id="Path_449" data-name="Path 449" d="M625.556,455.682s5.709,0,8.156,6.932S650.431,493.2,650.431,493.2l8.156,12.641-5.709,6.525-15.9-17.942-15.088-24.875Z" transform="translate(-398.77 -260.941)" fill="#2f2e41"/>
  <path id="Path_450" data-name="Path 450" d="M504.462,785.646H493.044L490.6,805.627s-6.525,10.6,3.262,9.379,6.525-12.234,6.525-12.234l2.447-4.078.816,8.563.816-.408v-9.379S508.948,793.394,504.462,785.646Z" transform="translate(-327.018 -438.395)" fill="#2f2e41"/>
  <path id="Path_451" data-name="Path 451" d="M620.322,784.7l-10.6-.816-2.039,22.836s-1.223,8.563,6.117,7.34,4.893-8.156,4.893-8.156V793.26Z" transform="translate(-391.09 -437.446)" fill="#2f2e41"/>
  <path id="Path_452" data-name="Path 452" d="M553.8,369.552s-5.941,1.98-6.242,9.8a13.871,13.871,0,0,0,.412,3.714c.335,1.418.55,4.468-2.043,8.454a83.7,83.7,0,0,0-4.75,8.17l-.019.037,6.525.816,1.387-10.815a53.853,53.853,0,0,1,4.277-15.183l.045-.1s2.854,5.3,8.563,5.3l-2.039-2.039s8.971,3.67,12.234,3.67c0,0,2.447,1.631,0,4.078s-7.34,8.156-4.486,12.641.408,5.709.408,5.709l4.486-2.447,2.039-1.223v1.631l10.6-1.223s2.854-.408-3.262-7.34c0,0-1.615-2.692-.909-5.014a11.711,11.711,0,0,0,.445-5.477C580.1,375.068,574.728,359.869,553.8,369.552Z" transform="translate(-355.356 -212.939)" fill="#2f2e41"/>
  <path id="Path_453" data-name="Path 453" d="M649.291,466.061c4.035-4.1-.434-12.6-.783-13.247l-46.083-94.1a1.2,1.2,0,1,0-2.155,1.055l46.106,94.148.013.024c.046.084,4.5,8.535.532,10.956-4.268,2.609-9.245-1.618-9.295-1.661a1.2,1.2,0,0,0-1.569,1.816c.257.222,6.369,5.406,12.115,1.892A5.815,5.815,0,0,0,649.291,466.061Z" transform="translate(-387.079 -208.43)" fill="#3f3d56"/>
  <path id="Path_454" data-name="Path 454" d="M463.358,256.619,497.5,241.061s57.847-21.865,107.332,31.508c0,0-22.178-14.237-38.988,4.569,0,0-31.632-8.558-58.177,22.886,0,0-41.519,6.287-58.811,28.321,0,0-19.878-3.057-27.3,22.627l-1.027-1.009S409.231,297.117,463.358,256.619Z" transform="translate(-289.956 -143.135)" fill="#6c63ff"/>
  <path id="Path_455" data-name="Path 455" d="M497.41,279.671s-16.719,56.274-14.68,71.77" transform="translate(-323.84 -166.284)" fill="#3f3d56"/>
  <path id="Path_456" data-name="Path 456" d="M552.922,262.3s21.07,47.586,26.371,51.664" transform="translate(-361.681 -156.939)" fill="#3f3d56"/>
  <path id="Path_457" data-name="Path 457" d="M587.919,246.145s54.235,32.623,68.508,36.293" transform="translate(-380.503 -148.254)" fill="#3f3d56"/>
  <path id="Path_458" data-name="Path 458" d="M407.47,706.176c-.1-.16-2.409-4.019-3.21-12.031-.735-7.351-.262-19.742,6.164-37.026,12.174-32.743-2.806-59.162-2.959-59.425l.739-.429a65.582,65.582,0,0,1,6.187,17.528,76.47,76.47,0,0,1-3.167,42.624c-12.153,32.687-3.118,48.161-3.025,48.314Z" transform="translate(-281.592 -337.084)" fill="#3f3d56"/>
  <circle id="Ellipse_56" data-name="Ellipse 56" cx="5.552" cy="5.552" r="5.552" transform="translate(115.566 247.583)" fill="#3f3d56"/>
  <circle id="Ellipse_57" data-name="Ellipse 57" cx="5.552" cy="5.552" r="5.552" transform="translate(133.075 268.082)" fill="#3f3d56"/>
  <circle id="Ellipse_58" data-name="Ellipse 58" cx="5.552" cy="5.552" r="5.552" transform="translate(121.117 281.748)" fill="#6c63ff"/>
  <circle id="Ellipse_59" data-name="Ellipse 59" cx="5.552" cy="5.552" r="5.552" transform="translate(135.638 293.279)" fill="#6c63ff"/>
  <circle id="Ellipse_60" data-name="Ellipse 60" cx="5.552" cy="5.552" r="5.552" transform="translate(116.847 311.216)" fill="#3f3d56"/>
  <path id="Path_459" data-name="Path 459" d="M417.729,805.514s-5.552-13.666,11.1-23.915Z" transform="translate(-288.498 -436.218)" fill="#3f3d56"/>
  <path id="Path_460" data-name="Path 460" d="M378.3,816.039s-2.527-14.533-22.083-14.408Z" transform="translate(-255.893 -446.991)" fill="#3f3d56"/>
  <path id="Path_461" data-name="Path 461" d="M149.37,0l19.542,10.692L131.048,35.768,112.936,23.82Z" transform="translate(-60.736)" fill="#3f3d56"/>
  <path id="Path_462" data-name="Path 462" d="M41.64,73.493,0,100.337,19.337,111.83,60.961,84.043Z" transform="translate(0 -39.524)" fill="#3f3d56"/>
  <path id="Path_463" data-name="Path 463" d="M235.4,78.4a16.412,16.412,0,0,0-8.834,11.187,4.85,4.85,0,0,0,1.591,4.852l12.038,10.166a5.58,5.58,0,0,0,6.31.609c4.894-2.714,12.754-8.411,9.245-15.627a4.988,4.988,0,0,0-1.738-1.974l-13.416-8.872A5.237,5.237,0,0,0,235.4,78.4Z" transform="translate(-186.094 -57.756)" fill="#d0cde1"/>
  <ellipse id="Ellipse_61" data-name="Ellipse 61" cx="19.801" cy="13.447" rx="19.801" ry="13.447" transform="matrix(0.597, -0.802, 0.802, 0.597, 52.369, 52.515)" fill="#3f3d56"/>
  <path id="Path_464" data-name="Path 464" d="M286.85,132.988c2.441,1.818,8.246-1.766,13.464-8.125q.693-.843,1.371-1.751.5-.667.956-1.334c4.838-6.991,6.751-13.849,4.252-15.709-2.517-1.875-8.609,1.993-13.949,8.722q-.447.566-.886,1.154a45.712,45.712,0,0,0-2.8,4.224C285.817,126.077,284.7,131.385,286.85,132.988Z" transform="translate(-217.999 -72.667)" opacity="0.2"/>
  <path id="Path_465" data-name="Path 465" d="M293.339,130.868l11.055,4.694,7.91,3.358,1.17-1.579-6.753-4.864-9.7-6.987q-.447.566-.886,1.154a45.707,45.707,0,0,0-2.8,4.224Z" transform="translate(-222.079 -83.366)" fill="#d0cde1"/>
  <circle id="Ellipse_62" data-name="Ellipse 62" cx="2.403" cy="2.403" r="2.403" transform="translate(89.966 53.441)" fill="#d0cde1"/>
  <path id="Path_466" data-name="Path 466" d="M340.1,182.308a1.147,1.147,0,0,1,.544-.277c12.943-2.674,21.087-10.126,24.9-22.782a1.151,1.151,0,1,1,2.205.664c-4.02,13.352-12.981,21.552-26.636,24.373a1.152,1.152,0,0,1-1.009-1.978Z" transform="translate(-247.024 -101.08)" fill="#6c63ff"/>
  <path id="Path_467" data-name="Path 467" d="M333.207,167.263a1.145,1.145,0,0,1,.544-.277c9.7-2.005,15.811-7.593,18.667-17.082a1.151,1.151,0,0,1,2.205.664c-3.08,10.229-9.945,16.511-20.407,18.673a1.152,1.152,0,0,1-1.009-1.978Z" transform="translate(-243.318 -96.055)" fill="#6c63ff"/>
  <path id="Path_468" data-name="Path 468" d="M350.28,198.175a1.144,1.144,0,0,1,.544-.277c12.916-2.669,27.041-15.593,30.843-28.222a1.151,1.151,0,0,1,2.205.664c-4.016,13.342-18.937,26.995-32.582,29.814a1.152,1.152,0,0,1-1.009-1.978Z" transform="translate(-252.5 -106.687)" fill="#6c63ff"/>
  <path id="Path_469" data-name="Path 469" d="M707.172,0,687.63,10.692l37.862,25.076L743.6,23.82Z" transform="translate(-369.804)" fill="#3f3d56"/>
  <path id="Path_470" data-name="Path 470" d="M809.1,73.493l41.639,26.844L831.4,111.83,789.779,84.043Z" transform="translate(-424.74 -39.524)" fill="#3f3d56"/>
  <path id="Path_471" data-name="Path 471" d="M929.471,78.4A16.412,16.412,0,0,1,938.3,89.589a4.85,4.85,0,0,1-1.591,4.852l-12.038,10.166a5.58,5.58,0,0,1-6.31.609c-4.894-2.714-12.754-8.411-9.245-15.627a4.988,4.988,0,0,1,1.738-1.974l13.416-8.872A5.237,5.237,0,0,1,929.471,78.4Z" transform="translate(-552.774 -57.756)" fill="#d0cde1"/>
  <ellipse id="Ellipse_63" data-name="Ellipse 63" cx="13.447" cy="19.801" rx="13.447" ry="19.801" transform="matrix(0.802, -0.597, 0.597, 0.802, 328.407, 36.812)" fill="#3f3d56"/>
  <path id="Path_472" data-name="Path 472" d="M887.274,132.988c-2.441,1.818-8.246-1.766-13.464-8.125q-.693-.843-1.371-1.751-.5-.667-.956-1.334c-4.838-6.991-6.751-13.849-4.252-15.709,2.517-1.875,8.609,1.993,13.949,8.722q.447.566.886,1.154a45.706,45.706,0,0,1,2.8,4.224C888.307,126.077,889.426,131.385,887.274,132.988Z" transform="translate(-530.125 -72.667)" opacity="0.2"/>
  <path id="Path_473" data-name="Path 473" d="M883.234,130.868l-11.055,4.694-7.91,3.358-1.17-1.579,6.753-4.864,9.7-6.987q.447.566.886,1.154a45.71,45.71,0,0,1,2.8,4.224Z" transform="translate(-528.493 -83.366)" fill="#d0cde1"/>
  <circle id="Ellipse_64" data-name="Ellipse 64" cx="2.403" cy="2.403" r="2.403" transform="translate(331.228 53.441)" fill="#d0cde1"/>
  <path id="Path_474" data-name="Path 474" d="M827.241,182.308a1.147,1.147,0,0,0-.544-.277c-12.943-2.674-21.087-10.126-24.9-22.782a1.151,1.151,0,1,0-2.205.664c4.02,13.352,12.981,21.552,26.636,24.373a1.152,1.152,0,0,0,1.01-1.978Z" transform="translate(-494.315 -101.08)" fill="#6c63ff"/>
  <path id="Path_475" data-name="Path 475" d="M841.381,167.263a1.145,1.145,0,0,0-.544-.277c-9.7-2.005-15.811-7.593-18.668-17.082a1.151,1.151,0,0,0-2.205.664c3.08,10.229,9.945,16.511,20.407,18.673a1.152,1.152,0,0,0,1.009-1.978Z" transform="translate(-505.27 -96.055)" fill="#6c63ff"/>
  <path id="Path_476" data-name="Path 476" d="M810.141,198.175a1.145,1.145,0,0,0-.544-.277c-12.916-2.669-27.041-15.593-30.843-28.222a1.151,1.151,0,1,0-2.205.664c4.016,13.342,18.937,26.995,32.582,29.814a1.152,1.152,0,0,0,1.009-1.978Z" transform="translate(-481.921 -106.687)" fill="#6c63ff"/>
</svg>
