<svg xmlns="http://www.w3.org/2000/svg" xmlns:xlink="http://www.w3.org/1999/xlink" width="426" height="394.949" viewBox="0 0 426 394.949"><defs><linearGradient id="a" x1="0.5" y1="1" x2="0.5" gradientUnits="objectBoundingBox"><stop offset="0" stop-color="gray" stop-opacity="0.251"/><stop offset="0.54" stop-color="gray" stop-opacity="0.122"/><stop offset="1" stop-color="gray" stop-opacity="0.102"/></linearGradient><linearGradient id="b" x1="0.507" y1="1.003" x2="0.507" y2="0" xlink:href="#a"/></defs><g transform="translate(0.003 -0.18)"><ellipse cx="102.911" cy="7.87" rx="102.911" ry="7.87" transform="translate(126.007 379.389)" fill="#6c63ff"/><ellipse cx="102.911" cy="7.87" rx="102.911" ry="7.87" transform="translate(126.007 379.389)" opacity="0.4"/><path d="M273.885,91.23c14.428-12.878,37.126-15.5,57.78-14.465,64.864,3.221,123.421,34.538,174.062,69.96,18.332,12.827,36.385,26.645,48.291,44.3,24.229,35.948,17.039,85.751-16.652,115.365-11.463,10.076-25.355,17.8-39.62,24.667-25.365,12.175-52.735,21.949-81.521,24.727-20.529,1.987-41.314.372-61.722-2.4-57.012-7.763-112.982-24.839-159.9-54.122-20.576-12.831-39.969-28.781-48.449-49.543s-3.053-47.062,17.955-59.349c8.689-5.082,19.082-7.377,29.251-9.532,14.972-3.174,30.186-6.3,43.7-12.747,13.962-6.665,30.475-19.547,27.715-34.287C261.812,117.991,259.457,104.094,273.885,91.23Z" transform="translate(-142.33 -52.751)" fill="#ff5f5f" opacity="0.177"/><path d="M600.536,59.658v.833a5.379,5.379,0,0,1-.033.717v.149c0,.2-.023.4-.042.6v.172a.623.623,0,0,1,0,.093,5.371,5.371,0,0,1-.047.545c-.019.182-.033.289-.047.437-.042.358-.088.717-.144,1.075-.033.237-.07.465-.107.707a.2.2,0,0,0,0,.051c-.023.116-.042.233-.065.354s-.023.135-.037.2a.51.51,0,0,1-.037.186,2.375,2.375,0,0,0-.074.372c-.028.121-.051.247-.079.372s-.037.182-.06.275-.07.312-.107.465a.06.06,0,0,0,0,.028l-.084.321-.1.391c-.042.158-.088.316-.13.465a.161.161,0,0,1-.037.126l-.14.465c-.149.493-.312.987-.465,1.475l-.168.465-.1.256A33.044,33.044,0,0,1,593.9,79.41c-.112.158-.233.312-.349.465a34.752,34.752,0,0,1-2.862,3.258L543.1,130.725,495.517,83.133a33.7,33.7,0,0,1-3.723-4.431,32.585,32.585,0,0,1-1.936-3.09,33.672,33.672,0,0,1-4.068-19.133c.051-.61.121-1.219.2-1.824.149-1.07.354-2.136.605-3.193.051-.214.107-.428.163-.638.028-.107.056-.219.084-.321s.033-.13.051-.2l.14-.465h0c.112-.368.223-.735.344-1.1l.172-.5c.251-.712.521-1.4.819-2.113l.181-.414c.093-.209.186-.419.284-.628.158-.335.321-.67.465-1l.042-.074h0c.074-.154.154-.3.233-.465l.275-.507c.116-.209.237-.419.358-.628.056-.1.116-.2.172-.3s.07-.107.1-.168a.2.2,0,0,0,0-.033h0c.074-.121.149-.242.228-.363s.172-.275.261-.41c.2-.3.4-.605.6-.9l.219-.312.275-.377c.093-.135.191-.265.293-.4l.354-.465c.112-.135.219-.275.326-.41l.116-.14.237-.289c.121-.149.247-.293.372-.437l.163-.191.028-.033.284-.316.316-.349c.3-.321.605-.642.931-.931l.368-.363.572-.54c.126-.116.251-.233.382-.344s.3-.27.465-.4l.3-.251c.1-.088.2-.172.3-.251a7.535,7.535,0,0,1,.605-.465l.307-.242c.512-.391,1.029-.768,1.559-1.131l.316-.214.321-.209.3-.2.465-.279.223-.135.326-.191c.437-.256.875-.5,1.317-.735l.265-.14.41-.209.34-.168.34-.158.34-.163.344-.154L506,28.5c.465-.2.931-.386,1.4-.563l.3-.186.372-.135.33-.116.279-.093.642-.2.33-.1.265-.074.261-.074q.233-.07.465-.126l.614-.158c.633-.154,1.271-.293,1.908-.41l.261-.047.363-.061.372-.061.465-.07.275-.037c.614-.079,1.229-.144,1.862-.191h4.324a2.684,2.684,0,0,1,.465.028h.316c.493.037.987.088,1.475.144l.661.088.465.065.368.061.368.061.242.042q.954.177,1.9.4l.773.2.214.061.331.093c.214.061.428.121.638.191l.279.088q.7.214,1.4.465l.316.116.414.158.624.251c.242.1.465.2.712.312l.279.121.382.182.34.158.335.168.424.214.335.177c.261.14.521.279.777.428l.326.186c.382.219.754.465,1.126.684l.3.2.321.209.316.214h0l.209.144c.465.312.889.638,1.326.973l.307.242c.2.158.4.321.605.465.1.079.2.163.3.251l.3.251.465.4c.13.112.256.228.382.344l.535.568.368.363.372-.363.568-.54c.126-.116.251-.233.382-.344s.3-.27.465-.4l.3-.251c.1-.088.2-.172.3-.251a7.524,7.524,0,0,1,.605-.465l.307-.242c.512-.391,1.029-.768,1.559-1.131l.317-.214.321-.209.3-.2.442-.279.223-.135.326-.191c.438-.256.875-.5,1.317-.735l.265-.14.41-.209.34-.168.34-.158.34-.163.344-.154.344-.149c.465-.2.931-.386,1.4-.563.112-.042.228-.088.344-.126l.368-.135.335-.116.275-.093.642-.2.331-.1.265-.074.261-.074c.154-.047.307-.088.465-.126l.61-.158c.633-.154,1.271-.293,1.908-.41l.261-.047.363-.061.372-.061.465-.07.275-.037c.614-.079,1.229-.144,1.862-.191h4.282a2.682,2.682,0,0,1,.465.028h.317c.493.037.987.088,1.475.144l.661.088.465.065.368.061.368.061.242.042q.954.177,1.9.4l.773.2.214.061.33.093c.214.061.428.121.642.191l.275.088c.465.144.931.3,1.4.465l.312.116.414.158.624.251c.242.1.465.2.712.312l.279.121.382.182.34.158.335.168.423.214.34.177c.256.14.517.279.773.428l.326.186c.382.219.759.465,1.126.684l.3.2.321.209.316.214h.023l.209.144c.465.312.889.638,1.326.973l.307.242c.2.158.4.321.605.465.1.079.2.163.3.251l.3.251.386.344c.13.116.261.233.386.354l.219.2h0a.215.215,0,0,1,.033.033c.126.112.247.233.372.349l.167.163c.065.07.13.135.2.2l.368.377c.186.191.372.386.554.586.107.112.214.228.316.344.177.2.349.391.521.591l.549.656c.628.773,1.215,1.564,1.769,2.374l.223.34c.084.121.158.242.237.363l.2.312c.112.182.223.358.33.54l.293.5c.06.1.121.2.177.307l.135.242.135.242.2.368.191.368q.656,1.285,1.191,2.62l.154.377c.144.368.279.731.41,1.1l.116.335c.051.158.107.316.154.465s.093.284.135.428l.084.27c.042.13.079.261.116.391s.088.321.135.465c.07.261.135.521.2.787l.1.41c.047.2.088.391.13.586a1.205,1.205,0,0,0,.051.251c.019.084.047.223.065.335s.037.177.051.265l.042.223a.418.418,0,0,0,.037.209c.037.07,0,.135.033.2l.07.419a2.592,2.592,0,0,0,.061.419c.023.14.042.312.06.465s.037.3.051.465l.028.256c0,.154.033.307.047.465v.228c0,.158.028.316.037.465a.07.07,0,0,1,0,.033v.6a3.638,3.638,0,0,0,.023.5h0v.517A5.948,5.948,0,0,1,600.536,59.658Z" transform="translate(-325.877 -25.61)" fill="#ff6584"/><path d="M601.6,59.658v.833a5.379,5.379,0,0,1-.033.717v.149c0,.2-.023.4-.042.6v.172a.623.623,0,0,1,0,.093,5.371,5.371,0,0,1-.047.545c-.019.182-.033.289-.047.437-.042.358-.088.717-.144,1.075-.033.237-.07.465-.107.707a.2.2,0,0,0,0,.051c-.023.116-.042.233-.065.354s-.023.135-.037.2a.51.51,0,0,1-.037.186,2.375,2.375,0,0,0-.074.372c-.028.121-.051.247-.079.372s-.037.182-.06.275-.07.312-.107.465a.06.06,0,0,0,0,.028l-.084.321-.1.391c-.042.158-.088.316-.13.465a.161.161,0,0,1-.037.126l-.14.465c-.149.493-.312.987-.465,1.475l-.168.465-.1.256a33.672,33.672,0,0,0-14.679-36.3q-.908-.577-1.834-1.089a33.64,33.64,0,0,0-40.072,5.752,33.73,33.73,0,0,0-4.11-3.491h0a33.144,33.144,0,0,0-3.481-2.206,33.719,33.719,0,0,0-32.4,0,33.265,33.265,0,0,0-4.78,3.193,34.378,34.378,0,0,0-8.377,9.806.166.166,0,0,1,0,.042,31.961,31.961,0,0,0-1.438,2.881c-.242.54-.465,1.089-.675,1.638.051-.214.107-.428.163-.638.028-.107.056-.219.084-.321s.033-.13.051-.2l.14-.465h0c.112-.368.223-.735.344-1.1l.172-.5c.251-.712.521-1.4.819-2.113l.182-.414c.093-.209.186-.419.284-.628.158-.335.321-.67.465-1l.042-.074h0c.074-.154.154-.3.233-.465l.275-.507c.116-.209.237-.419.358-.628.056-.1.116-.2.172-.3s.07-.107.1-.168a.2.2,0,0,0,0-.033h0c.074-.121.149-.242.228-.363s.172-.275.261-.41c.2-.3.4-.605.6-.9l.219-.312.275-.377c.093-.135.191-.265.293-.4l.354-.465c.112-.135.219-.275.326-.41l.116-.14.237-.289c.121-.149.247-.293.372-.437l.163-.191.028-.033.284-.316.316-.349c.3-.321.605-.642.931-.931l.368-.363.572-.54c.126-.116.251-.233.382-.344s.3-.27.465-.4l.3-.251c.1-.088.2-.172.3-.251a7.529,7.529,0,0,1,.605-.465l.307-.242c.512-.391,1.029-.768,1.559-1.131l.316-.214.321-.209.3-.2.465-.279.223-.135.326-.191c.438-.256.875-.5,1.317-.735l.265-.14.41-.209.34-.168.34-.158.34-.163.344-.154.344-.149c.465-.2.931-.386,1.4-.563l.312-.2.372-.135.33-.116.279-.093.642-.2.33-.1.265-.074.261-.074q.233-.07.465-.126l.614-.158c.633-.154,1.271-.293,1.908-.41l.261-.047.363-.061.372-.061.465-.07.275-.037c.614-.079,1.229-.144,1.862-.191h4.324a2.684,2.684,0,0,1,.465.028h.316c.493.037.987.088,1.475.144l.661.088.465.065.368.061.368.061.242.042q.954.177,1.9.4l.773.2.214.061.331.093c.214.061.428.121.638.191l.279.088q.7.214,1.4.465l.316.116.414.158.624.251c.242.1.465.2.712.312l.279.121.382.182.34.158.335.168.424.214.335.177c.261.14.521.279.777.428l.326.186c.382.219.754.465,1.126.684l.3.2.321.209.316.214h0l.209.144c.465.312.889.638,1.326.973l.307.242c.2.158.4.321.605.465.1.079.2.163.3.251l.3.251.465.4c.13.112.256.228.382.344l.535.568.368.363.372-.363.568-.54c.126-.116.251-.233.382-.344s.3-.27.465-.4l.3-.251c.1-.088.2-.172.3-.251a7.524,7.524,0,0,1,.605-.465l.307-.242c.512-.391,1.029-.768,1.559-1.131l.317-.214.321-.209.3-.2.442-.279.223-.135.326-.191c.438-.256.875-.5,1.317-.735l.265-.14.41-.209.34-.168.34-.158.34-.163.344-.154.344-.149c.465-.2.931-.386,1.4-.563.112-.042.228-.088.344-.126l.368-.135.335-.116.275-.093.642-.2.331-.1.265-.074.261-.074c.154-.047.307-.088.465-.126l.61-.158c.633-.154,1.271-.293,1.908-.41l.261-.047.363-.061.372-.061.465-.07.275-.037c.614-.079,1.229-.144,1.862-.191h4.282a2.682,2.682,0,0,1,.465.028h.317c.493.037.987.088,1.475.144l.661.088.465.065.368.061.368.061.242.042q.954.177,1.9.4l.773.2.214.061.33.093c.214.061.428.121.642.191l.275.088c.465.144.931.3,1.4.465l.312.116.414.158.624.251c.242.1.465.2.712.312l.279.121.382.182.34.158.335.168.423.214.34.177c.256.14.517.279.773.428l.326.186c.382.219.759.465,1.126.684l.3.2.321.209.316.214h.023l.209.144c.465.312.889.638,1.326.973l.307.242c.2.158.4.321.605.465.1.079.2.163.3.251l.3.251.386.344c.13.116.261.233.386.354l.219.2h0a.215.215,0,0,1,.033.033c.126.112.247.233.372.349l.167.163c.065.07.13.135.2.2l.368.377c.186.191.372.386.554.586.107.112.214.228.316.344.177.2.349.391.521.591l.549.656c.628.773,1.215,1.564,1.769,2.374l.223.34c.084.121.158.242.237.363l.2.312c.112.182.223.358.33.54l.293.5c.06.1.121.2.177.307l.135.242.135.242.2.368.191.368q.656,1.285,1.191,2.62l.154.377c.144.368.279.731.41,1.1l.116.335c.051.158.107.316.154.465s.093.284.135.428l.084.27c.042.13.079.261.116.391s.088.321.135.465c.07.261.135.521.2.787l.1.41c.047.2.088.391.13.586a1.205,1.205,0,0,0,.051.251c.019.084.047.223.065.335s.037.177.051.265l.042.223a.418.418,0,0,0,.037.209c.037.07,0,.135.033.2l.07.419a2.592,2.592,0,0,0,.061.419c.023.14.042.312.06.465s.037.3.051.465l.028.256c0,.154.033.307.047.465v.228c0,.158.028.316.037.465a.07.07,0,0,1,0,.033v.6a3.638,3.638,0,0,0,.023.5h0v.517A5.948,5.948,0,0,1,601.6,59.658Z" transform="translate(-326.937 -25.61)" opacity="0.1"/><path d="M859.535,309.66v.74a.06.06,0,0,1,0,.028v.3l-.042.33a1.694,1.694,0,0,1-.033.214h0v.172a.231.231,0,0,1,0,.056v.116a.928.928,0,0,1-.023.112v.084a.264.264,0,0,1-.033.144h0l-.028.1-.028.116-.042.144v.042a.969.969,0,0,1-.047.144c-.042.154-.093.3-.144.465a.533.533,0,0,1-.051.144.561.561,0,0,1-.033.079,10.03,10.03,0,0,1-1.359,2.481l-.107.144a10.237,10.237,0,0,1-.875.991l-14.684,14.539-14.525-14.525a10.365,10.365,0,0,1-1.14-1.35,10.641,10.641,0,0,1-.591-.931,10.313,10.313,0,0,1-1.243-5.841,3.8,3.8,0,0,1,.065-.559c.047-.326.107-.652.186-.973a.749.749,0,0,1,.047-.2l.028-.1v-.06l.042-.144h0c.033-.112.07-.223.107-.335s.033-.1.051-.154q.112-.33.251-.642l.056-.13.084-.191c.051-.1.1-.2.154-.3v-.023h0l.074-.135.084-.154c.033-.065.07-.13.107-.2l.056-.088.028-.051h0c0-.037.042-.074.065-.112s.056-.084.079-.126.121-.186.186-.275l.065-.1.084-.116.089-.116.112-.144.1-.126.037-.042.07-.088.116-.135.047-.056h0l.088-.1c.028-.037.065-.07.1-.107s.182-.2.279-.293l.112-.107.172-.168.116-.107.14-.121.088-.074.093-.079.182-.149.1-.074c.154-.116.312-.233.465-.344l.1-.065.093-.065.093-.056.14-.088.065-.037.1-.061c.13-.079.265-.154.4-.223l.079-.042.126-.065.1-.051.107-.051.1-.047.1-.047.107-.047.424-.172.107-.037.112-.042.1-.037.084-.028.2-.061.1-.033.079-.023.079-.023.144-.037.186-.047c.191-.051.386-.093.582-.126h.531c.186-.023.372-.047.563-.061h1.559l.465.047.2.028h.433c.2.033.386.074.582.121l.233.061h.065l.1.028.2.06.084.023c.144.047.284.093.423.149l.1.033.126.051.191.074.214.093.088.042.116.051.1.051.1.051.13.065.1.056.237.126.1.06c.116.065.233.135.344.209l.093.056.1.065.1.065h0l.065.047.4.293a.73.73,0,0,0,.093.074l.186.149.088.079.093.074.135.121.116.107.172.168a1.271,1.271,0,0,1,.116.107.816.816,0,0,1,.112-.107l.172-.168.116-.107.135-.121.093-.074.088-.079.186-.149a.729.729,0,0,0,.093-.074l.465-.344.1-.065.1-.065.093-.056.135-.088.07-.037.1-.061q.2-.121.4-.223l.079-.042.126-.065.1-.051.1-.051.107-.047.1-.047.107-.047.424-.172.107-.037.112-.042.1-.037.084-.028.2-.061.1-.033.079-.023.079-.023.14-.037.186-.047q.293-.074.586-.126h.526c.191-.023.377-.047.563-.061H850l.465.047a.486.486,0,0,1,.2.028h.437c.191.033.386.074.577.121l.237.061h.065l.1.028.2.061.084.023c.14.047.284.093.424.149l.093.033.126.051.191.074.219.093.084.042.116.051.107.051.1.051.126.065.107.056.233.126.1.06c.116.065.228.135.344.209l.093.056.093.065.1.065h0l.061.047q.209.14.4.293l.1.074.182.149.093.079.088.074.121.107.116.107.065.06h0l.112.107.051.047.061.06.112.116.172.177c.033.037.065.07.093.107l.163.182.168.2a7.72,7.72,0,0,1,.54.726l.07.1.07.112.061.093.1.168.088.149.056.1.042.074.037.074a.8.8,0,0,1,.06.107l.056.116c.135.261.256.526.368.8,0,.042.033.079.047.116l.126.335a.139.139,0,0,0,.033.107c.033.037.033.093.051.144a1.075,1.075,0,0,1,.037.13l.028.079a.583.583,0,0,0,.033.121l.042.149c.023.079.042.158.06.237a1.234,1.234,0,0,1,.033.126,1.26,1.26,0,0,0,.037.181.171.171,0,0,1,0,.074v1.35h0v.088a.593.593,0,0,0,0,.093v.154h0v.158C859.255,309.395,859.539,309.557,859.535,309.66Z" transform="translate(-507 -171.896)" fill="#ff6584"/><path d="M860.058,309.617v.74a.06.06,0,0,1,0,.028v.3l-.042.33a1.694,1.694,0,0,1-.033.214h0v.172a.231.231,0,0,1,0,.056v.116a.928.928,0,0,1-.023.112v.084a.264.264,0,0,1-.033.144h0l-.028.1-.028.116-.042.144v.042a.969.969,0,0,1-.047.144c-.042.154-.093.3-.144.465a.533.533,0,0,1-.051.144.561.561,0,0,1-.033.079,9.992,9.992,0,0,0,.284-2.49,10.3,10.3,0,0,0-4.761-8.587c-.186-.121-.372-.228-.563-.335a10.3,10.3,0,0,0-9.885,0,10.712,10.712,0,0,0-.977.61,10.232,10.232,0,0,0-1.34,1.136,10.41,10.41,0,0,0-1.257-1.07h0a10.691,10.691,0,0,0-1.061-.675,10.239,10.239,0,0,0-11.351.977,10.981,10.981,0,0,0-.856.768,10.122,10.122,0,0,0-1.126,1.336c-.2.289-.4.586-.568.889h0a9.659,9.659,0,0,0-.437.88c-.074.168-.144.335-.2.5a.749.749,0,0,1,.047-.2l.028-.1v-.061l.042-.144h0c.033-.112.07-.223.107-.335s.033-.1.051-.154q.112-.33.251-.642l.056-.13.084-.191c.051-.1.1-.2.154-.3v-.023h0l.074-.135.084-.154c.033-.065.07-.13.107-.2l.056-.088.028-.051h0c0-.037.042-.074.065-.112s.056-.084.079-.126.121-.186.186-.275l.065-.1.084-.116.088-.116.112-.144.1-.126.037-.042.07-.088.116-.135.047-.056h0l.088-.1c.028-.037.065-.07.1-.107s.182-.2.279-.293l.112-.107.172-.168.116-.107.14-.121.088-.074.093-.079.182-.149.1-.074c.154-.116.312-.233.465-.344l.1-.065.093-.065.093-.056.14-.088.065-.037.1-.061c.13-.079.265-.154.4-.223l.079-.042.126-.065.1-.051.107-.051.1-.047.1-.047.107-.047.424-.172.107-.037.112-.042.1-.037.084-.028.2-.06.1-.033.079-.023.079-.023.144-.037.186-.047c.191-.051.386-.093.582-.126h.531c.186-.023.372-.047.563-.061h1.559l.465.047.2.028h.433c.2.033.386.074.582.121l.233.06h.065l.1.028.2.06.084.023c.144.047.284.093.424.149l.1.033.126.051.191.074.214.093.088.042.116.051.1.051.1.051.13.065.1.056.237.126.1.061c.116.065.233.135.344.209l.093.056.1.065.1.065h0l.065.047.4.293a.723.723,0,0,0,.093.074l.186.149.088.079.093.074.135.121.116.107.172.168a1.276,1.276,0,0,1,.116.107.812.812,0,0,1,.112-.107l.172-.168.116-.107.135-.121.093-.074.089-.079.186-.149a.727.727,0,0,0,.093-.074l.465-.344.1-.065.1-.065.093-.056.135-.088.07-.037.1-.061q.2-.121.4-.223l.079-.042.126-.065.1-.051.1-.051.107-.047.1-.047.107-.047.424-.172.107-.037.112-.042.1-.037.084-.028.2-.06.1-.033.079-.023.079-.023.14-.037.186-.047q.293-.074.586-.126h.526c.191-.023.377-.047.563-.061h1.559l.465.047a.487.487,0,0,1,.2.028h.438c.191.033.386.074.577.121l.237.06h.065l.1.028.2.06.084.023c.14.047.284.093.423.149l.093.033.126.051.191.074.219.093.084.042.116.051.107.051.1.051.126.065.107.056.233.126.1.061c.116.065.228.135.344.209l.093.056.093.065.1.065h0l.06.047q.209.14.4.293l.1.074.182.149.093.079.089.074.121.107.116.107.065.061h0l.112.107.051.047.061.061.112.116.172.177c.033.037.065.07.093.107l.163.182.168.2a7.735,7.735,0,0,1,.54.726l.07.1.07.112.06.093.1.168.088.149.056.1.042.074.037.074a.791.791,0,0,1,.061.107l.056.116c.135.261.256.526.368.8,0,.042.033.079.047.116l.126.335a.139.139,0,0,0,.033.107c.033.037.033.093.051.144a1.073,1.073,0,0,1,.037.13l.028.079a.578.578,0,0,0,.033.121l.042.149c.023.079.042.158.06.237a1.241,1.241,0,0,1,.033.126,1.253,1.253,0,0,0,.037.182.172.172,0,0,1,0,.074v1.35h0v.088a.592.592,0,0,0,0,.093v.154h0v.158C859.946,309.315,860.062,309.515,860.058,309.617Z" transform="translate(-507.523 -171.853)" opacity="0.1"/><path d="M715.076,268.191v.949a1.254,1.254,0,0,1,0,.13.886.886,0,0,1-.042.33c-.042.107,0,.144-.033.214h0a.858.858,0,0,1,0,.107.358.358,0,0,1,0,.065v.168l-.028.112a.533.533,0,0,1,0,.084,1.325,1.325,0,0,1-.033.144h0a.768.768,0,0,0,0,.1,1.155,1.155,0,0,0-.033.121l-.042.144a.11.11,0,0,1,0,.037l-.042.149c-.047.149-.093.3-.149.465a.423.423,0,0,1-.051.14l-.028.079a10.241,10.241,0,0,1-1.364,2.485l-.107.14a10.234,10.234,0,0,1-.87,1L697.731,289.87l-14.525-14.521a10.3,10.3,0,0,1-1.136-1.354,10.034,10.034,0,0,1-.6-.931,10.238,10.238,0,0,1-1.238-5.836,4.435,4.435,0,0,1,.06-.559c.047-.33.107-.652.186-.977a.683.683,0,0,1,.051-.191.661.661,0,0,1,.023-.1.255.255,0,0,1,0-.056l.042-.149h0c.033-.112.065-.223.1-.335l.056-.154c.074-.219.158-.433.247-.647l.056-.126c.028-.065.056-.13.088-.191s.1-.2.149-.307v-.023h0l.07-.14.084-.154.112-.191a.92.92,0,0,1,.051-.093l.033-.051h0l.07-.112c.023-.042.051-.084.079-.126l.182-.275.07-.093.084-.116.088-.121.107-.144a1.282,1.282,0,0,1,.1-.121.4.4,0,0,1,.033-.047l.074-.084.112-.135.051-.06h0l.084-.1.1-.107.279-.289.112-.112.177-.163a1.278,1.278,0,0,1,.116-.107l.135-.121.093-.079.088-.074.186-.149.093-.074c.154-.121.316-.237.465-.344l.1-.065.1-.065.093-.06.135-.084.065-.042.1-.06c.13-.074.265-.154.4-.223l.084-.042-.009-.107.1-.051.1-.047.1-.051.107-.047.1-.047.428-.172.1-.037.112-.042.1-.033.088-.028.2-.065.1-.028.084-.023.079-.023.14-.042.186-.047.582-.126h.531c.186-.023.377-.042.563-.056h1.559a4.21,4.21,0,0,1,.465.042l.2.028h.433c.2.037.391.079.582.126l.237.06h.065a.773.773,0,0,1,.1.028l.2.056.088.028.419.144.1.037.126.047.191.079.219.093.084.037.116.056.1.047.1.051.13.065.1.056.237.13.1.056.34.209.093.061.1.065.1.065h0l.065.042c.14.1.275.2.4.3a.726.726,0,0,1,.093.074c.065.047.126.1.186.149l.093.074.088.079.135.121a1.262,1.262,0,0,1,.116.107l.177.163.112.112.112-.112.172-.163.116-.107.14-.121.089-.079.093-.074c.061-.051.121-.1.186-.149a.731.731,0,0,1,.093-.074c.154-.121.312-.237.465-.344l.1-.065.1-.065.088-.061.14-.084.065-.042.1-.061c.13-.074.265-.154.4-.223l.079-.042.126-.065.107-.051.1-.047.1-.051.107-.047.1-.047.423-.172.107-.037.112-.042.1-.033.084-.028.2-.065.1-.028.079-.023.079-.023.144-.042.186-.047c.2-.047.386-.088.582-.126h.531c.186-.023.372-.042.563-.056h1.559l.465.042.2.028h.433c.2.037.386.079.582.126l.237.061h.061a.658.658,0,0,1,.1.028l.2.056.084.028.423.144.1.037.126.047.191.079.219.093.084.037.116.056.1.047.1.051.13.065.1.056.237.13.1.056.344.209.093.061.1.065.1.065h0l.065.042.4.3.093.074.186.149.088.074.093.079.116.1.121.107.065.065h0l.116.107.051.051.061.061.112.112.167.181.1.107c.056.056.107.116.158.177l.168.2a8.392,8.392,0,0,1,.54.726l.07.1.07.112a1.1,1.1,0,0,1,.06.1c.037.051.07.107.1.163s.06.1.088.154l.056.093.042.074.042.074.056.112c0,.037.042.074.06.112.135.261.256.531.363.8a.866.866,0,0,1,.047.116q.07.168.126.335a.3.3,0,0,0,.037.1l.047.144.042.13a.116.116,0,0,0,.023.084c.023.028,0,.079.037.116l.042.149a1.151,1.151,0,0,0,.061.242l.028.126.042.177v.079a.683.683,0,0,1,0,.1.475.475,0,0,1,0,.079.361.361,0,0,1,0,.07v.126a1.166,1.166,0,0,1,0,.126,1.288,1.288,0,0,1,0,.13.3.3,0,0,0,.023.14v.572h0v.34h0v.154C715.076,267.977,715.076,268.079,715.076,268.191Z" transform="translate(-429.872 -149.7)" fill="#ff6584"/><path d="M715.19,268.191v.949a1.254,1.254,0,0,1,0,.13.885.885,0,0,1-.042.33c-.042.107,0,.144-.033.214h0a.87.87,0,0,1,0,.107.363.363,0,0,1,0,.065v.168l-.028.112a.533.533,0,0,1,0,.084,1.311,1.311,0,0,1-.033.144h0a.725.725,0,0,0,0,.1,1.155,1.155,0,0,0-.033.121l-.042.144a.11.11,0,0,1,0,.037l-.042.149c-.047.149-.093.3-.149.465a.426.426,0,0,1-.051.14l-.028.079a10.283,10.283,0,0,0-4.482-11.077c-.181-.116-.368-.228-.558-.33a10.281,10.281,0,0,0-9.89,0,9.194,9.194,0,0,0-.973.61,9.892,9.892,0,0,0-1.345,1.131,10.475,10.475,0,0,0-1.257-1.07h0a10.148,10.148,0,0,0-1.061-.67,10.285,10.285,0,0,0-12.208,1.741,10.136,10.136,0,0,0-1.322,1.336c-.2.289-.391.586-.563.889h0c-.158.289-.307.582-.437.88-.074.163-.14.33-.2.5a.682.682,0,0,1,.051-.191.66.66,0,0,1,.023-.1.259.259,0,0,1,0-.056l.042-.149h0c.033-.112.065-.223.1-.335l.056-.154c.074-.219.158-.433.247-.647l.056-.126c.028-.065.056-.13.088-.191s.1-.2.149-.307v-.023h0l.07-.14.084-.154.112-.191a.931.931,0,0,1,.051-.093l.033-.051h0l.07-.112c.023-.042.051-.084.079-.126l.182-.275.07-.093.084-.116.088-.121.107-.144a1.277,1.277,0,0,1,.1-.121.4.4,0,0,1,.033-.047l.074-.084.112-.135.051-.06h0l.084-.1.1-.107.279-.289.112-.112.177-.163a1.266,1.266,0,0,1,.116-.107l.135-.121.093-.079.088-.074.186-.149.093-.074c.154-.121.317-.237.465-.344l.1-.065.1-.065.093-.06.135-.084.065-.042.1-.06c.13-.074.265-.154.4-.223l.084-.042.177-.079.1-.051.1-.047.1-.051.107-.047.1-.047.428-.172.1-.037.112-.042.1-.033.089-.028.2-.065.1-.028.084-.023.079-.023.14-.042.186-.047.582-.126h.531c.186-.023.377-.042.563-.056h1.559a4.211,4.211,0,0,1,.465.042l.2.028h.433c.2.037.391.079.582.126l.237.06h.065a.777.777,0,0,1,.1.028l.2.056.088.028.419.144.1.037.126.047.191.079.219.093.084.037.116.056.1.047.1.051.13.065.1.056.237.13.1.056.34.209.093.061.1.065.1.065h0l.065.042c.14.1.275.2.4.3a.731.731,0,0,1,.093.074c.065.047.126.1.186.149l.093.074.088.079.135.121a1.271,1.271,0,0,1,.116.107l.177.163.112.112.112-.112.172-.163.116-.107.14-.121.088-.079.093-.074c.06-.051.121-.1.186-.149a.723.723,0,0,1,.093-.074c.154-.121.312-.237.465-.344l.1-.065.1-.065.088-.061.14-.084.065-.042.1-.061c.13-.074.265-.154.4-.223l.079-.042.126-.065.107-.051.1-.047.1-.051.107-.047.1-.047.424-.172.107-.037.112-.042.1-.033.084-.028.2-.065.1-.028.079-.023.079-.023.144-.042.186-.047c.2-.047.386-.088.582-.126h.531c.186-.023.372-.042.563-.056H705.7l.465.042.2.028h.433c.2.037.386.079.582.126l.237.061h.06a.657.657,0,0,1,.1.028l.2.056.084.028.424.144.1.037.126.047.191.079.219.093.084.037.116.056.1.047.1.051.13.065.1.056.237.13.1.056.344.209.093.061.1.065.1.065h0l.065.042.4.3.093.074.186.149.088.074.093.079.116.1.121.107.065.065h0l.116.107.051.051.06.061.112.112.168.181.1.107c.056.056.107.116.158.177l.168.2a8.392,8.392,0,0,1,.54.726l.07.1.07.112a1.117,1.117,0,0,1,.061.1,1.914,1.914,0,0,1,.1.163c.033.056.061.1.089.154l.056.093.042.074.042.074.056.112c0,.037.042.074.061.112.135.261.256.531.363.8a.858.858,0,0,1,.047.116q.07.168.126.335a.3.3,0,0,0,.037.1l.047.144.042.13a.116.116,0,0,0,.023.084c.023.028,0,.079.037.116l.042.149a1.151,1.151,0,0,0,.06.242l.028.126.042.177v.079a.667.667,0,0,1,0,.1.463.463,0,0,1,0,.079.361.361,0,0,1,0,.07v.126a1.166,1.166,0,0,1,0,.126,1.237,1.237,0,0,1,0,.13.3.3,0,0,0,.023.14v.572h0v.34h0v.154C715.19,267.977,715.19,268.079,715.19,268.191Z" transform="translate(-429.985 -149.7)" opacity="0.1"/><path d="M420,290.159a.594.594,0,0,1,0,.088v.842a1.345,1.345,0,0,1,0,.135,2.006,2.006,0,0,1-.042.33c-.019.112,0,.144-.033.214h0a.729.729,0,0,1,0,.107v.237l-.028.112a.549.549,0,0,1,0,.084.235.235,0,0,1-.033.144h0a.74.74,0,0,0-.023.1,1.074,1.074,0,0,0-.033.116l-.042.144a.136.136,0,0,1,0,.042l-.042.144c-.047.154-.093.3-.149.465a1.307,1.307,0,0,1-.051.144l-.028.079a10.2,10.2,0,0,1-1.364,2.481l-.107.144a10.205,10.205,0,0,1-.87.991l-14.525,14.525L388.106,297.3a10.364,10.364,0,0,1-1.14-1.35c-.214-.307-.41-.624-.591-.931a10.271,10.271,0,0,1-1.238-5.841,4.548,4.548,0,0,1,.061-.558c.047-.326.107-.652.186-.973a1,1,0,0,1,.047-.2l.028-.1a.3.3,0,0,1,0-.06.549.549,0,0,1,.037-.144h0c.033-.112.065-.223.1-.335s.037-.1.051-.154q.116-.33.251-.642l.056-.13c.028-.061.056-.126.088-.191s.1-.2.149-.3v-.023h0l.07-.135.084-.154.112-.2.051-.088.033-.051h0l.07-.112c.023-.042.051-.084.079-.126l.182-.275.07-.1.084-.116c.028-.037.056-.079.088-.116a1.656,1.656,0,0,1,.107-.144l.1-.126.033-.042.07-.088.116-.135.051-.056h0l.084-.1.1-.107.279-.293.112-.107.177-.168.116-.107.135-.121.093-.074.088-.079.186-.149.093-.074c.154-.116.312-.233.465-.344l.1-.065.1-.065.093-.056a1.34,1.34,0,0,1,.135-.088l.065-.037.1-.06c.13-.079.265-.154.4-.223l.084-.047.042-.065.1-.051.1-.051.1-.047.107-.047.1-.047.428-.172.1-.037.112-.042.1-.037.088-.028.2-.061.1-.033.084-.023h.079l.14-.037.186-.047c.2-.051.386-.093.582-.126h.307l.14-.023h.084c.186,0,.377-.047.563-.061h1.545l.465.047.2.023.135.023h.3c.2.033.391.074.582.121l.237.061h.065l.1.028.2.06.084.023c.144.047.284.093.424.149l.1.033.126.051.191.074.219.093.084.042.116.051.1.051.1.051.13.065.1.056.237.126.1.06c.116.065.233.135.344.209l.093.056.1.065.1.065h0a.331.331,0,0,1,.065.047q.2.14.4.293l.093.074.186.149.088.079.093.074.135.121.116.107.177.168.112.107.112-.107.172-.168.116-.107.14-.121.088-.074.093-.079.186-.149.093-.074c.154-.116.312-.233.465-.344l.1-.065.1-.065.088-.056.14-.088.065-.037.1-.061c.13-.079.265-.154.4-.223a.463.463,0,0,0,.079-.047l.126-.061.1-.051.107-.051.1-.047.107-.047.1-.047.424-.172.107-.037.112-.042.1-.037.084-.028.2-.061.1-.033.079-.023h.079l.144-.037.186-.047c.191-.051.386-.093.582-.126h.3l.144-.023h.084c.186,0,.372-.047.563-.061h1.559l.465.047.2.023.135.023h.3c.2.033.386.074.582.121l.233.06h.065l.1.028.2.06.084.023c.144.047.284.093.424.149l.1.033.126.051.191.074.214.093.088.042.116.051.1.051.1.051.13.065.1.056.237.126.1.06c.116.065.233.135.344.209l.093.056.1.065.1.065h0l.065.047.4.293.093.074.186.149.088.079.093.074.116.107a1.27,1.27,0,0,1,.116.107l.07.06h0l.116.107.047.047.065.061.112.116.168.177.1.107.158.182.168.2a7.732,7.732,0,0,1,.54.726l.07.1.07.112a.637.637,0,0,1,.06.093c.037.056.07.112.1.168l.088.149.056.1.042.074.042.074.056.107c.023.037.042.079.06.116a8.733,8.733,0,0,1,.363.8l.047.116q.07.168.126.335l.037.107a.647.647,0,0,0,.047.144l.042.13a.1.1,0,0,0,.023.079l.037.121a1.4,1.4,0,0,1,.037.149c.023.079.042.158.065.237l.028.126.042.182v.074a.8.8,0,0,1,0,.1.533.533,0,0,1,0,.084.274.274,0,0,1,0,.065v.256a1.166,1.166,0,0,1,0,.126v.144a1.346,1.346,0,0,1,0,.135v.293a1.4,1.4,0,0,1,0,.144h0a.563.563,0,0,0,0,.088v.247h0v.158C419.786,289.912,420,290.057,420,290.159Z" transform="translate(-272.114 -161.466)" fill="#ff6584"/><path d="M420.134,290.159a.59.59,0,0,1,0,.088v.842a1.345,1.345,0,0,1,0,.135,2,2,0,0,1-.042.33c-.019.112,0,.144-.033.214h0a.733.733,0,0,1,0,.107c0,.023,0,.042,0,.065v.172l-.028.112a.541.541,0,0,1,0,.084.235.235,0,0,1-.033.144h0a.745.745,0,0,0-.023.1,1.089,1.089,0,0,0-.033.116l-.042.144a.134.134,0,0,1,0,.042l-.042.144c-.047.154-.093.3-.149.465a1.319,1.319,0,0,1-.051.144l-.028.079a10.028,10.028,0,0,0-4.659-11.053c-.182-.121-.372-.228-.559-.335a10.309,10.309,0,0,0-9.89,0,10.008,10.008,0,0,0-.973.61,10.284,10.284,0,0,0-1.345,1.136,10.062,10.062,0,0,0-1.257-1.07h0a10.19,10.19,0,0,0-1.061-.675,10.309,10.309,0,0,0-9.89,0,9.957,9.957,0,0,0-1.457.977,10.247,10.247,0,0,0-.861.768,10.128,10.128,0,0,0-1.126,1.336c-.2.289-.391.586-.563.889h0c-.158.289-.307.582-.437.88-.074.168-.14.335-.2.5a.993.993,0,0,1,.047-.2l.028-.1a.3.3,0,0,1,0-.06.55.55,0,0,1,.037-.144h0c.033-.112.065-.223.1-.335s.037-.1.051-.154q.116-.33.251-.642l.056-.13c.028-.061.056-.126.088-.191s.1-.2.149-.3v-.023h0l.07-.135.084-.154.112-.2.051-.088.033-.051h0l.07-.112c.023-.042.051-.084.079-.126l.182-.275.07-.1.084-.116c.028-.037.056-.079.088-.116a1.656,1.656,0,0,1,.107-.144l.1-.126.033-.042.07-.088.116-.135.051-.056h0l.084-.1.1-.107.279-.293.112-.107.177-.168.116-.107.135-.121.093-.074.088-.079.186-.149.093-.074c.154-.116.312-.233.465-.344l.1-.065.1-.065.093-.056a1.34,1.34,0,0,1,.135-.088l.065-.037.1-.06c.13-.079.265-.154.4-.223l.084-.047.209-.065.1-.051.1-.051.1-.047.107-.047.1-.047.428-.172.1-.037.112-.042.1-.037.088-.028.2-.061.1-.033.084-.023h.079l.14-.037.186-.047c.2-.051.386-.093.582-.126h.307l.14-.023h.084c.186,0,.377-.047.563-.061h1.545l.465.047.2.023.135.023h.3c.2.033.391.074.582.121l.237.061h.065l.1.028.2.06.084.023c.144.047.284.093.424.149l.1.033.126.051.191.074.219.093.084.042.116.051.1.051.1.051.13.065.1.056.237.126.1.06c.116.065.233.135.344.209l.093.056.1.065.1.065h0a.33.33,0,0,1,.065.047q.2.14.4.293l.093.074.186.149.088.079.093.074.135.121.116.107.177.168.112.107.112-.107.172-.168.116-.107.14-.121.088-.074.093-.079.186-.149.093-.074c.154-.116.312-.233.465-.344l.1-.065.1-.065.088-.056.14-.088.065-.037.1-.061c.13-.079.265-.154.4-.223a.464.464,0,0,0,.079-.047l.126-.061.1-.051.107-.051.1-.047.107-.047.1-.047.424-.172.107-.037.112-.042.1-.037.084-.028.2-.061.1-.033.079-.023h.079l.144-.037.186-.047c.191-.051.386-.093.582-.126h.3l.144-.023h.084c.186,0,.372-.047.563-.061h1.559l.465.047.2.023.135.023h.3c.2.033.386.074.582.121l.233.06h.065l.1.028.2.06.084.023c.144.047.284.093.424.149l.1.033.126.051.191.074.214.093.088.042.116.051.1.051.1.051.13.065.1.056.237.126.1.06c.116.065.233.135.344.209l.093.056.1.065.1.065h0l.065.047.4.293.093.074.186.149.088.079.093.074.116.107a1.266,1.266,0,0,1,.116.107l.07.06h0l.116.107.047.047.065.061.112.116.168.177.1.107.158.182.168.2a7.732,7.732,0,0,1,.54.726l.07.1.07.112a.639.639,0,0,1,.06.093c.037.056.07.112.1.168l.088.149.056.1.042.074.042.074.056.107c.023.037.042.079.06.116a8.725,8.725,0,0,1,.363.8l.047.116q.07.168.126.335l.037.107a.646.646,0,0,0,.047.144l.042.13a.1.1,0,0,0,.023.079l.037.121a1.392,1.392,0,0,1,.037.149c.023.079.042.158.065.237l.028.126.042.182v.074a.785.785,0,0,1,0,.1.533.533,0,0,1,0,.084.271.271,0,0,1,0,.065v.256a1.174,1.174,0,0,1,0,.126c0,.047,0,.1,0,.144a1.337,1.337,0,0,1,0,.135v.293a1.387,1.387,0,0,1,0,.144h0a.563.563,0,0,0,0,.088v.247h0v.158C419.92,289.912,420.134,290.057,420.134,290.159Z" transform="translate(-272.248 -161.466)" opacity="0.1"/><path d="M410.328,449.42v.163a.628.628,0,0,1,0,.093c0,.07,0,.144,0,.219v.279a.061.061,0,0,1,0,.028v.3l-.042.33a.491.491,0,0,1-.033.214h0v.168a.231.231,0,0,1,0,.056.858.858,0,0,1-.023.116.933.933,0,0,1-.023.112v.084a.264.264,0,0,1-.033.144h0l-.028.1-.028.121-.042.144v.037a1.167,1.167,0,0,1-.047.149c-.042.149-.093.3-.144.465l-.051.14a.408.408,0,0,1-.033.079,10.052,10.052,0,0,1-1.359,2.485l-.107.14a10.236,10.236,0,0,1-.875.991L392.94,471.1l-14.525-14.525a10.364,10.364,0,0,1-1.14-1.35,10.621,10.621,0,0,1-.591-.931,10.239,10.239,0,0,1-1.238-5.841,3.658,3.658,0,0,1,.061-.554c.047-.33.107-.652.186-.977a.746.746,0,0,1,.047-.2l.028-.1v-.056l.042-.149h0c.037-.112.07-.223.107-.335l.051-.154c.079-.219.158-.433.251-.647l-.07-.13.084-.191c.051-.1.1-.2.154-.307v-.023h0l.074-.135.084-.154c.033-.065.07-.13.107-.191l.056-.093.028-.051h0c0-.037.042-.074.065-.112s.056-.084.079-.126l.186-.275c.023-.033.042-.065.065-.093l.084-.116.088-.121.112-.144.1-.126.037-.042.07-.088.116-.135.051-.056h0l.088-.1.135-.116c.088-.1.182-.2.279-.289l.112-.112.172-.168.116-.1.14-.121.088-.079.093-.074c.06-.051.121-.1.186-.149a.725.725,0,0,1,.093-.074c.154-.121.312-.237.465-.344l.1-.065a.713.713,0,0,1,.1-.065l.088-.06.14-.084.065-.042.1-.06c.13-.079.265-.154.4-.223l.079-.042.126-.065.1-.051.107-.047.1-.051.1-.047.107-.047.424-.172.107-.037.112-.042.1-.033.084-.028.2-.065.1-.033.079-.023h.079l.144-.042.186-.047c.191-.047.386-.088.582-.126h.531c.186-.023.372-.042.563-.056h1.545l.465.042.2.028h.433c.2.033.386.074.582.121l.233.065h.065l.1.033.2.056.084.028c.144.042.284.093.424.144l.1.037.126.047.191.079.214.093.088.037.116.056.1.047.1.051.13.065.1.056.237.13.1.056c.116.07.233.135.344.209l.093.061.1.065.1.065h0l.065.042.4.3.093.074.186.149.088.074.093.079.135.121.116.1.172.168.116.112.112-.112.172-.168.116-.1.135-.121.093-.079.088-.074.186-.149.093-.074c.158-.121.316-.237.465-.344l.1-.065.1-.065.093-.06.135-.084.07-.042.1-.06.4-.223.079-.042.126-.065.1-.051.1-.047.107-.051.1-.047.107-.047.424-.172.107-.037.112-.042.1-.033.084-.028.2-.065.1-.033.079-.023h.079l.14-.042.191-.047c.191-.047.386-.088.582-.126h.526l.563-.056h1.545a4.113,4.113,0,0,1,.465.042l.2.028h.438c.2.033.386.074.577.121l.237.065h.065l.1.033.2.056.084.028c.14.042.284.093.424.144l.093.037.126.047.191.079.219.093.084.037.116.056.107.047.1.051.13.065.1.056c.079.042.158.084.233.13l.1.056.344.209.093.061.1.065.093.065h0l.061.042c.14.1.275.2.4.3l.1.074.182.149.093.074.088.079.121.1.116.107.065.065h0l.112.107.051.051.061.06.112.112.172.182.1.1.158.182.168.2a8.393,8.393,0,0,1,.54.726l.07.1.07.112.061.1.1.163.088.154.056.093.042.074c0,.023.023.051.037.074s.042.074.061.112.037.074.061.112c.13.261.251.531.363.8,0,.037.033.074.047.116l.126.335.033.1a.448.448,0,0,0,.051.144.8.8,0,0,1,.037.13l.028.084.033.116.042.149c.023.079.042.158.06.242a1.259,1.259,0,0,1,.033.126,1.33,1.33,0,0,0,.037.177v1.424h0v.093a.649.649,0,0,0,0,.093q0,.077,0,.154h0v.158C410.076,449.188,410.332,449.318,410.328,449.42Z" transform="translate(-266.933 -246.616)" fill="#ff6584"/><path d="M410.527,449.42v.163a.623.623,0,0,1,0,.093v.5a.06.06,0,0,1,0,.028v.3l-.042.33a.491.491,0,0,1-.033.214h0v.168a.234.234,0,0,1,0,.056.858.858,0,0,1-.023.116.939.939,0,0,1-.023.112v.084a.264.264,0,0,1-.033.144h0l-.028.1-.028.121-.042.144v.037a1.172,1.172,0,0,1-.047.149c-.042.149-.093.3-.144.465l-.051.14a.408.408,0,0,1-.033.079,9.972,9.972,0,0,0,.284-2.49,10.1,10.1,0,0,0-.349-2.583,10.318,10.318,0,0,0-4.412-6c-.186-.116-.372-.228-.563-.33a10.272,10.272,0,0,0-9.885,0,14.609,14.609,0,0,0-2.439,1.745,10.412,10.412,0,0,0-1.257-1.07h0a10.657,10.657,0,0,0-1.061-.67,10.281,10.281,0,0,0-11.351.973,10.99,10.99,0,0,0-.856.768,10.13,10.13,0,0,0-1.126,1.336,9.5,9.5,0,0,0-.563.889h0a9.671,9.671,0,0,0-.437.88c-.074.163-.144.33-.2.5a.746.746,0,0,1,.047-.2l.028-.1v-.056l.042-.149h0c.037-.112.07-.223.107-.335l.051-.154c.079-.219.158-.433.251-.647l.042-.107.084-.191.154-.307v-.023h0l.074-.135.084-.154c.033-.065.07-.13.107-.191l.056-.093.028-.051h0c0-.037.042-.074.065-.112s.056-.084.079-.126l.186-.275c.023-.033.042-.065.065-.093l.084-.116.088-.121.112-.144.1-.126.037-.042.07-.088.116-.135.051-.056h0l.088-.1.135-.116c.088-.1.182-.2.279-.289l.112-.112.172-.168.116-.1.14-.121.088-.079.093-.074c.061-.051.121-.1.186-.149a.725.725,0,0,1,.093-.074c.154-.121.312-.237.465-.344l.1-.065a.713.713,0,0,1,.1-.065l.088-.06.14-.084.065-.042.1-.06c.13-.079.265-.154.4-.223l.079-.042.126-.065.1-.051.107-.047.1-.051.1-.047.107-.047.424-.172.107-.037.112-.042.1-.033.084-.028.2-.065.1-.033.079-.023h.079l.144-.042.186-.047c.191-.047.386-.088.582-.126h.531c.186-.023.372-.042.563-.056h1.545l.465.042.2.028h.433c.2.033.386.074.582.121l.233.065h.065l.1.033.2.056.084.028c.144.042.284.093.424.144l.1.037.126.047.191.079.214.093.088.037.116.056.1.047.1.051.13.065.1.056.237.13.1.056c.116.07.233.135.344.209l.093.061.1.065.1.065h0l.065.042.4.3.093.074.186.149.088.074.093.079.135.121.116.1.172.168.116.112.112-.112.172-.168.116-.1.135-.121.093-.079.088-.074.186-.149.093-.074c.158-.121.316-.237.465-.344l.1-.065.1-.065.093-.06.135-.084.07-.042.1-.06.4-.223.079-.042.126-.065.1-.051.1-.047.107-.051.1-.047.107-.047.424-.172.107-.037.112-.042.1-.033.084-.028.2-.065.1-.033.079-.023h.079l.14-.042.191-.047c.191-.047.386-.088.582-.126h.526l.563-.056h1.545a4.113,4.113,0,0,1,.465.042l.2.028h.437c.2.033.386.074.577.121l.237.065H403l.1.033.2.056.084.028c.14.042.284.093.424.144l.093.037.126.047.191.079.219.093.084.037.116.056.107.047.1.051.13.065.1.056c.079.042.158.084.233.13l.1.056.344.209.093.061.1.065.093.065h0l.061.042c.14.1.275.2.4.3l.1.074.182.149.093.074.088.079.121.1.116.107.065.065h0l.112.107.051.051.06.06.112.112.172.182.1.1.158.182.168.2a8.393,8.393,0,0,1,.54.726l.07.1.07.112.06.1.1.163.088.154.056.093.042.074c0,.023.023.051.037.074s.042.074.06.112.037.074.061.112c.13.261.251.531.363.8,0,.037.033.074.047.116l.126.335.033.1a.448.448,0,0,0,.051.144.8.8,0,0,1,.037.13l.028.084.033.116.042.149c.023.079.042.158.061.242a1.259,1.259,0,0,1,.033.126,1.335,1.335,0,0,0,.037.177v1.424h0v.093a.653.653,0,0,0,0,.093q0,.077,0,.154h0v.158C410.276,449.188,410.532,449.318,410.527,449.42Z" transform="translate(-267.132 -246.616)" opacity="0.1"/><path d="M505.284,350.592v.116a.268.268,0,0,1,0,.061v.489a.7.7,0,0,1,0,.093l-.028.233-.028.149h0v.074a.17.17,0,0,1,0,.047v.256a1.022,1.022,0,0,0,0,.1h0v.065a.128.128,0,0,1-.023.088l-.028.1v.023l-.028.107c-.033.107-.07.214-.107.316s0,.07-.033.1l-.023.056a7.339,7.339,0,0,1-.959,1.755l-.079.1a6.713,6.713,0,0,1-.614.7L493.072,365.89,482.81,355.628a7.279,7.279,0,0,1-2.1-5.748,2.951,2.951,0,0,1,.047-.4,6.818,6.818,0,0,1,.13-.684.755.755,0,0,1,.033-.14.392.392,0,0,0,0-.07v-.042l.028-.1h0c.023-.084.051-.163.074-.237l.037-.112c.056-.154.112-.3.177-.465l.042-.088c0-.047.037-.088.06-.135l.1-.214h0a.988.988,0,0,0,.051-.1l.061-.107a1.289,1.289,0,0,1,.079-.135.3.3,0,0,1,.037-.065v-.037h0l.051-.074.056-.088.13-.2.047-.07.056-.079.065-.088.079-.1a.648.648,0,0,1,.07-.088l.023-.033.051-.06c.028-.033.051-.065.079-.093l.037-.042h0l.061-.065.07-.079.2-.2.079-.079.126-.116a.6.6,0,0,0,.079-.074l.1-.084.065-.056.065-.051.13-.107.065-.051.335-.247.07-.047.07-.042.065-.042.093-.06.051-.028.07-.042c.093-.056.186-.112.284-.158l.056-.033.088-.047L484.7,344l.074-.037.07-.033.074-.033.074-.033.3-.121.074-.028.079-.028.07-.028h.061l.14-.047h.182l.1-.028.13-.033c.14-.037.275-.065.414-.088h.372c.13,0,.265-.033.4-.042h1.1l.316.033h.451c.135.023.275.051.41.084l.168.047h.116l.14.037h.056l.3.1.065.028.088.033.135.056.154.065.061.028.084.037.074.037.07.033.093.047.07.042.168.088.07.042.247.149.065.042.065.042.07.047h0l.047.033c.1.065.191.135.284.209l.065.051.135.107.06.051.065.056.1.084.084.074a1.428,1.428,0,0,0,.121.116l.079.079.079-.079a1.434,1.434,0,0,0,.121-.116l.084-.074.1-.084.065-.056.061-.051.135-.107.065-.051c.107-.084.219-.168.335-.247l.07-.047.065-.042.065-.042.1-.06.047-.028.07-.042c.1-.056.191-.112.289-.158l.056-.033.088-.047.07-.033.074-.037.074-.033.074-.033.074-.033.3-.121.074-.028.079-.028.074-.028h.06l.135-.047h.186l.1-.028.135-.033c.135-.037.275-.065.41-.088h.377c.13,0,.261-.033.4-.042h1.1l.316.033h.451l.4.084.168.047h.121l.135.037h.061l.3.1.07.028.088.033.135.056.154.065.061.028.079.037.074.037.074.033.088.047.074.042.168.088.07.042c.084.047.163.1.242.149l.065.042.07.042.07.047h0l.042.033c.1.065.2.135.289.209l.065.051a1.445,1.445,0,0,1,.13.107l.065.051.065.056.084.074.084.074.047.047h0l.079.079.033.033.047.042.079.084.121.126.065.074.112.126.121.144c.135.163.261.335.382.512l.047.07c0,.028.033.056.051.079l.042.07c.023.037.051.074.074.116l.06.107a.463.463,0,0,1,.037.065l.033.051.028.056.042.079.042.079c.093.182.177.372.256.563l.033.084c.033.079.061.154.088.237a.413.413,0,0,1,.023.07.115.115,0,0,0,.037.1l.028.093a.427.427,0,0,0,0,.061.116.116,0,0,0,.023.084l.028.1a.751.751,0,0,0,.047.168c.014.056,0,.061,0,.093l.028.126v.126a.234.234,0,0,0,0,.056v.419a.7.7,0,0,1,0,.1v.051a.7.7,0,0,0,0,.1.194.194,0,0,0,0,.051v.1h0a.323.323,0,0,1,0,.065.3.3,0,0,1,0,.065.9.9,0,0,1,0,.112h0a.9.9,0,0,1,0,.112Z" transform="translate(-323.214 -195.413)" fill="#ff6584"/><path d="M505.57,350.56v.116a.267.267,0,0,1,0,.06v.489a.7.7,0,0,1,0,.093l-.028.233-.028.149h0v.074a.17.17,0,0,1,0,.047v.256a1.023,1.023,0,0,0,0,.1h0v.065a.128.128,0,0,1-.023.088l-.028.1v.023l-.028.107c-.033.107-.07.214-.107.316s0,.07-.033.1l-.023.056a7.238,7.238,0,0,0,.2-1.759,7.4,7.4,0,0,0-.247-1.829,7.279,7.279,0,0,0-1.862-3.258,7.378,7.378,0,0,0-1.243-1c-.13-.079-.261-.158-.4-.233a7.274,7.274,0,0,0-6.981,0,8.085,8.085,0,0,0-.689.428,7.654,7.654,0,0,0-.931.8,7.454,7.454,0,0,0-.884-.754h0a6.393,6.393,0,0,0-.754-.465,7.274,7.274,0,0,0-6.981,0,7.079,7.079,0,0,0-1.029.689,7.359,7.359,0,0,0-.605.54,7.612,7.612,0,0,0-.8.931c-.144.2-.275.414-.4.628h0a6.521,6.521,0,0,0-.312.624c-.051.116-.1.233-.144.354a.755.755,0,0,1,.033-.14.381.381,0,0,0,0-.07v-.042l.028-.1h0c.023-.084.051-.163.074-.237l.037-.112c.056-.154.112-.3.177-.465l.042-.088c0-.047.037-.088.061-.135l.1-.214h0a.985.985,0,0,0,.051-.1l.06-.107a1.29,1.29,0,0,1,.079-.135.3.3,0,0,1,.037-.065v-.037h0l.051-.074.056-.088.13-.2.047-.07.056-.079.065-.088.079-.1a.648.648,0,0,1,.07-.088l.023-.033.051-.06c.028-.033.051-.065.079-.093l.037-.042h0l.06-.065.07-.079.2-.2.079-.079.126-.116a.6.6,0,0,0,.079-.074l.1-.084.065-.056.065-.051.13-.107.065-.051.335-.247.07-.047.07-.042.065-.042.093-.061.051-.028.07-.042c.093-.056.186-.112.284-.158l.056-.033.088-.047.074-.033.074-.037.07-.033.074-.033.074-.033.3-.121.074-.028.079-.028.07-.028h.06l.14-.047h.181l.1-.028.13-.033c.14-.037.275-.065.414-.088h.372c.13,0,.265-.033.4-.042h1.1l.316.033h.451c.135.023.275.051.41.084l.168.047h.116l.14.037h.056l.3.1.065.028.088.033.135.056.154.065.06.028.084.037.074.037.07.033.093.047.07.042.168.088.07.042.247.149.065.042.065.042.07.047h0l.047.033c.1.065.191.135.284.209l.065.051.135.107.061.051.065.056.1.084.084.074a1.428,1.428,0,0,0,.121.116l.079.079.079-.079a1.433,1.433,0,0,0,.121-.116l.084-.074.1-.084.065-.056.061-.051.135-.107.065-.051c.107-.084.219-.168.335-.247l.07-.047.065-.042.065-.042.1-.061.047-.028.07-.042c.1-.056.191-.112.289-.158l.056-.033.088-.047.07-.033.074-.037.074-.033.074-.033.074-.033.3-.121.074-.028.079-.028.074-.028h.06l.135-.047h.186l.1-.028.135-.033c.135-.037.275-.065.41-.088h.377c.13,0,.261-.033.4-.042h1.1l.316.033h.451l.4.084.168.047h.121l.135.037h.06l.3.1.07.028.088.033.135.056.154.065.061.028.079.037.074.037.074.033.088.047.074.042.168.088.07.042c.084.047.163.1.242.149l.065.042.07.042.07.047h0l.042.033c.1.065.2.135.289.209l.065.051a1.449,1.449,0,0,1,.13.107l.065.051.065.056.084.074.084.074.047.047h0l.079.079.033.033.047.042.079.084.121.126.065.074.112.126.121.144c.135.163.261.335.382.512l.047.07c0,.028.033.056.051.079l.042.07c.023.037.051.074.074.116l.061.107a.468.468,0,0,1,.037.065l.033.051.028.056.042.079.042.079c.093.182.177.372.256.563l.033.084c.033.079.061.154.088.237a.4.4,0,0,1,.023.07.115.115,0,0,0,.037.1l.028.093a.426.426,0,0,0,0,.061.116.116,0,0,0,.023.084l.028.1a.754.754,0,0,0,.047.168c.014.056,0,.06,0,.093l.028.126v.126a.231.231,0,0,0,0,.056v.419a.706.706,0,0,1,0,.1v.051a.7.7,0,0,0,0,.1.189.189,0,0,0,0,.051c0,.033,0,.065,0,.1h0a.332.332,0,0,1,0,.065.31.31,0,0,1,0,.065.9.9,0,0,1,0,.112h0a.9.9,0,0,1,0,.112Z" transform="translate(-323.5 -195.381)" opacity="0.1"/><path d="M741.353,435.024v.116a.323.323,0,0,1,0,.065v.186a1.135,1.135,0,0,0,0,.126v.177a.624.624,0,0,1,0,.093l-.028.233v.154h0v.074a.139.139,0,0,1,0,.047v.042a.645.645,0,0,1,0,.079v.242h0a.386.386,0,0,0,0,.07q0,.042,0,.084l-.028.1v.028a.847.847,0,0,0-.033.1c-.033.107-.065.214-.1.321a.849.849,0,0,0-.037.1l-.023.056a7.257,7.257,0,0,1-.959,1.755l-.074.1a7.352,7.352,0,0,1-.619.7l-10.262,10.262-10.239-10.262a6.724,6.724,0,0,1-.805-.954,6.629,6.629,0,0,1-.419-.666,7.265,7.265,0,0,1-.875-4.128,1.859,1.859,0,0,1,.042-.391,6.908,6.908,0,0,1,.13-.689.2.2,0,0,1,.037-.14.386.386,0,0,1,0-.07.132.132,0,0,1,0-.042l.028-.1h0a.931.931,0,0,1,.074-.237,1.054,1.054,0,0,0,.037-.112c.056-.154.116-.3.177-.465l.042-.093a.378.378,0,0,1,.061-.135c.023-.047.07-.144.107-.214h0l.047-.1.06-.107c.028-.047.051-.093.079-.135a.466.466,0,0,1,.037-.065s0-.023,0-.037h0c0-.028.033-.056.051-.079l.056-.088.13-.2.047-.065.061-.084.06-.084.079-.1.07-.088v-.033l.051-.061.079-.093.037-.042h0l.061-.07.07-.074c.065-.07.13-.14.2-.2a.641.641,0,0,1,.079-.079,1.429,1.429,0,0,1,.121-.116l.084-.074a.836.836,0,0,1,.093-.088l.065-.056.065-.051.13-.107.065-.051c.112-.084.223-.168.335-.242l.07-.047.07-.047.065-.042.1-.061.047-.028.07-.042.284-.158.056-.033.088-.042.074-.037.074-.033.074-.037.07-.033.074-.033.3-.121.074-.028.079-.028.07-.023.06-.023.14-.042h.182l.1-.028.13-.033c.14-.033.275-.065.414-.088h.372l.4-.042h1.1l.321.033h.447a3.993,3.993,0,0,1,.41.088l.167.042H726l.14.042h.061l.3.1h.065l.088.033.135.056.154.065.06.028.084.042.074.033.07.037.093.047.074.037.163.093.074.037.242.149.065.042.07.047.065.047h0l.047.033.284.209.07.051.13.107.065.051.061.056.1.088.084.074.121.116a.637.637,0,0,1,.079.079c.028-.028.051-.056.079-.079l.126-.116a.605.605,0,0,1,.079-.074l.1-.088.065-.056.065-.051.13-.107.065-.051c.112-.084.223-.168.335-.242l.07-.047.07-.047.065-.042.093-.061.051-.028.07-.042.284-.158.056-.033.089-.042.074-.037.07-.033.074-.037.074-.033.074-.033.3-.121.074-.028.079-.028.074-.023.06-.023.14-.042h.182l.1-.028.13-.033c.135-.033.275-.065.41-.088h.377l.4-.042h1.1l.316.033h.451c.135.023.275.051.41.088l.167.042h.116l.135.042h.06l.3.1h.07l.088.033.135.056.154.065.06.028.084.042.07.033.074.037.093.047.07.037.168.093.07.037c.084.047.163.1.242.149l.065.042.07.047.07.047h0l.047.033.284.209.065.051.13.107.065.051.065.056.084.074.084.074a.438.438,0,0,0,.047.047h0c0,.028.051.051.079.079l.037.033.042.047.079.079.121.126.065.074a1.483,1.483,0,0,1,.112.13l.121.14c.135.168.261.335.382.512,0,.023.033.047.047.074l.051.074.042.07c.028.037.051.079.074.116l.06.107.042.065.028.056.028.051.042.079.042.079c.093.186.182.372.256.563a.624.624,0,0,1,.033.084c.033.079.061.158.089.237l.028.074a.784.784,0,0,0,.033.1l.028.093v.144l.028.1a.792.792,0,0,0,.047.172c.014.056,0,.056,0,.088l.028.126v1.005h0a.264.264,0,0,0,0,.06v.065a.886.886,0,0,1,0,.112h0a.886.886,0,0,1,0,.112Z" transform="translate(-449.451 -240.527)" fill="#ff6584"/><path d="M741.6,435.035v.116a.323.323,0,0,1,0,.065v.186a1.135,1.135,0,0,0,0,.126v.177a.624.624,0,0,1,0,.093l-.028.233v.154h0v.074a.139.139,0,0,1,0,.047v.042a.645.645,0,0,1,0,.079v.242h0a.386.386,0,0,0,0,.07q0,.042,0,.084l-.028.1v.028a.847.847,0,0,0-.033.1c-.033.107-.065.214-.1.321a.849.849,0,0,0-.037.1l-.023.056a7.243,7.243,0,0,0-3.165-7.81c-.13-.084-.261-.163-.4-.237a7.274,7.274,0,0,0-6.981,0,7.1,7.1,0,0,0-.689.433,7.286,7.286,0,0,0-.931.8,7.131,7.131,0,0,0-.884-.759h0a8.452,8.452,0,0,0-.749-.465,7.284,7.284,0,0,0-6.981,0,7.477,7.477,0,0,0-1.029.689,6.656,6.656,0,0,0-.605.544,6.88,6.88,0,0,0-.8.931,6.025,6.025,0,0,0-.4.633h0c-.116.2-.219.414-.312.624-.051.116-.1.233-.144.354a.2.2,0,0,1,.037-.14.381.381,0,0,1,0-.07.134.134,0,0,1,0-.042l.028-.1h0a.935.935,0,0,1,.074-.237,1.042,1.042,0,0,0,.037-.112c.056-.154.116-.3.177-.465l.042-.093a.38.38,0,0,1,.06-.135c.023-.047.07-.144.107-.214h0l.047-.1.061-.107c.028-.047.051-.093.079-.135a.463.463,0,0,1,.037-.065v-.037h0c0-.028.033-.056.051-.079l.056-.088.13-.2.047-.065.06-.084.061-.084.079-.1.07-.088v-.033l.051-.061.079-.093.037-.042h0l.06-.07.07-.074c.065-.07.13-.14.2-.2a.639.639,0,0,1,.079-.079,1.433,1.433,0,0,1,.121-.116l.084-.074a.839.839,0,0,1,.093-.088l.065-.056.065-.051.13-.107.065-.051c.112-.084.223-.168.335-.242l.07-.047.07-.047.065-.042.1-.06.047-.028.07-.042.284-.158.056-.033.088-.042.074-.037.074-.033.074-.037.07-.033.074-.033.3-.121.074-.028.079-.028.07-.023.06-.023.14-.042h.182l.1-.028.13-.033c.14-.033.275-.065.414-.088h.372l.4-.042h1.1l.321.033h.447a4.009,4.009,0,0,1,.41.088l.168.042h.116l.14.042h.06l.3.1h.065l.088.033.135.056.154.065.061.028.084.042.074.033.07.037.093.047.074.037.163.093.074.037.242.149.065.042.07.047.065.047h0l.047.033.284.209.07.051.13.107.065.051.06.056.1.088.084.074.121.116a.638.638,0,0,1,.079.079c.028-.028.051-.056.079-.079l.126-.116a.6.6,0,0,1,.079-.074l.1-.088.065-.056.065-.051.13-.107.065-.051c.112-.084.223-.168.335-.242l.07-.047.07-.047.065-.042.093-.06.051-.028.07-.042.284-.158.056-.033.088-.042.074-.037.07-.033.074-.037.074-.033.074-.033.3-.121.074-.028.079-.028.074-.023.06-.023.14-.042h.182l.1-.028.13-.033c.135-.033.275-.065.41-.088h.377l.4-.042h1.1l.317.033h.451c.135.023.275.051.41.088l.168.042h.116l.135.042h.061l.3.1h.07l.088.033.135.056.154.065.061.028.084.042.07.033.074.037.093.047.07.037.167.093.07.037c.084.047.163.1.242.149l.065.042.07.047.07.047h0l.047.033.284.209.065.051.13.107.065.051.065.056.084.074.084.074a.443.443,0,0,0,.047.047h0c0,.028.051.051.079.079l.037.033.042.047.079.079.121.126.065.074a1.5,1.5,0,0,1,.112.13l.121.14c.135.168.261.335.382.512,0,.023.033.047.047.074l.051.074.042.07c.028.037.051.079.074.116l.061.107.042.065.028.056.028.051.042.079.042.079c.093.186.182.372.256.563a.632.632,0,0,1,.033.084c.033.079.06.158.088.237l.028.074a.791.791,0,0,0,.033.1l.028.093v.144l.028.1a.789.789,0,0,0,.047.172c.014.056,0,.056,0,.088l.028.126v1.005h0a.271.271,0,0,0,0,.06v.065a.9.9,0,0,1,0,.112h0a.9.9,0,0,1,0,.112Z" transform="translate(-449.701 -240.538)" opacity="0.1"/><path d="M589.778,316.718h0a53.528,53.528,0,0,0-4.729-4.259c.2-2.495.666-8.466.707-9.615.047-1.457-2.1-3.318-6.688-5.036s-3.258,6.292-3.193,7.014a5.4,5.4,0,0,0,2.792,3.621c.619.256.787.577.745.88l-.144-.023a17.951,17.951,0,0,1-5.478-1.34,28.928,28.928,0,0,0-1.4,6.2v.316a2.393,2.393,0,0,0,.112,1.08h.321a3.5,3.5,0,0,1-.256,1.592h0a12.294,12.294,0,0,1-.465,1.145,32.021,32.021,0,0,1-.219-3.449c.074-1.117-1.7-5.655-1.7-5.655a7.915,7.915,0,0,1-2.294-2.085,9.157,9.157,0,0,0-3.849-2.9c-1.057-.372-4.887-5.357-6.464-6.516-1.257-.931-1.764-.382-1.917-.121l-.093.065a5.515,5.515,0,0,1-1.252-2.671c0-.507.051-1.55.144-2.872a12.1,12.1,0,0,1,1.527,1.4c1.07,1.187,1.862,2.6,3.03,3.7a4.933,4.933,0,0,0,3.342,1.461,3.086,3.086,0,0,0,1.21-.191c1.555-.6,2.555-2.495,4.189-2.569,1.284.065,2.229,1.252,3.281,2.034a4.4,4.4,0,0,0,2.7.931,3.082,3.082,0,0,0,1.14-.182,2.443,2.443,0,0,0,1.485-3.109c-.856-1.806-3.77-1.4-5.012-2.969a1.229,1.229,0,0,1-.289-1.154.805.805,0,0,1,.754-.549,2.625,2.625,0,0,1,1.559.745c.6.614,1.4,1.4,2.146,1.312a1.019,1.019,0,0,0,.61-.116c.023-.554.051-1.108.074-1.661a5.794,5.794,0,0,0,2.588.735,3.031,3.031,0,0,0,.5-.023,2.025,2.025,0,0,0,1.806-1.992,2.257,2.257,0,0,0,1.55.517,2.112,2.112,0,0,0,.745-.093,2.253,2.253,0,0,0,1.508-1.936,4.418,4.418,0,0,0-1.177-2.792l-3.044-4.161a1.684,1.684,0,0,1-.465-1.2,2.5,2.5,0,0,1,.521-.931,3.247,3.247,0,0,0-.633-4,5.643,5.643,0,0,0-4.058-1.345c-1.1.023-2.327.209-3.216-.419a3.665,3.665,0,0,1-1.257-2.192c-.647-2.448-.684-5.017-1.136-7.507s-1.424-5.05-3.444-6.567a3.188,3.188,0,0,0-1.6-.7,11.327,11.327,0,0,0-1.48.121c-1.675.093-3.169-1.061-4.226-2.374a37.67,37.67,0,0,0-3.076-3.989,7.509,7.509,0,0,0-7.139-1.652c-1.089.3-1.955,1.187-3.081,1.233a36.845,36.845,0,0,1-5.092-.465,14.067,14.067,0,0,0-4.654.1,4.952,4.952,0,0,0-3.258,2.415l-.4-3.356s-.819-6.33-1.187-6.846a1.707,1.707,0,0,1,.047-1.494l.074.07c.056-.168.116-.34.177-.512a1.218,1.218,0,0,0,0-.391c.144-1.271-2.164-9.359-2.164-9.359h-2.076a1.658,1.658,0,0,0-.051-.3c-.6-3.29-1.624-8.433-2.327-9.671a5.768,5.768,0,0,1-.419-3.128,25.081,25.081,0,0,0,.1-3.691,10.1,10.1,0,0,1,.084-1.778,2.5,2.5,0,0,0-.991-2.327c-2.723-2.02-9.341-6.618-13.213-6.734-4.961-.149,1.555,8.559,1.48,9.378s4.961,1.564,4.961,1.564.3,2.527.6,3.942c.2.982.549,8.266.745,12.636a13.878,13.878,0,0,1-3.337-1.252s-5.776-1.559-6.3,0,7.037,9.08,7.037,9.08,2.667,7.07,1.862,9.308-.223,12.8-.223,12.8.074,12.566.628,15.777a6.184,6.184,0,0,1-1,4.984s-.666,7.889,0,8.633a23.043,23.043,0,0,1,1.824,2.927l.2.354c-2.187,2.671-4.361,5.227-5.5,5.585-2.22.67-17.4,6.981-17.4,6.981s-4.957,4.738-5.706,4.738,4.514,5.064,4.514,5.064,4.738,3.793,5.259,4.389,13.5,7.665,13.5,7.665,2.225.67,2.443,1.34,3.183,2.527,3.183,2.527a19.335,19.335,0,0,1,2.867,4.3,1,1,0,0,0,.033.321c.028.465.06.679.088.568.4,1.089,3.062,3.868,1.778,5.85-.6.931,0,2.6,1.15,3.951a14.2,14.2,0,0,1-1.21,4.189c-.889,1.191-.493,2.876-1.4,3.076s-1.187,4.566-1.187,4.566l-.768,9.62s-.2,1.983-1.285,2.481,0,3.174,0,3.174-1.164,2.28-.465,3.57-1.4,7.246-1.4,7.246-.889,11.51,0,13.1a13.032,13.032,0,0,1,1.4,5.059c0,.991.493,19.547.493,19.547s-1.187,7.54-1.582,8.927,1.089,4.468.1,6.05-.791,5.157-.791,5.157-1.48,13.99-.591,19.152-.284,6.25-.284,6.25a10.573,10.573,0,0,0,1.917.847c.023.2.047.4.07.619.465,4.328,1.15,11.784.526,13.5a27.212,27.212,0,0,0-.861,6.776v.3h0l-1.727,2.792s-.344,2.462-.791,2.858-4.156,7.13-4.654,8l-.051.093s-3.751,6.9,5.529,7.093,8.093-4.561,8.093-4.561.028-.931.116-2.071a9.994,9.994,0,0,1,.675-3.537,49.7,49.7,0,0,0,2.518-4.514v-5.464h-.6a.958.958,0,0,1,.033-.3,20.606,20.606,0,0,1,.517-3.374c.293-.693-.642-4.863-.642-4.863a109.484,109.484,0,0,1,1.122-13.087c.042-.223.084-.442.126-.652a15.827,15.827,0,0,0,2-1.043s0-10.118,1.187-11.905.936-6.846.936-6.846.293-4.463,1.182-5.357.68-4.863.68-4.863.786-2.578,1.675-4.654,1.4-7.935,1.4-7.935a10.064,10.064,0,0,1,1.4-2.881c.991-1.4,0-4.463,0-4.463a5.435,5.435,0,0,1-.391-3.97c.693-1.987,4.538-18.058,4.538-18.058l1.485-5.752,2.169,7.339a50.412,50.412,0,0,0,0,6.748c.293,1.489,2.369,4.654,2.369,4.654v15.577s.2,10.518.991,12.2,1.182,7.94,1.182,7.94,2.667,18.356.987,21.032a16.062,16.062,0,0,0,2.727,1.494v10.811s-1.936,6.544-1.275,11a1.751,1.751,0,0,0,.042.265c-.177.13-.372.242-.493.2l.312,7.447a23.051,23.051,0,0,1-.707,6.306,8.974,8.974,0,0,0-.465,2.364c-.172,2.946.963,6.981,7.446,6.562,8.633-.549,7.3-6.05,7.3-6.05s0-.214-.033-.591a22.427,22.427,0,0,0-2.141-8.089A20.364,20.364,0,0,1,563.4,487.8a3.187,3.187,0,0,1-.526.14,1.345,1.345,0,0,1,.023-.3c.112-1.4.284-3.207.465-4.054a26.572,26.572,0,0,0,0-4.957l1.112-10.867.06-.605a8.906,8.906,0,0,0,1.531-.931h0a11.14,11.14,0,0,1-.572-3.025,2.672,2.672,0,0,1,.572-1.913c1.285-1.289,2.169-17.462,2.169-17.462s.7-5.692.7-7.614v-.344c-.079-1.159-.693-5.7-.684-8.345a5.246,5.246,0,0,1,.191-1.657c.591-1.489,1.4-29.47,1.4-29.47l.987-12.4V373.809a60.066,60.066,0,0,0-1.767-14.474c2.693,1.41,7.306,4.584,8.148,3.737,1.038-1.043,1.555-18.9,1.257-20.687a1.883,1.883,0,0,0-.07-.363c-.07-.326-.172-.763-.3-1.271l.41-.712c2.024-3.5,5.119-9.071,5.366-10.7.279-1.862.647-6.7,1.345-8.815a4.082,4.082,0,0,1,.2-.5h0c.182-.368.377-.568.6-.512,1.261.3,2.076,1.266,2.741.894a.325.325,0,0,0,.088-.074h0a1.113,1.113,0,0,0,.168-.237h0a2.32,2.32,0,0,0,.154-.34h0c.047-.121.088-.256.13-.4v-.042a.863.863,0,0,1,.047-.182.313.313,0,0,0,0-.06.647.647,0,0,1,.037-.158l.028-.116v-.061c.116-.526.2-1.07.261-1.452a1.926,1.926,0,0,1,.047-.344v-.186Z" transform="translate(-328.644 -120.038)" fill="url(#a)"/><path d="M559.362,489.823a1.582,1.582,0,0,0-.1-.833C559.293,489.66,559.33,489.967,559.362,489.823Z" transform="translate(-365.22 -273.233)" fill="url(#b)"/><path d="M676.018,421.848s1.759-1.2.042-1.908a5.4,5.4,0,0,1-2.792-3.6c-.065-.717-1.4-8.684,3.193-6.981s6.734,3.556,6.688,5.008-.791,10.658-.791,10.658Z" transform="translate(-426.045 -230.535)" fill="#fbbebe"/><path d="M682.549,440.047a2.725,2.725,0,0,1-.07.531c-.135.931-.465,2.848-.968,3.123-.666.372-1.48-.591-2.741-.889-.223-.051-.419.144-.6.512a4.325,4.325,0,0,0-.2.493c-.7,2.113-1.066,6.925-1.345,8.778-.251,1.634-3.342,7.177-5.366,10.663-.3.526-.586,1.005-.828,1.4-.558.931-.931,1.541-.931,1.541l-5.12-9.6V442.444a12.559,12.559,0,0,0,.931-1.959h0a3.457,3.457,0,0,0,.256-1.582.809.809,0,0,0-.219-.465.559.559,0,0,1-.1-.144.733.733,0,0,1-.047-.121,1.542,1.542,0,0,1-.065-.363V437.5a28.766,28.766,0,0,1,1.4-6.171,17.313,17.313,0,0,0,5.478,1.331C675.787,433.1,682.549,440.047,682.549,440.047Z" transform="translate(-421.416 -242.409)" fill="#6c63ff"/><path d="M683.35,441.278c-.135.931-.465,2.848-.968,3.123-.666.372-1.48-.591-2.741-.889-.223-.051-.419.144-.6.512a4.325,4.325,0,0,0-.2.493c-2.546-1.238-6.981-3.481-7.265-4.114s-3.374-.777-5.12-.805h-.316a2.358,2.358,0,0,1-.112-1.075,32.3,32.3,0,0,1,1.4-5.883,17.314,17.314,0,0,0,5.478,1.331C676.462,434.381,682.643,440.561,683.35,441.278Z" transform="translate(-422.287 -243.109)" opacity="0.1"/><path d="M683.453,440.036s-.372,3.281-1.038,3.649-1.48-.591-2.741-.884c-.223-.056-.419.14-.6.507-2.509-1.219-7.191-3.565-7.447-4.212s-3.779-.8-5.436-.814c-.61-1.275,1.284-6.981,1.284-6.981a17.374,17.374,0,0,0,5.478,1.336C676.728,433.083,683.453,440.036,683.453,440.036Z" transform="translate(-422.32 -242.393)" fill="#6c63ff"/><path d="M651.527,473.835c-1.038,1.038-7.777-4-9.625-4.3s-8.563-28.427-8.563-28.427l1.01-15.852-3.937-14.586-.512-1.908s.391-1.164,1.973,0,5.427,6.125,6.465,6.492a9.27,9.27,0,0,1,3.849,2.895,7.843,7.843,0,0,0,2.294,2.071s1.778,4.519,1.7,5.627.6,8.666,1.4,9.331,2.146,6.739,2.146,6.739,2.448,8.531,2.965,10.965a3.471,3.471,0,0,1,.07.363C653.082,455.027,652.565,472.8,651.527,473.835Z" transform="translate(-402.983 -230.07)" fill="#6c63ff"/><path d="M648.23,473.33l4.887,1.308s.931,8.442,1.275,8.889,1.536,17.769,1.536,17.769l-7.7-3.481-2.89-9.308v-10.3Z" transform="translate(-411.237 -264.862)" opacity="0.1"/><path d="M560.793,765.764a16.489,16.489,0,0,0-.7,2.792,105.5,105.5,0,0,0-1.122,13.031s.931,4.147.642,4.84a20.315,20.315,0,0,0-.517,3.356c-.079.726-.126,1.28-.126,1.28l-9.038-.591s0-.535.028-1.354a27.571,27.571,0,0,1,.861-6.739c.61-1.7-.056-9.141-.526-13.45-.2-1.862-.363-3.137-.363-3.137S562.314,761.8,560.793,765.764Z" transform="translate(-360.232 -420.257)" fill="#fbbebe"/><path d="M636.729,768.189,635.617,779a26.327,26.327,0,0,1,0,4.933c-.168.842-.34,2.639-.465,4.035-.084,1.056-.14,1.89-.14,1.89s-6.911,4.84-8.489.591a7.518,7.518,0,0,1-.391-1.592c-.661-4.435,1.275-10.946,1.275-10.946V764l9.578,1.564Z" transform="translate(-400.895 -420.252)" fill="#fbbebe"/><path d="M560.819,765.763a16.49,16.49,0,0,0-.7,2.792,13.79,13.79,0,0,1-9.774.368c-.2-1.862-.363-3.137-.363-3.137S562.341,761.8,560.819,765.763Z" transform="translate(-360.259 -420.255)" opacity="0.1"/><path d="M638.638,765.548l-.27,2.62c-3.351,1.536-6.93.6-9.308-.465V763.98Z" transform="translate(-402.534 -420.241)" opacity="0.1"/><path d="M555.9,506.21s-.786,5.827-1.675,7.014-.493,2.862-1.4,3.058-1.187,4.542-1.187,4.542l-.754,9.578s-.2,1.973-1.285,2.467,0,3.16,0,3.16-1.163,2.271-.465,3.556-1.4,7.2-1.4,7.2-.889,11.454,0,13.031a12.953,12.953,0,0,1,1.4,5.036c0,.987.493,19.449.493,19.449s-1.187,7.507-1.582,8.889,1.089,4.44.1,6.022-.791,5.12-.791,5.12-1.526,13.939-.638,19.058-.284,6.218-.284,6.218a13.818,13.818,0,0,0,13.906-.591s0-10.071,1.187-11.849.991-6.809.991-6.809.293-4.445,1.182-5.334.68-4.826.68-4.826.786-2.569,1.675-4.654,1.4-7.912,1.4-7.912a9.959,9.959,0,0,1,1.4-2.867c.991-1.4,0-4.44,0-4.44a5.393,5.393,0,0,1-.391-3.951c.693-1.973,4.538-17.969,4.538-17.969l1.485-5.724,2.169,7.307a49.859,49.859,0,0,0,0,6.711c.293,1.48,2.369,4.654,2.369,4.654v15.5s.2,10.467.991,12.142,1.182,7.912,1.182,7.912,2.667,18.267.987,20.943c0,0,7.6,5.427,13.627.987,0,0-1.285-3.653,0-4.938s2.169-17.378,2.169-17.378.791-6.418.693-7.912-1.084-8.489-.493-9.969,1.4-29.321,1.4-29.321l.987-12.338v-10.1a59.324,59.324,0,0,0-2.234-16.168c-1.671-5.887-3.984-12.64-5.929-13.064C592.366,507.657,561.729,511.05,555.9,506.21Z" transform="translate(-358.366 -282.439)" fill="#3f3d56"/><path d="M559.094,816.826c-.079.726-.126,1.28-.126,1.28l-9.038-.591s0-.535.028-1.354c4.24-3.76,8.466.666,8.466.666Z" transform="translate(-360.232 -447.327)" opacity="0.1"/><path d="M550.52,817.487v5.483A43.986,43.986,0,0,1,548,827.461a9.824,9.824,0,0,0-.675,3.518c-.088,1.117-.116,2.057-.116,2.057s1.187,4.742-8.093,4.542-5.529-7.06-5.529-7.06l.051-.088c.465-.866,4.221-7.586,4.654-7.958s.791-2.844.791-2.844l1.727-2.792c4.249-3.8,8.494.642,8.494.642Z" transform="translate(-351.095 -447.676)" fill="#3f3d56"/><path d="M547.211,850.4s1.187,4.742-8.093,4.542-5.529-7.042-5.529-7.042l.051-.088c.256,1.4,1.35,2.844,4.836,2.657a21.4,21.4,0,0,0,8.843-2.108C547.239,849.458,547.211,850.4,547.211,850.4Z" transform="translate(-351.095 -465.056)" opacity="0.1"/><path d="M635.34,814.474c-.084,1.057-.14,1.89-.14,1.89s-6.911,4.84-8.489.591a7.52,7.52,0,0,1-.391-1.592,3.79,3.79,0,0,0,.391-.335c1.131-1.675,7.153-1.727,7.447-.931C634.339,814.553,634.911,814.553,635.34,814.474Z" transform="translate(-401.069 -446.767)" opacity="0.1"/><path d="M630.994,838.74c-6.516.41-7.637-3.6-7.446-6.516a8.842,8.842,0,0,1,.465-2.35,22.851,22.851,0,0,0,.707-6.278l-.312-7.4c.247.1.842-.493.842-.493,1.131-1.675,7.153-1.727,7.446-.931s1.68.256,1.68.256a20.149,20.149,0,0,0,1.773,9.08,22.28,22.28,0,0,1,2.141,8.052c.028.372.033.586.033.586S639.627,838.2,630.994,838.74Z" transform="translate(-399.577 -447.125)" fill="#3f3d56"/><path d="M630.994,859.269c-6.516.41-7.637-3.6-7.446-6.516,0,0,1.689,2.872,7.707,2.183a16.89,16.89,0,0,0,7.028-2.267c.028.372.033.586.033.586S639.627,858.725,630.994,859.269Z" transform="translate(-399.577 -467.654)" opacity="0.1"/><g transform="translate(231.296 225.237)" opacity="0.1"><path d="M646.147,516.606c-1.336-3.816-2.792-6.981-4.114-7.246l-1.177.121c1.229.661,2.578,3.6,3.812,7.125a73.832,73.832,0,0,1,4.049,24.313v7.772l-.987,12.343s-.791,27.841-1.4,29.321.4,8.489.493,9.974-.693,7.912-.693,7.912-.889,16.094-2.169,17.374,0,4.938,0,4.938a8.844,8.844,0,0,1-4.654,1.717,9.057,9.057,0,0,0,6.148-1.717s-1.285-3.653,0-4.938,2.169-17.374,2.169-17.374.791-6.418.693-7.912-1.084-8.494-.493-9.974,1.4-29.321,1.4-29.321l.987-12.343v-7.772A73.834,73.834,0,0,0,646.147,516.606Z" transform="translate(-639.31 -509.36)"/></g><g transform="translate(188.106 223.771)" opacity="0.1"><path d="M548.288,629.627s1.173-1.089.284-6.223.591-19.054.591-19.054-.2-3.556.791-5.119-.493-4.654-.1-6.022,1.582-8.889,1.582-8.889-.507-18.472-.507-19.463a12.915,12.915,0,0,0-1.4-5.031c-.889-1.582,0-13.031,0-13.031s2.071-5.925,1.4-7.2.465-3.556.465-3.556-1.084-2.667,0-3.16,1.284-2.467,1.284-2.467l.787-9.578s.3-4.342,1.187-4.542.493-1.862,1.4-3.058c.666-.889,1.28-4.393,1.54-6.088a6.153,6.153,0,0,1-1.638-.931s-.791,5.822-1.68,7.009-.493,2.862-1.4,3.058-1.182,4.542-1.182,4.542l-.763,9.583s-.2,1.973-1.285,2.467,0,3.16,0,3.16-1.164,2.271-.465,3.556-1.4,7.2-1.4,7.2-.889,11.454,0,13.031a12.913,12.913,0,0,1,1.4,5.031c0,.991.493,19.449.493,19.449s-1.187,7.507-1.578,8.889,1.084,4.44.1,6.022-.791,5.12-.791,5.12-1.494,13.944-.6,19.063-.284,6.222-.284,6.222a13.6,13.6,0,0,0,7.326,1.559A13.259,13.259,0,0,1,548.288,629.627Z" transform="translate(-546.51 -506.21)"/></g><path d="M598.187,305.917a36.7,36.7,0,0,1,3.076,3.97,5.436,5.436,0,0,0,4.226,2.364,11.34,11.34,0,0,1,1.48-.126,3.188,3.188,0,0,1,1.6.7c2.02,1.508,2.993,4.049,3.444,6.516s.465,5.036,1.136,7.474A3.724,3.724,0,0,0,614.4,329c.908.624,2.113.433,3.216.414a5.681,5.681,0,0,1,4.058,1.34,3.223,3.223,0,0,1,.633,3.984,2.425,2.425,0,0,0-.521.9,1.666,1.666,0,0,0,.465,1.2l3.044,4.142a4.418,4.418,0,0,1,1.177,2.792,2.187,2.187,0,0,1-3.854,1.252c.33,1.029-.684,2.094-1.755,2.234a5.634,5.634,0,0,1-3.086-.81L617.7,348.2c-.894.465-1.838-.465-2.55-1.191s-2.178-1.145-2.518-.2a1.229,1.229,0,0,0,.289,1.154c1.243,1.55,4.156,1.154,5.012,2.951a2.42,2.42,0,0,1-1.485,3.095,4.066,4.066,0,0,1-3.64-.745c-1.038-.745-2.052-2.043-3.407-2.034-1.689,0-2.7,1.955-4.277,2.564a4.365,4.365,0,0,1-4.342-1.261c-1.159-1.089-1.964-2.5-3.034-3.681-2.755-3.039-6.93-4.245-10.821-5.543s-8.01-3.067-10.02-6.641a27.171,27.171,0,0,0-1.768-3.337c-1.312-1.713-3.519-2.513-4.957-4.119a6.362,6.362,0,0,1-.973-6.8,22.776,22.776,0,0,1,2.834-3.826,12.864,12.864,0,0,0,2.527-7.549,9.564,9.564,0,0,1,.219-3.053,4.753,4.753,0,0,1,3.449-2.839,14.175,14.175,0,0,1,4.654-.107,42.679,42.679,0,0,0,5.092.465c1.126-.051,1.992-.931,3.081-1.229A7.527,7.527,0,0,1,598.187,305.917Z" transform="translate(-370.232 -174.338)" fill="#3f3d56"/><g transform="translate(198.606 140.724)" opacity="0.1"><path d="M659.078,330.879c.465,2.481.465,5.036,1.14,7.47a4.709,4.709,0,0,0,.74,1.68c-.056-.163-.107-.33-.149-.493-.647-2.439-.684-4.994-1.136-7.474a13.3,13.3,0,0,0-1.494-4.291,14.763,14.763,0,0,1,.9,3.109Z" transform="translate(-616.708 -327.77)"/><path d="M681.645,364.783a2.391,2.391,0,0,0-.526.931,1.657,1.657,0,0,0,.465,1.191c.042.056.079.112.121.163a.732.732,0,0,1,0-.172,2.44,2.44,0,0,1,.526-.9,3.157,3.157,0,0,0-.284-3.593A2.872,2.872,0,0,1,681.645,364.783Z" transform="translate(-628.971 -346.283)"/><path d="M625.89,386.529a2.546,2.546,0,0,1-1.648,2.513,4.065,4.065,0,0,1-3.639-.749c-1.038-.749-2.052-2.038-3.4-2.029-1.694,0-2.7,1.955-4.282,2.56a4.355,4.355,0,0,1-4.342-1.261c-1.159-1.089-1.964-2.5-3.03-3.677-2.755-3.039-6.93-4.249-10.825-5.548s-7.986-3.058-10-6.618c.182.4.368.787.577,1.164,2.011,3.574,6.125,5.343,10.016,6.641s8.07,2.5,10.825,5.543c1.07,1.182,1.862,2.592,3.03,3.681a4.371,4.371,0,0,0,4.342,1.261c1.582-.61,2.588-2.55,4.282-2.564,1.35,0,2.327,1.229,3.407,2.034a3.909,3.909,0,0,0,3.635.745,2.423,2.423,0,0,0,1.489-3.095A2.179,2.179,0,0,0,625.89,386.529Z" transform="translate(-577.436 -351.265)"/><path d="M675.11,384.87a2.544,2.544,0,0,1,.13.954,2.192,2.192,0,0,1-3.858,1.257c.33,1.024-.684,2.09-1.755,2.234a5.6,5.6,0,0,1-3.086-.81c-.028.582-.051,1.168-.079,1.75-.894.465-1.862-.465-2.546-1.187s-2.178-1.15-2.523-.2a1.233,1.233,0,0,0,.289,1.15,2.384,2.384,0,0,0,.256.275.855.855,0,0,1,.047-.242c.344-.931,1.81-.521,2.523.2s1.652,1.661,2.55,1.191c0-.586.051-1.168.074-1.755a5.856,5.856,0,0,0,3.09.81c1.07-.121,2.085-1.205,1.75-2.234a2.192,2.192,0,0,0,3.858-1.252,3.5,3.5,0,0,0-.721-2.141Z" transform="translate(-618.404 -358.295)"/><path d="M574.566,358.946c-1.308-1.713-3.518-2.509-4.952-4.119a5.383,5.383,0,0,1-.544-.717,5.914,5.914,0,0,0,1.136,1.9c1.433,1.606,3.644,2.406,4.952,4.119a6.32,6.32,0,0,1,.5.763,10.512,10.512,0,0,0-1.089-1.95Z" transform="translate(-569.07 -341.851)"/></g><path d="M594.248,362.39s1.084,12.045-3.854,15.694,10.565,13.627,10.565,13.627l11.752-2.569s-5.729-5.329-5.729-7.6.987-15.009,2.569-16.489S594.248,362.39,594.248,362.39Z" transform="translate(-381.345 -205.554)" fill="#fbbebe"/><path d="M559.183,307.931,556.5,313.8s-4,2.374-4.3,2.592-3.481,3.854-3.481,3.854l-7.851,5.036s-.191-.358-.465-.866a23.447,23.447,0,0,0-1.824-2.913c-.666-.74,0-8.587,0-8.587a6.158,6.158,0,0,0,1-4.961c-.554-3.183-.628-15.7-.628-15.7s-.591-10.518.223-12.738-1.862-9.257-1.862-9.257-7.549-7.5-7.032-9.052,6.3,0,6.3,0a13.027,13.027,0,0,0,3.477,1.261c.717.042,4.547.061,7.484.065h3.477s2.443,8.512,2.15,9.4c-.06.172-.121.344-.177.512-.237.684-.419,1.294-.121,1.708.368.521,1.187,6.814,1.187,6.814l.814,6.814a58.853,58.853,0,0,1,1.182,6.074c-.074.745-1.927,2.294-1.112,3.7s1.117,5.7,1.117,5.7a16.2,16.2,0,0,0,2.7,4.352A2.271,2.271,0,0,0,559.183,307.931Z" transform="translate(-349.714 -151.095)" fill="#6c63ff"/><circle cx="14.218" cy="14.218" r="14.218" transform="translate(207.742 136.409)" opacity="0.1"/><circle cx="14.218" cy="14.218" r="14.218" transform="translate(207.742 135.818)" fill="#fbbebe"/><path d="M601.3,425.473c-1.285,1.4-1.578,14.893-.819,16.094s-3.821,3.556-6.488,3.453-9.964,2.173-9.964,2.173-14.618-3.951-17.685-1.973-7.4-3.556-6.12-5.529-1.4-4.738-1.778-5.822a8.69,8.69,0,0,1-.158-1.4h0c-.358-4.971-.731-20.9-.731-20.9V393.29l13.432-9.48a64.43,64.43,0,0,1,6.232,3.607,30.526,30.526,0,0,1,4.03,3.1c3.658,3.458,12.738,7.111,12.738,7.111s9.974,11.947,11.254,13.134S602.583,424.091,601.3,425.473Z" transform="translate(-364.311 -217.005)" fill="#fff"/><path d="M557.57,425.361V409.64s.41,28.637.731,36.618C557.942,441.288,557.57,425.361,557.57,425.361Z" transform="translate(-364.316 -230.814)" opacity="0.1"/><path d="M559.26,490.86a1.564,1.564,0,0,1,.1.828C559.33,491.828,559.293,491.521,559.26,490.86Z" transform="translate(-365.22 -274.233)" opacity="0.1"/><path d="M577.317,392.5a12.052,12.052,0,0,0-2.146,3.034c-.74,1.629-17.6.3-17.6.3V393.29L571,383.81a64.442,64.442,0,0,1,6.232,3.607C577.317,390.2,577.317,392.5,577.317,392.5Z" transform="translate(-364.316 -217.005)" opacity="0.1"/><path d="M559.26,488.31a1.568,1.568,0,0,1,.1.828C559.33,489.283,559.293,488.976,559.26,488.31Z" transform="translate(-365.22 -272.87)" opacity="0.1"/><path d="M570.839,362.027l-2.685,5.869s-4,2.374-4.3,2.592-3.481,3.854-3.481,3.854l-7.851,5.036s-.191-.358-.465-.866c2.136-2.592,4.319-5.352,5.585-6.32,2.518-1.922-.074-2.146,0-2.518s5.557-2.369,7.037-3.774a62.151,62.151,0,0,1,5.743-4.189A2.275,2.275,0,0,0,570.839,362.027Z" transform="translate(-361.371 -205.191)" opacity="0.1"/><path d="M538.126,362.39a67.048,67.048,0,0,0-6.167,4.44c-1.48,1.406-6.981,3.407-7.037,3.779s2.518.591,0,2.518-8.661,10.956-10.886,11.635-17.4,6.981-17.4,6.981-4.961,4.654-5.7,4.654,4.514,5.036,4.514,5.036,4.738,3.779,5.259,4.37,13.488,7.6,13.488,7.6,2.225.666,2.443,1.331,3.183,2.518,3.183,2.518,3.309,3.8,2.988,5.157-.889-38.629-.889-38.629,16.862,1.331,17.6-.3a12.054,12.054,0,0,1,2.146-3.034s-.047-13.7-.991-14.711S538.144,363.647,538.126,362.39Z" transform="translate(-328.657 -205.554)" fill="#6c63ff"/><path d="M508.2,419.475s4.44,4.812,6.516,5.627a5.609,5.609,0,0,1,2.886,2.965,16.95,16.95,0,0,0,3.779,1.629c1.336.233,3.332,2.22,3.332,2.22s4.961,1.4,4.961,2.443,2,2.448,2,2.448l-.5-28.436s-8.242,1.033-10.611,4.514S508.2,419.475,508.2,419.475Z" transform="translate(-337.923 -230.135)" opacity="0.1"/><path d="M529,422.347c.372-.223,10.481-13.245,10.481-13.245l1.862-.382s-4.8,7.186-4.724,7.777S529,422.347,529,422.347Z" transform="translate(-349.043 -230.322)" opacity="0.1"/><path d="M538.11,429.752s2.667-6.148,3.407-7.186,4.724-8,4.724-8a4.681,4.681,0,0,1,0,1.778C546.031,417.013,538.11,429.752,538.11,429.752Z" transform="translate(-353.913 -233.449)" opacity="0.1"/><path d="M570.206,348.7s-5.925,10.811-5.4,11.333S570.206,348.7,570.206,348.7Z" transform="translate(-368.165 -198.235)" opacity="0.1"/><path d="M575.772,357.93s-4.887,7.144-4.445,7.051S575.772,357.93,575.772,357.93Z" transform="translate(-371.656 -203.17)" opacity="0.1"/><path d="M549.4,235.845l-9.331.666s0-.3-.033-.824c-.13-3.081-.6-13.823-.852-15.023-.3-1.4-.6-3.923-.6-3.923s-5.036-.74-4.961-1.554-6.441-9.48-1.48-9.308c3.872.116,10.49,4.691,13.213,6.7a2.485,2.485,0,0,1,.991,2.3,9.974,9.974,0,0,0-.084,1.769,24.8,24.8,0,0,1-.1,3.672,5.633,5.633,0,0,0,.419,3.114c.689,1.233,1.708,6.348,2.327,9.62C549.2,234.663,549.4,235.845,549.4,235.845Z" transform="translate(-349.729 -121.882)" fill="#fbbebe"/><path d="M561.828,274.891l-.177.507c-2.025-2.006-14.707-3.286-14.707-3.286-1.112-1.294-.116-1.862,1.07-3.444.693-.931,4.85-2.253,8.187-3.188h3.477S562.121,274,561.828,274.891Z" transform="translate(-358.377 -153.747)" opacity="0.1"/><path d="M560.6,267.03l-9.331.666s0-.3-.033-.824a40.619,40.619,0,0,1,7.516-2.662h1.35C560.409,265.848,560.6,267.03,560.6,267.03Z" transform="translate(-360.932 -153.068)" opacity="0.1"/><path d="M561.828,274.251c-.061.172-.121.344-.177.512-2.025-2.011-14.707-3.29-14.707-3.29-1.112-1.294-.116-1.862,1.07-3.439.693-.931,4.85-2.257,8.187-3.193h3.477S562.121,273.362,561.828,274.251Z" transform="translate(-358.377 -153.404)" fill="#6c63ff"/><path d="M596.29,442.57s-1.038,19.919,0,20.883S596.29,442.57,596.29,442.57Z" transform="translate(-384.769 -248.418)" opacity="0.1"/><path d="M612.38,460.55s-.372,21.921,0,22.139S612.38,460.55,612.38,460.55Z" transform="translate(-393.529 -258.03)" opacity="0.1"/><path d="M631,466.12s1.4,15.107,2.667,15.7S631,466.12,631,466.12Z" transform="translate(-403.571 -261.007)" opacity="0.1"/><path d="M652.085,453.508a3.086,3.086,0,0,1-1.187-.465c-1.257-.814-2.667-9.555-4.514-10.737s-8.517-12.813-8.517-12.813a61.121,61.121,0,0,0-3.63-5.85c-1.038-1.2-.517-6.516-.517-6.516a29.017,29.017,0,0,1-3.928-5.85,5.307,5.307,0,0,1-.512-1.9s.4-1.168,1.973,0,5.427,6.125,6.464,6.492a9.284,9.284,0,0,1,3.854,2.89,8.015,8.015,0,0,0,2.294,2.076s1.778,4.514,1.7,5.627.591,8.661,1.4,9.331,2.146,6.734,2.146,6.734S651.568,451.074,652.085,453.508Z" transform="translate(-402.652 -230.394)" opacity="0.1"/><path d="M666.05,444.907V444.6a2.9,2.9,0,0,1,.079.67A1.537,1.537,0,0,1,666.05,444.907Z" transform="translate(-422.309 -249.503)" opacity="0.1"/><path d="M671.291,473.74c-.3.526-.586,1.005-.828,1.4-1.224-1.261-2.6-9.49-4.393-10.635a8.379,8.379,0,0,1-1.629-1.829V452.9a12.559,12.559,0,0,0,.931-1.959c.219,2.644.721,6.562,1.3,7.037.815.666,2.146,6.739,2.146,6.739S670.406,470.32,671.291,473.74Z" transform="translate(-421.448 -252.892)" opacity="0.1"/><path d="M652.725,452.871a2.918,2.918,0,0,1-1.187-.465c-1.261-.814-2.667-9.55-4.519-10.737s-8.512-12.808-8.512-12.808a61.121,61.121,0,0,0-3.63-5.85c-1.038-1.2-.517-6.516-.517-6.516a29.168,29.168,0,0,1-3.928-5.85,5.352,5.352,0,0,1-.512-1.908s.391-1.164,1.973,0,5.427,6.125,6.464,6.492a9.269,9.269,0,0,1,3.849,2.895,7.843,7.843,0,0,0,2.294,2.071s1.778,4.519,1.7,5.627.6,8.666,1.4,9.331,2.146,6.739,2.146,6.739S652.208,450.436,652.725,452.871Z" transform="translate(-402.994 -230.054)" fill="#6c63ff"/><circle cx="1.001" cy="1.001" r="1.001" transform="translate(233.623 193.156)" fill="#3f3d56"/><circle cx="1.001" cy="1.001" r="1.001" transform="translate(240.195 202.153)" fill="#3f3d56"/><path d="M672.228,454.641s-4.817-2.2-4.077-1.015S672.228,454.641,672.228,454.641Z" transform="translate(-423.391 -254.141)" opacity="0.1"/><path d="M672.408,462.184s-4.891-1.331-3.854-.554S672.408,462.184,672.408,462.184Z" transform="translate(-423.57 -258.477)" opacity="0.1"/><path d="M672.221,468.686s-3.332-2.411-2.518-1.522A7.836,7.836,0,0,0,672.221,468.686Z" transform="translate(-424.193 -261.46)" opacity="0.1"/><path d="M680.188,476.14s-3.4,6.683-1.773,7.121S680.188,476.14,680.188,476.14Z" transform="translate(-428.684 -266.364)" opacity="0.1"/><path d="M571.963,711.77s-7.8,7.4-5.529,7.307S571.963,711.77,571.963,711.77Z" transform="translate(-368.833 -392.33)" opacity="0.1"/><path d="M555.24,732.4c.4,0,8.294-.791,6.218-1.187S555.24,732.4,555.24,732.4Z" transform="translate(-363.07 -402.692)" opacity="0.1"/><path d="M637.76,709.23s8.377.293,8.2,1.182S637.76,709.23,637.76,709.23Z" transform="translate(-407.185 -390.972)" opacity="0.1"/><path d="M634.79,716.44s4.836,3.653,5.925,2.467S634.79,716.44,634.79,716.44Z" transform="translate(-405.597 -394.827)" opacity="0.1"/><path d="M574.547,598.992a2.456,2.456,0,0,1-.307.749.757.757,0,0,1-.214.223c-.991.689-3.556,1.973-3.951,1.862-.182-.047-.889-.261-1.666-.465-.908-.265-1.913-.549-2.29-.6s-.6-.652-.652-1.238,0-1.042.247-1.131a.586.586,0,0,0,.209-.307,3.7,3.7,0,0,0,.13-.414l.037-.14c.13-.54.237-1.224.312-1.787.042-.3.07-.572.093-.754v-.214h0v-.037l.652-.033h.619a38.369,38.369,0,0,1,5.645.056,1.588,1.588,0,0,1,1.029,1.182,5.444,5.444,0,0,1,.233,1.336,5.959,5.959,0,0,1-.126,1.713Z" transform="translate(-368.527 -329.709)" fill="#fbbebe"/><path d="M641.878,604.734a.67.67,0,0,0,0,.1c0,1.01-.07,1.773-.07,1.9,0,.391-10.267,3.16-12.831,2.96-1.685-.13-.433-1.285.507-2.476a3.907,3.907,0,0,0,.745-1.261.931.931,0,0,0,0-.507c-.051-.186-.1-.354-.13-.507h0c-.242-1.066-.121-1.4.13-1.657a1.974,1.974,0,0,0,.34-.638,2.549,2.549,0,0,0,.144-.661,2,2,0,0,0-.377-1.429c-.791-1.052,2.965-1.615,2.965-1.615h7.135c.7,0,1.07.987,1.257,2.262a.134.134,0,0,0,0,.042c.051.372.093.768.116,1.173s.042.763.047,1.136S641.878,604.357,641.878,604.734Z" transform="translate(-402.047 -332.012)" fill="#fbbebe"/><path d="M582.431,671.657s-7.912,1.862-7.107,1.4c.3-.191.372-.833.344-1.559a10.375,10.375,0,0,0-.093-1.075c-.1-.824-.251-1.513-.251-1.513s4.147-.889,5.627-.493a1.764,1.764,0,0,1,1.112,1.191,1.7,1.7,0,0,1,.06.163A6.772,6.772,0,0,1,582.431,671.657Z" transform="translate(-373.776 -369.098)" fill="#fbbebe"/><path d="M595.633,325.674a34.2,34.2,0,0,0,3.081-1.5,4.234,4.234,0,0,1,3.314-.326,5.287,5.287,0,0,1,1.452,1.019c.931.824,1.862,1.648,2.737,2.527a16.081,16.081,0,0,0,2.853,2.546c2.443,1.494,5.548,1.159,8.377.712a5.161,5.161,0,0,0,1.652-.465,3.431,3.431,0,0,0,1.429-3.7,8.29,8.29,0,0,0-2.127-3.625,29.785,29.785,0,0,0-9.713-7.186c-3.919-1.8-8.582-2.7-12.492-.889a13.55,13.55,0,0,0-3.258,2.225c-1.359,1.21-4.873,4.286-4.1,6.367C589.7,325.716,593.608,326.353,595.633,325.674Z" transform="translate(-380.975 -179.575)" opacity="0.1"/><path d="M595.633,325.038a33.006,33.006,0,0,0,3.081-1.5,4.254,4.254,0,0,1,3.314-.326,5.5,5.5,0,0,1,1.452,1.019c.931.824,1.862,1.648,2.737,2.527a15.9,15.9,0,0,0,2.853,2.546c2.443,1.494,5.548,1.159,8.377.712a5.043,5.043,0,0,0,1.652-.465,3.428,3.428,0,0,0,1.429-3.7,8.29,8.29,0,0,0-2.127-3.625,29.716,29.716,0,0,0-9.713-7.181c-3.919-1.8-8.582-2.7-12.492-.894a13.683,13.683,0,0,0-3.258,2.225c-1.359,1.21-4.873,4.291-4.1,6.371C589.7,325.084,593.608,325.722,595.633,325.038Z" transform="translate(-380.975 -179.237)" fill="#3f3d56"/><path d="M619.088,338.812a4.994,4.994,0,0,1-1.647.465c-2.83.465-5.929.777-8.377-.712A16.081,16.081,0,0,1,606.2,336c-.875-.884-1.81-1.7-2.737-2.527a5.408,5.408,0,0,0-1.452-1.024,4.245,4.245,0,0,0-3.318.33,32.934,32.934,0,0,1-3.076,1.5c-2.025.68-5.934.042-6.809-2.29a1.747,1.747,0,0,1-.088-.349,1.931,1.931,0,0,0,.088.931c.875,2.327,4.784,2.969,6.809,2.29a33.527,33.527,0,0,0,3.076-1.5,4.242,4.242,0,0,1,3.318-.326,5.289,5.289,0,0,1,1.452,1.019c.931.824,1.862,1.648,2.737,2.527a16.079,16.079,0,0,0,2.853,2.546c2.443,1.494,5.543,1.159,8.377.712a5.119,5.119,0,0,0,1.648-.465,3.307,3.307,0,0,0,1.5-3.193A3.127,3.127,0,0,1,619.088,338.812Z" transform="translate(-380.955 -189.115)" opacity="0.1"/><path d="M567.267,595.463a19.225,19.225,0,0,1-.517,2.648,22.1,22.1,0,0,0,.465-2.681Z" transform="translate(-369.224 -330.136)" opacity="0.1"/><path d="M574.028,599.983c-.991.689-3.556,1.973-3.951,1.862s-3.258-.987-3.956-1.084-.88-2.173-.4-2.369a.587.587,0,0,0,.209-.307,4.015,4.015,0,0,1-.167.414,2.06,2.06,0,0,0,.465,2.173l4.1,1.061,3.867-2.113c.931-1.28-.112-4.231-.642-4.71s-6.874,0-6.874,0l-.14-.135h0v-.037l.652-.033h.619a38.361,38.361,0,0,1,5.645.056C575.015,595.045,575.015,599.295,574.028,599.983Z" transform="translate(-368.53 -329.709)" opacity="0.1"/><path d="M640.445,598.92H633.31s-3.756.563-2.965,1.615a2.386,2.386,0,0,1-.107,2.727c-.284.3-.4.693,0,2.173s-3.835,4.049-1.271,4.245,12.831-2.569,12.831-2.96S642.353,598.92,640.445,598.92Zm.963,7.661c0,.372-9.676,2.974-12.1,2.792s1.578-2.6,1.2-4-.27-1.768,0-2.048a2.251,2.251,0,0,0,.1-2.574c-.745-.991,2.792-1.522,2.792-1.522h6.725C641.929,599.227,641.408,606.208,641.408,606.581Z" transform="translate(-402.041 -332.001)" opacity="0.1"/><path d="M580.953,668.383c-1.48-.4-5.627.493-5.627.493s.791,3.653,0,4.147,7.111-1.4,7.111-1.4S582.437,668.779,580.953,668.383Zm-5.506,4.561c.763-.465,0-4.007,0-4.007s4.007-.856,5.436-.465,1.429,3.146,1.429,3.146S574.679,673.419,575.447,672.944Z" transform="translate(-373.779 -369.082)" opacity="0.1"/><path d="M644.131,607.536l-11.761,1.4h0l11.714-2.523C644.108,606.778,644.126,607.15,644.131,607.536Z" transform="translate(-404.304 -336.005)" opacity="0.1"/><path d="M489.81,582.6l12.217-2.63.261,1.145Z" transform="translate(-261.851 -309.952)" fill="#3f3d56"/><path d="M643.4,611.39a.67.67,0,0,0,0,.1L631,613.871a3.9,3.9,0,0,0,.745-1.261Z" transform="translate(-403.571 -338.668)" opacity="0.1"/><path d="M485.81,586.444,500.7,584.88l-14.5,2.788Z" transform="translate(-259.712 -312.577)" fill="#3f3d56"/><path d="M644.5,603.78l-10.979.782a2.549,2.549,0,0,1-.144.661l11.128-1.4Z" transform="translate(-404.844 -334.599)" opacity="0.1"/><path d="M489.6,578.309l12.478-.889-12.664,1.592Z" transform="translate(-261.637 -308.588)" fill="#3f3d56"/><path d="M575.435,598.558l-8.605.279c.13-.54.237-1.224.312-1.787l8.061.172a5.446,5.446,0,0,1,.233,1.336Z" transform="translate(-369.266 -331.002)" opacity="0.1"/><path d="M423.12,570.76l11.738.247-1.433,1.252-10.3.33Z" transform="translate(-226.199 -305.028)" fill="#3f3d56"/><path d="M574.57,604a2.455,2.455,0,0,1-.307.749l-5.832,1.615c-.908-.265-1.913-.549-2.29-.6s-.6-.652-.652-1.238Z" transform="translate(-368.55 -334.717)" opacity="0.1"/><path d="M419.81,578.216l13.674-.8-12.538,3.472Z" transform="translate(-224.429 -308.588)" fill="#3f3d56"/><path d="M582.478,671.223l-6.455,1.727a10.361,10.361,0,0,0-.093-1.075c1.8-.242,4.8-.61,6.488-.814a1.681,1.681,0,0,1,.06.163Z" transform="translate(-374.131 -370.567)" opacity="0.1"/><path d="M572.74,671.272c.247-.1,9.234-1.182,9.234-1.182l-9.234,2.467Z" transform="translate(-372.426 -370.048)" fill="#3f3d56"/><circle cx="10.067" cy="10.067" r="10.067" transform="translate(336.218 34.387)" fill="#6c63ff"/><circle cx="7.917" cy="7.917" r="7.917" transform="translate(383.052 61.2)" fill="#6c63ff"/><circle cx="10.067" cy="10.067" r="10.067" transform="translate(336.218 34.387)" opacity="0.4"/><circle cx="7.917" cy="7.917" r="7.917" transform="translate(383.052 61.2)" opacity="0.4"/><circle cx="25.407" cy="25.407" r="25.407" transform="translate(35.839 43.71)" fill="#6c63ff"/><circle cx="25.407" cy="25.407" r="25.407" transform="translate(35.839 43.71)" opacity="0.4"/><circle cx="2.792" cy="2.792" r="2.792" transform="translate(385.839 30.971)" fill="#6c63ff"/><circle cx="2.792" cy="2.792" r="2.792" transform="translate(385.839 30.971)" opacity="0.4"/><path d="M451.856,788s2.895,3.784-1.336,9.5-7.716,10.537-6.306,14.1c0,0,6.381-10.611,11.575-10.76S457.558,794.385,451.856,788Z" transform="translate(-303.547 -433.082)" fill="#6c63ff"/><path d="M452.046,788a4.656,4.656,0,0,1,.591,1.187c5.068,5.957,7.768,11.514,2.9,11.635-4.538.126-9.983,8.242-11.286,10.29a4.254,4.254,0,0,0,.154.465s6.381-10.611,11.575-10.76S457.747,794.385,452.046,788Z" transform="translate(-303.736 -433.082)" opacity="0.1"/><path d="M471.766,797.4c0,1.331-.149,2.411-.335,2.411s-.33-1.08-.33-2.411.186-.707.368-.707S471.766,796.062,471.766,797.4Z" transform="translate(-318.09 -437.649)" fill="#ffd037"/><path d="M473.879,800.742c-1.168.638-2.192,1.024-2.276.861s.787-.81,1.955-1.447.707-.172.8,0S475.043,800.1,473.879,800.742Z" transform="translate(-318.356 -439.406)" fill="#ffd037"/><path d="M420.67,788s-2.895,3.784,1.336,9.5,7.716,10.537,6.306,14.1c0,0-6.381-10.611-11.575-10.76S414.955,794.385,420.67,788Z" transform="translate(-287.659 -433.082)" fill="#6c63ff"/><path d="M420.67,788a4.653,4.653,0,0,0-.591,1.187c-5.068,5.957-7.768,11.514-2.9,11.635,4.538.126,9.983,8.242,11.286,10.29a4.267,4.267,0,0,1-.154.465s-6.381-10.611-11.575-10.76S414.955,794.385,420.67,788Z" transform="translate(-287.659 -433.082)" opacity="0.1"/><path d="M416.57,797.4c0,1.331.149,2.411.335,2.411s.33-1.08.33-2.411-.186-.707-.368-.707S416.57,796.062,416.57,797.4Z" transform="translate(-288.939 -437.649)" fill="#ffd037"/><path d="M411.785,800.742c1.168.638,2.187,1.024,2.276.861s-.787-.81-1.955-1.447-.707-.172-.8,0S410.617,800.1,411.785,800.742Z" transform="translate(-286.001 -439.406)" fill="#ffd037"/><path d="M418.55,832.627s8.089-.247,10.528-1.987,12.45-3.807,13.055-1.024,12.156,13.851,3.02,13.925-21.223-1.424-23.657-2.9S418.55,832.627,418.55,832.627Z" transform="translate(-289.997 -454.601)" fill="#ff5f5f"/><path d="M445.316,847.565c-9.131.074-21.223-1.424-23.657-2.9-1.862-1.131-2.592-5.185-2.839-7.051h-.27s.512,6.516,2.946,8.01,14.525,2.979,23.657,2.9c2.639,0,3.551-.959,3.5-2.35C448.285,847.035,447.28,847.565,445.316,847.565Z" transform="translate(-289.997 -459.603)" opacity="0.2"/><path d="M812.2,785.8s-5.171-17.56.968-30.484a27.733,27.733,0,0,0,2.243-17.4,46.694,46.694,0,0,0-2.462-8.168" transform="translate(-499.352 -401.942)" fill="none" stroke="#535461" stroke-miterlimit="10" stroke-width="2"/><path d="M815.406,707.875c0,2.155-3.9,8.377-3.9,8.377s-3.9-6.241-3.9-8.377a3.9,3.9,0,0,1,7.8,0Z" transform="translate(-497.986 -388.235)" fill="#6c63ff"/><path d="M829.2,730.91c-1.168,1.806-7.833,4.924-7.833,4.924s.121-7.353,1.289-9.159a3.9,3.9,0,1,1,6.544,4.235Z" transform="translate(-505.342 -399.347)" fill="#6c63ff"/><path d="M826.968,773.114c-1.917.968-9.248.3-9.248.3s3.821-6.288,5.738-7.26a3.907,3.907,0,0,1,3.509,6.981Z" transform="translate(-503.391 -421.179)" fill="#6c63ff"/><path d="M819.266,806.525c-1.731,1.28-9.066,1.862-9.066,1.862s2.7-6.841,4.431-8.121a3.9,3.9,0,0,1,4.654,6.264Z" transform="translate(-499.37 -439.227)" fill="#6c63ff"/><path d="M802.435,741.613c1.545,1.5,8.736,3.053,8.736,3.053s-1.764-7.144-3.3-8.643a3.9,3.9,0,1,0-5.432,5.585Z" transform="translate(-494.588 -404.706)" fill="#6c63ff"/><path d="M792.653,779.58c1.922.968,9.248.3,9.248.3s-3.816-6.288-5.739-7.26a3.9,3.9,0,0,0-3.509,6.962Z" transform="translate(-488.898 -424.662)" fill="#6c63ff"/><path d="M789.832,818.76c1.727,1.28,9.061,1.862,9.061,1.862s-2.7-6.846-4.431-8.126a3.9,3.9,0,0,0-4.654,6.269Z" transform="translate(-487.626 -445.766)" fill="#6c63ff"/><path d="M815.406,707.875c0,2.155-3.9,8.377-3.9,8.377s-3.9-6.241-3.9-8.377a3.9,3.9,0,0,1,7.8,0Z" transform="translate(-497.986 -388.235)" fill="#6c63ff"/><path d="M829.2,730.91c-1.168,1.806-7.833,4.924-7.833,4.924s.121-7.353,1.289-9.159a3.9,3.9,0,1,1,6.544,4.235Z" transform="translate(-505.342 -399.347)" fill="#6c63ff"/><path d="M826.968,773.114c-1.917.968-9.248.3-9.248.3s3.821-6.288,5.738-7.26a3.907,3.907,0,0,1,3.509,6.981Z" transform="translate(-503.391 -421.179)" fill="#6c63ff"/><path d="M819.266,806.525c-1.731,1.28-9.066,1.862-9.066,1.862s2.7-6.841,4.431-8.121a3.9,3.9,0,0,1,4.654,6.264Z" transform="translate(-499.37 -439.227)" fill="#6c63ff"/><path d="M802.435,741.613c1.545,1.5,8.736,3.053,8.736,3.053s-1.764-7.144-3.3-8.643a3.9,3.9,0,1,0-5.432,5.585Z" transform="translate(-494.588 -404.706)" fill="#6c63ff"/><path d="M792.653,779.58c1.922.968,9.248.3,9.248.3s-3.816-6.288-5.739-7.26a3.9,3.9,0,0,0-3.509,6.962Z" transform="translate(-488.898 -424.662)" fill="#6c63ff"/><path d="M789.832,818.76c1.727,1.28,9.061,1.862,9.061,1.862s-2.7-6.846-4.431-8.126a3.9,3.9,0,0,0-4.654,6.269Z" transform="translate(-487.626 -445.766)" fill="#6c63ff"/><path d="M788.27,840.756s6.3-1.252,7.977-2.918,9.238-4.584,10.081-2.5,11.333,9.169,4.189,10.42-16.8,1.666-18.9.833S788.27,840.756,788.27,840.756Z" transform="translate(-487.647 -458.002)" fill="#ff5f5f"/><path d="M810.526,851.972c-7.139,1.252-16.8,1.671-18.9.838-1.6-.638-2.709-3.686-3.151-5.119l-.209.042s1.261,5,3.36,5.836,11.756.419,18.9-.833c2.057-.363,2.648-1.21,2.425-2.281C812.774,851.167,812.057,851.706,810.526,851.972Z" transform="translate(-487.647 -464.992)" opacity="0.2"/><path d="M271.315,99.614v.168a.535.535,0,0,0,0,.088v.5a.061.061,0,0,1,0,.028v.3l-.042.326a1.083,1.083,0,0,1-.037.214h0a.858.858,0,0,0,0,.107v.065a.234.234,0,0,1,0,.056.2.2,0,0,1-.023.112c-.023.037,0,.074-.023.112s0,.056,0,.084a1.451,1.451,0,0,1-.033.144h0a.74.74,0,0,1-.023.1,1.159,1.159,0,0,1-.033.121.549.549,0,0,1-.037.144.111.111,0,0,0,0,.037.461.461,0,0,1-.047.149c-.042.149-.093.3-.144.465,0,.047-.037.093-.051.14a.512.512,0,0,1-.033.079,10.123,10.123,0,0,1-1.359,2.485l-.107.14a10.308,10.308,0,0,1-.875,1l-14.665,14.539L239.262,106.79a10.346,10.346,0,0,1-1.14-1.354,10,10,0,0,1-.591-.931,10.29,10.29,0,0,1-1.243-5.836,3.8,3.8,0,0,1,.065-.558q.07-.465.182-.977a.682.682,0,0,1,.051-.191l.028-.1v-.056l.042-.149h0c.033-.112.07-.223.107-.335s.033-.1.051-.154c.074-.219.158-.433.251-.647l.056-.126.084-.191.149-.307h0c0-.047.047-.093.074-.14a1.244,1.244,0,0,1,.084-.154c.033-.065.07-.126.107-.191a.932.932,0,0,0,.051-.093.191.191,0,0,0,.033-.051h0l.07-.112c.028-.042.051-.084.079-.121l.186-.279.065-.093.084-.116.088-.121.112-.144.1-.121.037-.047.07-.084a1.611,1.611,0,0,1,.116-.135.684.684,0,0,1,.047-.06h0l.084-.1.1-.107c.088-.1.182-.2.279-.289l.112-.112.172-.163.116-.107.14-.121.088-.079.093-.074.182-.149.093-.074c.158-.121.316-.237.465-.344l.093-.065.1-.065.093-.061.135-.084.07-.042.1-.061c.135-.074.27-.154.4-.223l.079-.042.126-.065.1-.047.107-.051.1-.051.1-.047.107-.047c.14-.061.284-.116.424-.168l.107-.042.112-.042.1-.033.084-.028.2-.065.158-.107.079-.023h.079l.144-.042.186-.047c.191-.047.386-.088.582-.126h.531c.186,0,.372-.042.563-.056H247.3c.154,0,.3.028.465.042l.2.028h.433c.2.037.386.079.577.126l.237.061h.065l.1.028.2.056.084.028.424.144.093.037.126.047.2.079.214.093.084.037.121.056.1.051.1.047.13.07.1.051.237.13.1.056.344.209.093.061.1.065.093.065h0l.065.042.4.3.093.074.182.149.093.074.088.079.14.121.116.107.172.163.112.112.116-.112c.056-.056.112-.112.172-.163a1.27,1.27,0,0,1,.116-.107l.135-.121.093-.079.088-.074.186-.149.093-.074c.158-.121.316-.237.465-.344l.1-.065.1-.065.093-.061.135-.084.07-.042.1-.061c.135-.074.27-.154.4-.223l.079-.042.126-.065.1-.047.1-.051.107-.051.1-.047.107-.047c.14-.061.279-.116.424-.168l.1-.042.116-.042.1-.033.084-.028.2-.065.1-.028.084-.023h.079l.14-.042.186-.047q.293-.07.586-.126h.526c.186,0,.377-.042.563-.056h1.559l.465.042.2.028h.437c.191.037.386.079.577.126l.237.061h.065l.1.028.2.056.084.028.424.144.093.037.126.047.191.079.219.093.084.037.116.056.1.051.107.047.126.07.1.051.237.13.1.056.344.209.088.061.1.065.1.074h0l.06.042c.14.1.275.2.4.3a.725.725,0,0,1,.093.074c.065.047.126.1.186.149l.093.074.088.079.121.1.116.107.065.065h0l.112.107.051.051.061.061.112.112.172.182a1.023,1.023,0,0,1,.093.107c.056.056.107.116.163.177l.168.2a8.339,8.339,0,0,1,.535.726.7.7,0,0,1,.1.079.872.872,0,0,1,.074.107l.06.1.1.163.088.154.051.093.042.074.042.074.061.112.056.112c.135.261.256.531.368.8l.047.116c.042.112.084.223.121.335a.931.931,0,0,1,.037.1.524.524,0,0,0,.047.144l.042.13.028.084a.477.477,0,0,0,.033.116l.042.149c.023.079.042.163.061.242s.023.084.033.126.023.116.037.177a.463.463,0,0,0,0,.079v1.345h0a141.945,141.945,0,0,1,0,.186v.154h0v.158Z" transform="translate(-192.541 -59.599)" fill="#ff6584"/><path d="M271.651,99.614v.168a.535.535,0,0,0,0,.088v.5a.061.061,0,0,1,0,.028v.3l-.042.326a1.085,1.085,0,0,1-.037.214h0a.864.864,0,0,0,0,.107v.065a.234.234,0,0,1,0,.056.2.2,0,0,1-.023.112c-.023.037,0,.074-.023.112s0,.056,0,.084a1.449,1.449,0,0,1-.033.144h0a.745.745,0,0,1-.023.1,1.167,1.167,0,0,1-.033.121.55.55,0,0,1-.037.144.111.111,0,0,0,0,.037.461.461,0,0,1-.047.149c-.042.149-.093.3-.144.465,0,.047-.037.093-.051.14a.515.515,0,0,1-.033.079,10.239,10.239,0,0,0-2.723-9.666,10.407,10.407,0,0,0-1.755-1.4c-.186-.116-.372-.228-.563-.33a10.239,10.239,0,0,0-11,.61,9.861,9.861,0,0,0-1.34,1.131,11.253,11.253,0,0,0-1.257-1.07h0a10.665,10.665,0,0,0-1.061-.67,10.281,10.281,0,0,0-9.89,0,10.629,10.629,0,0,0-1.461.973,10.411,10.411,0,0,0-1.983,2.1c-.2.289-.4.586-.568.889h0a9.658,9.658,0,0,0-.437.88c-.074.163-.144.33-.209.5a.682.682,0,0,1,.051-.191l.028-.1v-.056L237,96.6h0c.033-.112.07-.223.107-.335s.033-.1.051-.154c.074-.219.158-.433.251-.647l.056-.126.084-.191.149-.307h0c0-.047.047-.093.074-.14a1.246,1.246,0,0,1,.084-.154c.033-.065.07-.126.107-.191a.934.934,0,0,0,.051-.093.191.191,0,0,0,.033-.051h0l.07-.112c.028-.042.051-.084.079-.121l.186-.279.065-.093.084-.116.088-.121.112-.144.1-.121.037-.047.07-.084a1.616,1.616,0,0,1,.116-.135.683.683,0,0,1,.047-.06h0l.084-.1.1-.107c.088-.1.182-.2.279-.289l.112-.112.172-.163.116-.107.14-.121.088-.079.093-.074.182-.149.093-.074c.158-.121.316-.237.465-.344L241.12,91l.1-.065.093-.061.135-.084.07-.042.1-.061c.135-.074.27-.154.4-.223l.079-.042.126-.065.1-.047.107-.051.1-.051.1-.047.107-.047c.14-.061.284-.116.424-.168l.107-.042.112-.042.1-.033.084-.028.2-.065.149-.074L244,89.64h.079l.144-.042.186-.047c.191-.047.386-.088.582-.126h.531c.186,0,.372-.042.563-.056h1.559c.154,0,.3.028.465.042l.2.028h.433c.2.037.386.079.577.126l.237.061h.065l.1.028.2.056.084.028.424.144.093.037.126.047.2.079.214.093.084.037.121.056.1.051.1.047.13.07.1.051.237.13.1.056.344.209.093.061.1.065.093.065h0l.065.042.4.3.093.074.182.149.093.074.088.079.14.121.116.107.172.163.112.112.116-.112c.056-.056.112-.112.172-.163a1.27,1.27,0,0,1,.116-.107l.135-.121.093-.079.088-.074.186-.149.093-.074c.158-.121.316-.237.465-.344l.1-.065.1-.065.093-.061.135-.084.07-.042.1-.061c.135-.074.27-.154.4-.223l.079-.042.126-.065.1-.047.1-.051.107-.051.1-.047.107-.047c.14-.061.279-.116.424-.168l.1-.042.116-.042.1-.033.084-.028.2-.065.1-.028.084-.023h.079l.14-.042.186-.047q.293-.07.586-.126h.526c.186,0,.377-.042.563-.056h1.559l.465.042.2.028h.437c.191.037.386.079.577.126l.237.061h.065l.1.028.2.056.084.028.424.144.093.037.126.047.191.079.219.093.084.037.116.056.1.051.107.047.126.07.1.051.237.13.1.056.344.209.088.061.1.065.1.074h0l.06.042c.14.1.275.2.4.3a.725.725,0,0,1,.093.074c.065.047.126.1.186.149l.093.074.088.079.121.1.116.107.065.065h0l.112.107.051.051.061.061.112.112.172.182a1.019,1.019,0,0,1,.093.107c.056.056.107.116.163.177l.168.2a8.345,8.345,0,0,1,.535.726.7.7,0,0,1,.1.079.873.873,0,0,1,.074.107l.06.1.1.163.088.154.051.093.042.074.042.074.061.112.056.112c.135.261.256.531.368.8l.047.116c.042.112.084.223.121.335a.937.937,0,0,1,.037.1.523.523,0,0,0,.047.144l.042.13.028.084a.477.477,0,0,0,.033.116l.042.149c.023.079.042.163.06.242s.023.084.033.126.023.116.037.177a.463.463,0,0,0,0,.079v1.345h0a.623.623,0,0,1,0,.093.623.623,0,0,1,0,.093v.154h0v.158Z" transform="translate(-192.877 -59.599)" opacity="0.1"/></g></svg>