<svg xmlns="http://www.w3.org/2000/svg" xmlns:xlink="http://www.w3.org/1999/xlink" width="588.146" height="572.633" viewBox="0 0 588.146 572.633">
  <defs>
    <linearGradient id="linear-gradient" x1="0.5" y1="1" x2="0.5" gradientUnits="objectBoundingBox">
      <stop offset="0" stop-color="gray" stop-opacity="0.251"/>
      <stop offset="0.54" stop-color="gray" stop-opacity="0.122"/>
      <stop offset="1" stop-color="gray" stop-opacity="0.102"/>
    </linearGradient>
    <linearGradient id="linear-gradient-2" x1="0.5" y1="1" x2="0.5" y2="0" xlink:href="#linear-gradient"/>
    <linearGradient id="linear-gradient-3" x1="0.476" y1="1.359" x2="0.476" y2="-0.307" xlink:href="#linear-gradient"/>
    <linearGradient id="linear-gradient-4" x1="0.5" y1="1" x2="0.5" y2="0" xlink:href="#linear-gradient"/>
    <linearGradient id="linear-gradient-5" x1="0.483" y1="1.252" x2="0.483" y2="-0.157" xlink:href="#linear-gradient"/>
    <linearGradient id="linear-gradient-6" x1="0.5" y1="1" x2="0.5" y2="0.001" xlink:href="#linear-gradient"/>
    <linearGradient id="linear-gradient-7" x1="0.499" y1="1.002" x2="0.499" y2="0" xlink:href="#linear-gradient"/>
    <linearGradient id="linear-gradient-8" x1="0.5" y1="1" x2="0.5" y2="0" xlink:href="#linear-gradient"/>
  </defs>
  <g id="Group_46" data-name="Group 46" transform="translate(-0.052 -0.03)">
    <path id="Path_261" data-name="Path 261" d="M806.2,192.651l.31-.043c-9.7-29.71-30.6-29.241-36.191-28.549a24.952,24.952,0,0,0-7.937-1.29h-.49v-6.777l.764-.3a12.327,12.327,0,0,0-.663-3.266,33.639,33.639,0,0,0,14.736-11.65,37.9,37.9,0,0,0-7.483-58.4,7.3,7.3,0,0,0,.483-.606,7.253,7.253,0,0,0-3.807-13.1,14.512,14.512,0,0,0-22.594-16.863,14.513,14.513,0,0,1,21.325,12.811V65.1a14.512,14.512,0,1,0-28.117,5.335,7.26,7.26,0,0,0-4.8,10.627,37.9,37.9,0,0,0-9.242,60.285,33.646,33.646,0,0,0,13.7,10.814v10.6a24.923,24.923,0,0,0-8.305,1.514s-26.336-6.157-37.6,28.318h0c-4.765,12.631-8.485,31.649-9.6,60.112,0,0,2.112,22.464,36.234,1.218l1.557,19.033h.274v6.445H718.4l.274.541v.173C691.1,303.913,701.6,503.548,701.6,503.548l15.19-37.316c1.341,14.419.209,30.8-.57,39.1h-.959l-1.146,17.7a3.107,3.107,0,0,0,3.086,3.5h23.474a1.608,1.608,0,0,0,1.442-2.329l-4.066-8.132a23.95,23.95,0,0,1-2.523-11.268L737.62,415.1l5.414-13.3,19.7-33.343,3.15,135.471a23.949,23.949,0,0,1-2.523,11.268l-4.066,8.132a1.608,1.608,0,0,0,1.442,2.329H784.2a3.1,3.1,0,0,0,2.538-1.319l.548,4.326h0l-.548-4.326a3.093,3.093,0,0,0,.548-2.163l-1.146-16.812-.88-.065c-.944-9.776-2.631-33.12.721-49.514a360.321,360.321,0,0,0,6.2-48.079l3.742-55.858h.591l.2-3.742.872.043s10.915-44.4-16.7-68.064h-.49l.346-.685h-.952v-6.452h1.377l1.276-17.641c32.082,19.292,33.3-2.61,33.3-2.61C814.666,224.286,810.946,205.3,806.2,192.651ZM771.093,76.7v.4a7.26,7.26,0,0,0-6.027-6.741q.209-.36.4-.721a7.26,7.26,0,0,1,5.623,7.065ZM703.116,238.351,712.754,204l2.329,28.412Zm80.976-5.378,1.831-25.413,11.384,31.627Z" transform="translate(-328.409 -48.47)" opacity="0.5" fill="url(#linear-gradient)"/>
    <circle id="Ellipse_29" data-name="Ellipse 29" cx="36.263" cy="36.263" r="36.263" transform="translate(384.605 37.382)" fill="#f55f44"/>
    <path id="Path_262" data-name="Path 262" d="M815.395,609.977s-3.929-31.447.216-51.763a344.738,344.738,0,0,0,5.933-46l4.744-70.81-33.538,6.287,3.641,156.595" transform="translate(-359.683 -158.114)" fill="#fda57d"/>
    <path id="Path_263" data-name="Path 263" d="M795.3,667.33a22.912,22.912,0,0,1-2.415,10.814L789,685.923a1.543,1.543,0,0,0,1.377,2.228h22.443a2.977,2.977,0,0,0,2.949-3.345l-1.1-16.084" transform="translate(-358.591 -221.163)" fill="#333"/>
    <path id="Path_264" data-name="Path 264" d="M726.943,611.147s3.929-31.447-.216-51.763a344.741,344.741,0,0,1-5.933-46l-4.744-70.81,33.538,6.287-3.641,156.595" transform="translate(-338.279 -158.44)" fill="#fda57d"/>
    <path id="Path_265" data-name="Path 265" d="M749.589,668.51A22.912,22.912,0,0,0,752,679.324l3.886,7.779a1.543,1.543,0,0,1-1.377,2.228H732.07a2.977,2.977,0,0,1-2.949-3.345l1.1-16.935" transform="translate(-341.92 -221.492)" fill="#333"/>
    <rect id="Rectangle_17" data-name="Rectangle 17" width="58.497" height="22.645" transform="translate(391.555 217.868)" fill="#fda57d"/>
    <path id="Path_266" data-name="Path 266" d="M633.16,643.96v.007l.7,5.594h0Z" transform="translate(-176.677 -179.697)"/>
    <path id="Path_267" data-name="Path 267" d="M601.454,411.736l32.168.988.6-11.124-33.531,6.287Z" transform="translate(-167.616 -112.063)" opacity="0.05"/>
    <path id="Path_268" data-name="Path 268" d="M557.027,411.736l-32.168.988-.6-11.124,33.531,6.287Z" transform="translate(-146.287 -112.063)" opacity="0.05"/>
    <path id="Path_269" data-name="Path 269" d="M792.3,319.98H732.213l-6.683-81.531a23.9,23.9,0,0,1,23.9-23.9H774.28a23.9,23.9,0,0,1,23.9,23.9Z" transform="translate(-340.925 -94.809)" fill="#6c63ff"/>
    <rect id="Rectangle_18" data-name="Rectangle 18" width="24.649" height="33.891" rx="9.6" transform="translate(408.238 98.849)" fill="#fda57d"/>
    <path id="Path_270" data-name="Path 270" d="M734.8,369.34l21.051,41.252h15.068v22.666l39.652,1.889s10.446-42.478-15.976-65.122Z" transform="translate(-343.512 -138.005)" fill="#6c63ff"/>
    <path id="Path_271" data-name="Path 271" d="M787.519,369.34,766.5,410.592l15.709,23.719L751.4,486.456l-39.651,97.327s-10.093-191.149,16.358-213.794Z" transform="translate(-336.551 -138.005)" fill="#6c63ff"/>
    <g id="Group_18" data-name="Group 18" transform="translate(385.37 131.132)" opacity="0.05">
      <path id="Path_272" data-name="Path 272" d="M733.612,234.077a24.044,24.044,0,0,1,1.053-3.727,23.841,23.841,0,0,0-8.074,17.9l2.278,27.778Z" transform="translate(-726.59 -230.35)"/>
    </g>
    <g id="Group_19" data-name="Group 19" transform="translate(447.983 139.603)" opacity="0.05">
      <path id="Path_273" data-name="Path 273" d="M814.493,245.827a24.046,24.046,0,0,0-1.053-3.727,23.842,23.842,0,0,1,8.075,17.9l-2.278,27.778Z" transform="translate(-813.44 -242.1)"/>
    </g>
    <path id="Path_274" data-name="Path 274" d="M821.513,232.62c7.93,9.906,15.32,30.409,16.949,71.892,0,0-1.889,33.971-64.163-22.645L772.41,243.78h0a1.377,1.377,0,0,1,1.658-1.355,7.548,7.548,0,0,1,5.89,7.361V272.43l40.827,19.1-18.153-50.4C800.707,230.255,814.6,223.968,821.513,232.62Z" transform="translate(-354.007 -98.719)" fill="#fda57d"/>
    <path id="Path_275" data-name="Path 275" d="M801.82,216.4s25.233-5.89,35.968,27.093l-25.024,3.324Z" transform="translate(-362.214 -95.212)" fill="#6c63ff"/>
    <path id="Path_276" data-name="Path 276" d="M705.593,227.585c-9.257,7.75-19.047,27.583-20.943,76.037,0,0,3.158,33.625,65.432-22.991l.613-37.741h0a1.377,1.377,0,0,0-1.658-1.355,7.548,7.548,0,0,0-5.89,7.354v22.645L706.17,289.874,721.1,236.633C722.651,227.909,712.406,221.875,705.593,227.585Z" transform="translate(-329.517 -97.822)" fill="#fda57d"/>
    <path id="Path_277" data-name="Path 277" d="M733.358,216.4s-25.233-5.89-35.968,27.093l25.435,2.941Z" transform="translate(-333.072 -95.212)" fill="#6c63ff"/>
    <rect id="Rectangle_19" data-name="Rectangle 19" width="0.771" height="38.512" transform="translate(419.794 144.297)" opacity="0.05"/>
    <path id="Path_278" data-name="Path 278" d="M772.108,203.185a31.973,31.973,0,0,0,11.917-2.3,11.809,11.809,0,0,0-11.78-11.045h-1.009a11.816,11.816,0,0,0-11.765,10.747,31.966,31.966,0,0,0,12.638,2.6Z" transform="translate(-350.396 -87.913)" opacity="0.05"/>
    <circle id="Ellipse_30" data-name="Ellipse 30" cx="32.082" cy="32.082" r="32.082" transform="translate(388.852 48.03)" fill="#fda57d"/>
    <circle id="Ellipse_31" data-name="Ellipse 31" cx="6.943" cy="6.943" r="6.943" transform="translate(403.126 31.21)" fill="#f55f44"/>
    <circle id="Ellipse_32" data-name="Ellipse 32" cx="6.943" cy="6.943" r="6.943" transform="translate(427.811 31.21)" fill="#f55f44"/>
    <circle id="Ellipse_33" data-name="Ellipse 33" cx="13.885" cy="13.885" r="13.885" transform="translate(407.755 12.697)" fill="#f55f44"/>
    <path id="Path_279" data-name="Path 279" d="M795.731,89.61a6.914,6.914,0,0,0-3.871,1.182,6.943,6.943,0,0,1,6.207,12.3,6.943,6.943,0,0,0-2.329-13.474Z" transform="translate(-359.435 -59.942)" fill="#f55f44"/>
    <path id="Path_280" data-name="Path 280" d="M776.682,62.86a13.827,13.827,0,0,0-8.831,3.172A13.885,13.885,0,0,1,783.2,89.008,13.885,13.885,0,0,0,776.71,62.86Z" transform="translate(-352.735 -52.477)" fill="#f55f44"/>
    <path id="Path_281" data-name="Path 281" d="M743.72,115.987s3.857,25.456,52.463,11.571L772.269,106.73Z" transform="translate(-346.001 -64.72)" fill="#f55f44"/>
    <path id="Path_282" data-name="Path 282" d="M560.109,500.2,540.99,550.608v1.737l19.119-48.67Z" transform="translate(-150.956 -139.579)" opacity="0.05"/>
    <g id="Group_20" data-name="Group 20" transform="translate(559.598 195.123)" opacity="0.5">
      <rect id="Rectangle_20" data-name="Rectangle 20" width="1.067" height="6.049" transform="translate(2.495)" fill="#47e6b1"/>
      <rect id="Rectangle_21" data-name="Rectangle 21" width="1.067" height="6.049" transform="translate(6.049 2.494) rotate(90)" fill="#47e6b1"/>
    </g>
    <g id="Group_21" data-name="Group 21" transform="translate(307.27 327.054)" opacity="0.5">
      <rect id="Rectangle_22" data-name="Rectangle 22" width="1.067" height="6.049" transform="translate(2.494)" fill="#47e6b1"/>
      <rect id="Rectangle_23" data-name="Rectangle 23" width="1.067" height="6.049" transform="translate(6.049 2.494) rotate(90)" fill="#47e6b1"/>
    </g>
    <g id="Group_22" data-name="Group 22" transform="translate(73.658 373.749)" opacity="0.5">
      <rect id="Rectangle_24" data-name="Rectangle 24" width="1.067" height="6.049" transform="translate(2.494)" fill="#47e6b1"/>
      <rect id="Rectangle_25" data-name="Rectangle 25" width="1.067" height="6.049" transform="translate(6.049 2.487) rotate(90)" fill="#47e6b1"/>
    </g>
    <g id="Group_23" data-name="Group 23" transform="translate(319.649 392.501)" opacity="0.5">
      <rect id="Rectangle_26" data-name="Rectangle 26" width="1.067" height="6.049" transform="translate(2.487)" fill="#47e6b1"/>
      <rect id="Rectangle_27" data-name="Rectangle 27" width="1.067" height="6.049" transform="translate(6.049 2.487) rotate(90)" fill="#47e6b1"/>
    </g>
    <path id="Path_283" data-name="Path 283" d="M748.225,807.337a1.3,1.3,0,0,1-.721-1.579.623.623,0,0,0,0-.144h0a.656.656,0,0,0-1.175-.433h0a.624.624,0,0,0-.072.13,1.3,1.3,0,0,1-1.579.721h-.144a.656.656,0,0,0-.432,1.175h0a.627.627,0,0,0,.13.072,1.3,1.3,0,0,1,.721,1.579.623.623,0,0,0,0,.144h0a.656.656,0,0,0,1.175.433h0a.626.626,0,0,0,.072-.13,1.3,1.3,0,0,1,1.579-.721h.144a.656.656,0,0,0,.432-1.175h0a.623.623,0,0,0-.13-.072Z" transform="translate(-346.036 -259.56)" fill="#4d8af0" opacity="0.5"/>
    <path id="Path_284" data-name="Path 284" d="M979.835,507.146a1.3,1.3,0,0,1-.721-1.579.626.626,0,0,0,0-.144h0a.656.656,0,0,0-1.175-.433h0a.626.626,0,0,0-.072.13,1.305,1.305,0,0,1-1.579.721h-.144a.656.656,0,0,0-.432,1.175h0a.626.626,0,0,0,.13.072,1.3,1.3,0,0,1,.721,1.579.634.634,0,0,0,0,.144h0a.656.656,0,0,0,1.175.432h0a.633.633,0,0,0,.072-.13,1.3,1.3,0,0,1,1.579-.721h.144a.656.656,0,0,0,.432-1.175h0a.631.631,0,0,0-.13-.072Z" transform="translate(-410.669 -175.788)" fill="#4d8af0" opacity="0.5"/>
    <path id="Path_285" data-name="Path 285" d="M346.165,351.687a1.3,1.3,0,0,1-.721-1.579.628.628,0,0,0,0-.144h0a.656.656,0,0,0-1.175-.433h0a.629.629,0,0,0-.072.13,1.3,1.3,0,0,1-1.579.721h-.144a.656.656,0,0,0-.433,1.175h0a.626.626,0,0,0,.13.072,1.3,1.3,0,0,1,.721,1.579.629.629,0,0,0,0,.144h0a.656.656,0,0,0,1.175.433h0a.628.628,0,0,0,.072-.13,1.3,1.3,0,0,1,1.579-.721h.144a.656.656,0,0,0,.433-1.175h0A.628.628,0,0,0,346.165,351.687Z" transform="translate(-233.836 -132.405)" fill="#4d8af0" opacity="0.5"/>
    <circle id="Ellipse_34" data-name="Ellipse 34" cx="2.134" cy="2.134" r="2.134" transform="translate(583.93 130.397)" fill="#f55f44" opacity="0.5"/>
    <circle id="Ellipse_35" data-name="Ellipse 35" cx="2.134" cy="2.134" r="2.134" transform="translate(83.564 294.331)" fill="#4d8af0" opacity="0.5"/>
    <circle id="Ellipse_36" data-name="Ellipse 36" cx="2.134" cy="2.134" r="2.134" transform="translate(497.389 240.787)" fill="#f55f44" opacity="0.5"/>
    <g id="Group_24" data-name="Group 24" transform="translate(209.228 26.055)" opacity="0.958">
      <path id="Path_286" data-name="Path 286" d="M494.619,86.07a7.851,7.851,0,0,0-10.237.98,8.024,8.024,0,0,0,.317,11.182l9.79,9.725a1.637,1.637,0,0,0,2.314,0l9.733-9.79a8.024,8.024,0,0,0,.252-11.182,7.851,7.851,0,0,0-10.245-.894A1.651,1.651,0,0,1,494.619,86.07Z" transform="translate(-482.267 -84.598)" fill="#ff6565"/>
      <path id="Path_287" data-name="Path 287" d="M500.424,116.44a1.442,1.442,0,0,0,0,1.37,6.328,6.328,0,0,1,.382.634c.252.627-.187,1.312-.634,1.824-.281.324-.6.764-.411,1.154a1.442,1.442,0,0,0,.332.375,2.415,2.415,0,0,1-.923,4.023" transform="translate(-486.984 -93.484)" fill="none" stroke="#f55f44" stroke-miterlimit="10" stroke-width="1"/>
    </g>
    <g id="Group_25" data-name="Group 25" transform="translate(527.161 84.45)" opacity="0.958">
      <path id="Path_288" data-name="Path 288" d="M935.619,167.07a7.851,7.851,0,0,0-10.237.98,8.024,8.024,0,0,0,.317,11.182l9.79,9.725a1.637,1.637,0,0,0,2.314,0l9.733-9.79a8.024,8.024,0,0,0,.252-11.182,7.851,7.851,0,0,0-10.245-.894,1.651,1.651,0,0,1-1.925-.022Z" transform="translate(-923.267 -165.598)" fill="#ff6565"/>
      <path id="Path_289" data-name="Path 289" d="M941.424,197.44a1.442,1.442,0,0,0,0,1.37,6.35,6.35,0,0,1,.382.634c.252.627-.187,1.312-.635,1.824-.281.324-.6.764-.411,1.154a1.442,1.442,0,0,0,.332.375,2.415,2.415,0,0,1-.923,4.023" transform="translate(-927.984 -174.484)" fill="none" stroke="#f55f44" stroke-width="1"/>
    </g>
    <g id="Group_26" data-name="Group 26" transform="translate(21.785 419.686)" opacity="0.958">
      <path id="Path_290" data-name="Path 290" d="M234.619,632.07a7.851,7.851,0,0,0-10.237.98,8.024,8.024,0,0,0,.317,11.182l9.79,9.725a1.636,1.636,0,0,0,2.314,0l9.733-9.79a8.024,8.024,0,0,0,.252-11.182,7.851,7.851,0,0,0-10.245-.894,1.651,1.651,0,0,1-1.925-.022Z" transform="translate(-222.267 -630.598)" fill="#ff6565"/>
      <path id="Path_291" data-name="Path 291" d="M240.424,662.44a1.442,1.442,0,0,0,0,1.37,6.336,6.336,0,0,1,.382.634c.252.627-.187,1.312-.634,1.824-.281.324-.6.764-.411,1.154a1.442,1.442,0,0,0,.332.375,2.415,2.415,0,0,1-.923,4.023" transform="translate(-226.984 -639.484)" fill="none" stroke="#f55f44" stroke-miterlimit="10" stroke-width="1"/>
    </g>
    <g id="Group_27" data-name="Group 27" transform="translate(8.808 49.845)" opacity="0.958">
      <path id="Path_292" data-name="Path 292" d="M216.619,119.07a7.851,7.851,0,0,0-10.237.98,8.024,8.024,0,0,0,.317,11.182l9.79,9.725a1.637,1.637,0,0,0,2.314,0l9.733-9.79a8.024,8.024,0,0,0,.252-11.182,7.851,7.851,0,0,0-10.244-.894A1.651,1.651,0,0,1,216.619,119.07Z" transform="translate(-204.267 -117.598)" fill="#ff6565"/>
      <path id="Path_293" data-name="Path 293" d="M222.424,149.44a1.442,1.442,0,0,0,0,1.37,6.328,6.328,0,0,1,.382.634c.252.627-.187,1.312-.634,1.824-.281.324-.6.764-.411,1.154a1.442,1.442,0,0,0,.332.375,2.415,2.415,0,0,1-.923,4.023" transform="translate(-208.984 -126.484)" fill="none" stroke="#f55f44" stroke-miterlimit="10" stroke-width="1"/>
    </g>
    <g id="Group_28" data-name="Group 28" transform="translate(261.857 341.825)" opacity="0.958">
      <path id="Path_294" data-name="Path 294" d="M567.619,524.07a7.851,7.851,0,0,0-10.237.98,8.024,8.024,0,0,0,.317,11.182l9.79,9.725a1.637,1.637,0,0,0,2.314,0l9.733-9.79a8.024,8.024,0,0,0,.252-11.182,7.851,7.851,0,0,0-10.245-.894,1.651,1.651,0,0,1-1.925-.022Z" transform="translate(-555.267 -522.598)" fill="#ff6565"/>
      <path id="Path_295" data-name="Path 295" d="M573.424,554.44a1.442,1.442,0,0,0,0,1.37,6.34,6.34,0,0,1,.382.634c.252.627-.187,1.312-.634,1.824-.281.324-.6.764-.411,1.154a1.441,1.441,0,0,0,.332.375,2.415,2.415,0,0,1-.923,4.023" transform="translate(-559.984 -531.484)" fill="none" stroke="#f55f44" stroke-miterlimit="10" stroke-width="1"/>
    </g>
    <g id="Group_29" data-name="Group 29" transform="translate(273.392 165.195)" opacity="0.958">
      <path id="Path_296" data-name="Path 296" d="M583.619,279.07a7.851,7.851,0,0,0-10.237.98,8.024,8.024,0,0,0,.317,11.182l9.79,9.725a1.637,1.637,0,0,0,2.314,0l9.733-9.79a8.024,8.024,0,0,0,.252-11.182,7.851,7.851,0,0,0-10.245-.894,1.651,1.651,0,0,1-1.925-.022Z" transform="translate(-571.267 -277.598)" fill="#ff6565"/>
      <path id="Path_297" data-name="Path 297" d="M589.424,309.44a1.442,1.442,0,0,0,0,1.37,6.341,6.341,0,0,1,.382.634c.252.627-.187,1.312-.634,1.824-.281.324-.6.764-.411,1.154a1.441,1.441,0,0,0,.332.375,2.415,2.415,0,0,1-.923,4.023" transform="translate(-575.984 -286.484)" fill="none" stroke="#f55f44" stroke-miterlimit="10" stroke-width="1"/>
    </g>
    <g id="Group_30" data-name="Group 30" transform="translate(85.948 149.335)" opacity="0.958">
      <path id="Path_298" data-name="Path 298" d="M323.619,257.07a7.851,7.851,0,0,0-10.237.98,8.024,8.024,0,0,0,.317,11.182l9.79,9.725a1.636,1.636,0,0,0,2.314,0l9.733-9.79a8.024,8.024,0,0,0,.252-11.182,7.851,7.851,0,0,0-10.244-.894A1.651,1.651,0,0,1,323.619,257.07Z" transform="translate(-311.267 -255.598)" fill="#ff6565"/>
      <path id="Path_299" data-name="Path 299" d="M329.424,287.44a1.442,1.442,0,0,0,0,1.37,6.338,6.338,0,0,1,.382.634c.252.627-.187,1.312-.634,1.824-.281.324-.6.764-.411,1.154a1.441,1.441,0,0,0,.332.375,2.415,2.415,0,0,1-.923,4.023" transform="translate(-315.984 -264.484)" fill="none" stroke="#f55f44" stroke-miterlimit="10" stroke-width="1"/>
    </g>
    <g id="Group_31" data-name="Group 31" transform="translate(276.27 420.315)" opacity="0.5">
      <rect id="Rectangle_28" data-name="Rectangle 28" width="2.163" height="12.256" transform="translate(5.047)" fill="#47e6b1"/>
      <rect id="Rectangle_29" data-name="Rectangle 29" width="2.163" height="12.256" transform="translate(12.256 5.047) rotate(90)" fill="#47e6b1"/>
    </g>
    <g id="Group_32" data-name="Group 32" transform="translate(565.366 366.244)" opacity="0.5">
      <rect id="Rectangle_30" data-name="Rectangle 30" width="2.163" height="12.256" transform="translate(5.047)" fill="#47e6b1"/>
      <rect id="Rectangle_31" data-name="Rectangle 31" width="2.163" height="12.256" transform="translate(12.256 5.047) rotate(90)" fill="#47e6b1"/>
    </g>
    <g id="Group_33" data-name="Group 33" transform="translate(125.594 31.73)" opacity="0.5">
      <rect id="Rectangle_32" data-name="Rectangle 32" width="2.163" height="12.256" transform="translate(5.047)" fill="#47e6b1"/>
      <rect id="Rectangle_33" data-name="Rectangle 33" width="2.163" height="12.256" transform="translate(12.256 5.047) rotate(90)" fill="#47e6b1"/>
    </g>
    <g id="Group_34" data-name="Group 34" transform="translate(509.133 162.94)" opacity="0.5">
      <rect id="Rectangle_34" data-name="Rectangle 34" width="2.163" height="12.256" transform="translate(5.047)" fill="#47e6b1"/>
      <rect id="Rectangle_35" data-name="Rectangle 35" width="2.163" height="12.256" transform="translate(12.256 5.047) rotate(90)" fill="#47e6b1"/>
    </g>
    <g id="Group_35" data-name="Group 35" transform="translate(66.478 247.29)" opacity="0.5">
      <rect id="Rectangle_36" data-name="Rectangle 36" width="2.163" height="12.256" transform="translate(5.047)" fill="#47e6b1"/>
      <rect id="Rectangle_37" data-name="Rectangle 37" width="2.163" height="12.256" transform="translate(12.256 5.047) rotate(90)" fill="#47e6b1"/>
    </g>
    <g id="Group_36" data-name="Group 36" transform="translate(61.431 465.734)" opacity="0.5">
      <rect id="Rectangle_38" data-name="Rectangle 38" width="2.163" height="12.256" transform="translate(5.047)" fill="#47e6b1"/>
      <rect id="Rectangle_39" data-name="Rectangle 39" width="2.163" height="12.256" transform="translate(12.256 5.047) rotate(90)" fill="#47e6b1"/>
    </g>
    <path id="Path_300" data-name="Path 300" d="M654.945,141.18a2.646,2.646,0,0,1-1.442-3.2,1.277,1.277,0,0,0,.058-.3h0a1.327,1.327,0,0,0-2.386-.88h0a1.276,1.276,0,0,0-.144.26,2.646,2.646,0,0,1-3.2,1.442,1.277,1.277,0,0,0-.3-.058h0a1.327,1.327,0,0,0-.88,2.386h0a1.278,1.278,0,0,0,.26.144,2.646,2.646,0,0,1,1.442,3.2,1.277,1.277,0,0,0-.058.3h0a1.327,1.327,0,0,0,2.386.88h0a1.279,1.279,0,0,0,.144-.26,2.646,2.646,0,0,1,3.2-1.442,1.276,1.276,0,0,0,.3.058h0a1.327,1.327,0,0,0,.88-2.386h0a1.275,1.275,0,0,0-.26-.144Z" transform="translate(-318.765 -72.964)" fill="#4d8af0" opacity="0.5"/>
    <path id="Path_301" data-name="Path 301" d="M956.945,376.18a2.646,2.646,0,0,1-1.442-3.2,1.277,1.277,0,0,0,.058-.3h0a1.327,1.327,0,0,0-2.386-.88h0a1.271,1.271,0,0,0-.144.26,2.646,2.646,0,0,1-3.2,1.442,1.281,1.281,0,0,0-.3-.058h0a1.327,1.327,0,0,0-.88,2.386h0a1.271,1.271,0,0,0,.259.144,2.646,2.646,0,0,1,1.442,3.2,1.274,1.274,0,0,0-.058.3h0a1.326,1.326,0,0,0,2.386.88h0a1.274,1.274,0,0,0,.144-.26,2.646,2.646,0,0,1,3.2-1.442,1.276,1.276,0,0,0,.3.058h0a1.327,1.327,0,0,0,.88-2.386h0a1.273,1.273,0,0,0-.26-.144Z" transform="translate(-403.042 -138.544)" fill="#4d8af0" opacity="0.5"/>
    <g id="Group_37" data-name="Group 37" transform="translate(14.57 104.285)" opacity="0.5">
      <rect id="Rectangle_40" data-name="Rectangle 40" width="1.067" height="6.049" transform="translate(2.494)" fill="#47e6b1"/>
      <rect id="Rectangle_41" data-name="Rectangle 41" width="1.067" height="6.049" transform="translate(6.049 2.494) rotate(90)" fill="#47e6b1"/>
    </g>
    <g id="Group_38" data-name="Group 38" transform="translate(60.112 197.848)" opacity="0.5">
      <rect id="Rectangle_42" data-name="Rectangle 42" width="1.067" height="6.049" transform="translate(2.487)" fill="#47e6b1"/>
      <rect id="Rectangle_43" data-name="Rectangle 43" width="1.067" height="6.049" transform="translate(6.049 2.487) rotate(90)" fill="#47e6b1"/>
    </g>
    <path id="Path_302" data-name="Path 302" d="M300.225,191.337a1.3,1.3,0,0,1-.721-1.579.624.624,0,0,0,0-.144h0a.656.656,0,0,0-1.175-.433h0a.628.628,0,0,0-.072.13,1.3,1.3,0,0,1-1.579.721h-.144a.656.656,0,0,0-.433,1.175h0a.626.626,0,0,0,.13.072,1.3,1.3,0,0,1,.721,1.579.628.628,0,0,0,0,.144h0a.656.656,0,0,0,1.175.433h0a.627.627,0,0,0,.072-.13,1.3,1.3,0,0,1,1.579-.721h.144a.656.656,0,0,0,.433-1.175h0A.627.627,0,0,0,300.225,191.337Z" transform="translate(-221.015 -87.658)" fill="#4d8af0" opacity="0.5"/>
    <path id="Path_303" data-name="Path 303" d="M223.835,381.147a1.3,1.3,0,0,1-.721-1.579.629.629,0,0,0,0-.144h0a.656.656,0,0,0-1.175-.433h0a.628.628,0,0,0-.072.13,1.3,1.3,0,0,1-1.579.721h-.144a.656.656,0,0,0-.433,1.175h0a.626.626,0,0,0,.13.072,1.3,1.3,0,0,1,.721,1.579.626.626,0,0,0,0,.144h0a.656.656,0,0,0,1.175.433h0a.627.627,0,0,0,.072-.13,1.3,1.3,0,0,1,1.579-.721h.144a.656.656,0,0,0,.433-1.175h0a.63.63,0,0,0-.13-.072Z" transform="translate(-199.698 -140.626)" fill="#4d8af0" opacity="0.5"/>
    <g id="Group_39" data-name="Group 39" transform="translate(20.338 275.406)" opacity="0.5">
      <rect id="Rectangle_44" data-name="Rectangle 44" width="2.163" height="12.256" transform="translate(5.047)" fill="#47e6b1"/>
      <rect id="Rectangle_45" data-name="Rectangle 45" width="2.163" height="12.256" transform="translate(12.256 5.047) rotate(90)" fill="#47e6b1"/>
    </g>
    <g id="Group_40" data-name="Group 40" transform="translate(262.572 83.637)" opacity="0.5">
      <rect id="Rectangle_46" data-name="Rectangle 46" width="2.163" height="12.256" transform="translate(5.047)" fill="#47e6b1"/>
      <rect id="Rectangle_47" data-name="Rectangle 47" width="2.163" height="12.256" transform="translate(12.256 5.047) rotate(90)" fill="#47e6b1"/>
    </g>
    <path id="Path_304" data-name="Path 304" d="M200.945,250.18a2.646,2.646,0,0,1-1.442-3.2,1.277,1.277,0,0,0,.058-.3h0a1.327,1.327,0,0,0-2.386-.88h0a1.276,1.276,0,0,0-.144.26,2.646,2.646,0,0,1-3.2,1.442,1.276,1.276,0,0,0-.3-.058h0a1.327,1.327,0,0,0-.88,2.386h0a1.276,1.276,0,0,0,.26.144,2.646,2.646,0,0,1,1.442,3.2,1.277,1.277,0,0,0-.058.3h0a1.327,1.327,0,0,0,2.386.88h0a1.278,1.278,0,0,0,.144-.26,2.646,2.646,0,0,1,3.2-1.442,1.277,1.277,0,0,0,.3.058h0a1.327,1.327,0,0,0,.88-2.386h0a1.273,1.273,0,0,0-.26-.144Z" transform="translate(-192.07 -103.382)" fill="#4d8af0" opacity="0.5"/>
    <path id="Path_305" data-name="Path 305" d="M832.945,767.18a2.646,2.646,0,0,1-1.442-3.2,1.277,1.277,0,0,0,.058-.3h0a1.327,1.327,0,0,0-2.386-.88h0a1.28,1.28,0,0,0-.144.26,2.646,2.646,0,0,1-3.2,1.442,1.271,1.271,0,0,0-.3-.058h0a1.326,1.326,0,0,0-.88,2.386h0a1.275,1.275,0,0,0,.26.144,2.646,2.646,0,0,1,1.442,3.2,1.283,1.283,0,0,0-.058.3h0a1.327,1.327,0,0,0,2.386.88h0a1.277,1.277,0,0,0,.144-.26,2.646,2.646,0,0,1,3.2-1.442,1.278,1.278,0,0,0,.3.058h0a1.327,1.327,0,0,0,.879-2.386h0A1.282,1.282,0,0,0,832.945,767.18Z" transform="translate(-368.438 -247.657)" fill="#4d8af0" opacity="0.5"/>
    <path id="Path_306" data-name="Path 306" d="M286.945,509.18a2.646,2.646,0,0,1-1.442-3.2,1.275,1.275,0,0,0,.058-.3h0a1.327,1.327,0,0,0-2.386-.88h0a1.277,1.277,0,0,0-.144.26,2.646,2.646,0,0,1-3.2,1.442,1.277,1.277,0,0,0-.3-.058h0a1.327,1.327,0,0,0-.88,2.386h0a1.274,1.274,0,0,0,.26.144,2.646,2.646,0,0,1,1.442,3.2,1.278,1.278,0,0,0-.058.3h0a1.327,1.327,0,0,0,2.386.88h0a1.275,1.275,0,0,0,.144-.26,2.646,2.646,0,0,1,3.2-1.442,1.28,1.28,0,0,0,.3.058h0a1.327,1.327,0,0,0,.88-2.386h0A1.276,1.276,0,0,0,286.945,509.18Z" transform="translate(-216.069 -175.659)" fill="#4d8af0" opacity="0.5"/>
    <g id="Group_41" data-name="Group 41" transform="translate(553.081 536.681)" opacity="0.5">
      <rect id="Rectangle_48" data-name="Rectangle 48" width="1.067" height="6.049" transform="translate(2.494)" fill="#47e6b1"/>
      <rect id="Rectangle_49" data-name="Rectangle 49" width="1.067" height="6.049" transform="translate(6.049 2.487) rotate(90)" fill="#47e6b1"/>
    </g>
    <circle id="Ellipse_37" data-name="Ellipse 37" cx="2.134" cy="2.134" r="2.134" transform="translate(562.987 457.263)" fill="#4d8af0" opacity="0.5"/>
    <g id="Group_42" data-name="Group 42" transform="translate(545.901 410.221)" opacity="0.5">
      <rect id="Rectangle_50" data-name="Rectangle 50" width="2.163" height="12.256" transform="translate(5.047)" fill="#47e6b1"/>
      <rect id="Rectangle_51" data-name="Rectangle 51" width="2.163" height="12.256" transform="translate(12.256 5.047) rotate(90)" fill="#47e6b1"/>
    </g>
    <path id="Path_307" data-name="Path 307" d="M888.835,607.147a1.3,1.3,0,0,1-.721-1.579.622.622,0,0,0,0-.144h0a.656.656,0,0,0-1.175-.432h0a.629.629,0,0,0-.072.13,1.3,1.3,0,0,1-1.579.721h-.144a.656.656,0,0,0-.433,1.175h0a.624.624,0,0,0,.13.072,1.3,1.3,0,0,1,.721,1.579.626.626,0,0,0,0,.144h0a.656.656,0,0,0,1.175.433h0a.624.624,0,0,0,.072-.13,1.305,1.305,0,0,1,1.579-.721h.144a.656.656,0,0,0,.433-1.175h0a.627.627,0,0,0-.13-.072Z" transform="translate(-385.275 -203.695)" fill="#4d8af0" opacity="0.5"/>
    <g id="Group_43" data-name="Group 43" transform="translate(499.761 438.338)" opacity="0.5">
      <rect id="Rectangle_52" data-name="Rectangle 52" width="2.163" height="12.256" transform="translate(5.047)" fill="#47e6b1"/>
      <rect id="Rectangle_53" data-name="Rectangle 53" width="2.163" height="12.256" transform="translate(12.256 5.047) rotate(90)" fill="#47e6b1"/>
    </g>
    <path id="Path_308" data-name="Path 308" d="M951.945,735.18a2.646,2.646,0,0,1-1.442-3.2,1.291,1.291,0,0,0,.058-.3h0a1.327,1.327,0,0,0-2.386-.88h0a1.276,1.276,0,0,0-.144.26,2.646,2.646,0,0,1-3.2,1.442,1.278,1.278,0,0,0-.3-.058h0a1.326,1.326,0,0,0-.879,2.386h0a1.282,1.282,0,0,0,.26.144,2.646,2.646,0,0,1,1.442,3.2,1.276,1.276,0,0,0-.058.3h0a1.327,1.327,0,0,0,2.386.88h0a1.279,1.279,0,0,0,.144-.26,2.646,2.646,0,0,1,3.2-1.442,1.277,1.277,0,0,0,.3.058h0a1.327,1.327,0,0,0,.88-2.386h0A1.278,1.278,0,0,0,951.945,735.18Z" transform="translate(-401.646 -238.727)" fill="#4d8af0" opacity="0.5"/>
    <path id="Path_309" data-name="Path 309" d="M610.945,769.18a2.646,2.646,0,0,1-1.442-3.2,1.28,1.28,0,0,0,.058-.3h0a1.327,1.327,0,0,0-2.386-.88h0a1.277,1.277,0,0,0-.144.26,2.646,2.646,0,0,1-3.2,1.442,1.276,1.276,0,0,0-.3-.058h0a1.327,1.327,0,0,0-.88,2.386h0a1.279,1.279,0,0,0,.26.144,2.646,2.646,0,0,1,1.442,3.2,1.273,1.273,0,0,0-.058.3h0a1.327,1.327,0,0,0,2.386.88h0a1.271,1.271,0,0,0,.144-.26,2.646,2.646,0,0,1,3.2-1.442,1.276,1.276,0,0,0,.3.058h0a1.327,1.327,0,0,0,.88-2.386h0A1.278,1.278,0,0,0,610.945,769.18Z" transform="translate(-306.486 -248.215)" fill="#4d8af0" opacity="0.5"/>
    <g id="Group_44" data-name="Group 44" transform="translate(323.894 110.658)" opacity="0.5">
      <path id="Path_310" data-name="Path 310" d="M677.685,225.316a5.357,5.357,0,0,0,2.321-.541,5.189,5.189,0,0,0,1.074.115c2.732,0,5.133-2.163,6.488-5.385.872,3.136,2.812,5.414,5.357,5.84a5.356,5.356,0,0,0,2.379-.144,5.191,5.191,0,0,0,1.045.3c4.167.721,8.392-3.792,9.451-10.035s-1.442-11.881-5.631-12.58a5.356,5.356,0,0,0-2.379.144,5.191,5.191,0,0,0-1.045-.3c-3.36-.57-6.762,2.249-8.5,6.633-1.1-4.326-3.886-7.411-7.152-7.411a5.356,5.356,0,0,0-2.321.541,5.19,5.19,0,0,0-1.074-.115c-4.225,0-7.649,5.133-7.649,11.47S673.46,225.316,677.685,225.316Z" transform="translate(-649.336 -201.95)" opacity="0.1" fill="url(#linear-gradient-2)"/>
      <ellipse id="Ellipse_38" data-name="Ellipse 38" cx="6.567" cy="3.287" rx="6.567" ry="3.287" transform="translate(41.579 33.998) rotate(-53.931)" opacity="0.1" fill="url(#linear-gradient-3)"/>
      <path id="Path_311" data-name="Path 311" d="M731.661,217.985a5.356,5.356,0,0,0-2.35-.411,5.189,5.189,0,0,0-.944-.526c-3.886-1.651-9.048,1.737-11.535,7.563s-1.334,11.9,2.552,13.546a5.357,5.357,0,0,0,2.35.411,5.189,5.189,0,0,0,.944.526c3.886,1.651,9.048-1.737,11.535-7.563S735.547,219.636,731.661,217.985Z" transform="translate(-662.025 -206.047)" opacity="0.1" fill="url(#linear-gradient-4)"/>
      <ellipse id="Ellipse_39" data-name="Ellipse 39" cx="6.553" cy="3.28" rx="6.553" ry="3.28" transform="translate(52.154 43.001) rotate(-40.41)" opacity="0.1" fill="url(#linear-gradient-5)"/>
      <path id="Path_312" data-name="Path 312" d="M651.009,225.752a5.19,5.19,0,0,0,1.045-.3,5.357,5.357,0,0,0,2.379.144c4.167-.721,6.683-6.337,5.63-12.58s-5.277-10.771-9.451-10.05a5.154,5.154,0,0,0-.952.26h-.115a5.349,5.349,0,0,0-2.358-.144c-4.167.721-6.683,6.337-5.63,12.58S646.856,226.459,651.009,225.752Z" transform="translate(-641.318 -202.214)" opacity="0.1" fill="url(#linear-gradient-6)"/>
      <path id="Path_313" data-name="Path 313" d="M655.093,242.1c-2.163-2.92-6.488-3.36-6.488-3.36s-.916,4.326,1.218,7.209,5.047,4.427,6.488,3.36S657.227,245.027,655.093,242.1Z" transform="translate(-643.297 -212.217)" opacity="0.1" fill="url(#linear-gradient-7)"/>
      <path id="Path_314" data-name="Path 314" d="M700,259.256a13.013,13.013,0,0,1-4.326-.584,11.037,11.037,0,0,0,.526-4.326c-.223-3.6-3.677-6.337-3.677-6.337a12,12,0,0,0-2.365,3.734,7.614,7.614,0,0,0-1.6-.144,29.559,29.559,0,0,0-3.345.209,9.61,9.61,0,0,0-.231-5.544c-.93-3.042-4.117-4.837-4.881-5.227a12.039,12.039,0,0,0-.721-4.217s-4.246,1.161-5.861,4.4-1.622,6.488,0,7.325c1.334.67,3.352-.555,4.931-2.819a6.934,6.934,0,0,0,.267,2.458,10.5,10.5,0,0,0,2.357,4.239,41.293,41.293,0,0,1-8.983.858c1.11-1.19.944-4.088-.49-6.957-1.622-3.237-5.861-4.4-5.861-4.4s-1.622,4.088,0,7.325a11.117,11.117,0,0,0,2.545,3.4,15.563,15.563,0,0,1-2.689-1.045,14.716,14.716,0,0,0-3.021-1.1,12.425,12.425,0,0,0,.966-2.321c1.06-3.461-1.218-7.209-1.218-7.209s-3.994,1.846-5.047,5.313a11.622,11.622,0,0,0-.534,3.6,38.6,38.6,0,0,0-10.259,1.694c26.754,49.723,11.456,84.126,11.456,84.126h22.94C665.6,293.666,711.465,259.256,700,259.256Z" transform="translate(-642.759 -211.681)" opacity="0.1" fill="url(#linear-gradient-8)"/>
    </g>
    <line id="Line_3" data-name="Line 3" y1="71.135" transform="translate(354.081 130.664)" fill="none" stroke="#3ad29f" stroke-miterlimit="10" stroke-width="3"/>
    <path id="Path_315" data-name="Path 315" d="M681.314,203.73a5.241,5.241,0,0,0-2.271.526,5.084,5.084,0,0,0-1.053-.115c-4.138,0-7.491,5.047-7.491,11.232s3.352,11.232,7.491,11.232a5.241,5.241,0,0,0,2.271-.526,5.081,5.081,0,0,0,1.053.115c4.138,0,7.491-5.047,7.491-11.232S685.452,203.73,681.314,203.73Z" transform="translate(-325.568 -91.789)" fill="#f55f44"/>
    <ellipse id="Ellipse_40" data-name="Ellipse 40" cx="6.416" cy="3.208" rx="6.416" ry="3.208" transform="translate(351.914 146.647) rotate(-63.43)" fill="#3ad29f"/>
    <ellipse id="Ellipse_41" data-name="Ellipse 41" cx="3.208" cy="6.416" rx="3.208" ry="6.416" transform="translate(344.282 142.955) rotate(-26.57)" fill="#3ad29f"/>
    <line id="Line_4" data-name="Line 4" y1="70.14" x2="11.831" transform="translate(357.844 131.031)" fill="none" stroke="#3ad29f" stroke-miterlimit="10" stroke-width="3"/>
    <path id="Path_316" data-name="Path 316" d="M706.441,204.914a5.241,5.241,0,0,0-2.329.144,5.083,5.083,0,0,0-1.024-.288c-4.081-.721-8.219,3.713-9.25,9.826s1.442,11.636,5.515,12.321a5.241,5.241,0,0,0,2.329-.144,5.083,5.083,0,0,0,1.024.288c4.08.721,8.219-3.713,9.25-9.826S710.522,205.592,706.441,204.914Z" transform="translate(-332.016 -92.058)" fill="#f55f44"/>
    <ellipse id="Ellipse_42" data-name="Ellipse 42" cx="6.416" cy="3.208" rx="6.416" ry="3.208" transform="matrix(0.59, -0.808, 0.808, 0.59, 364.846, 146.387)" fill="#3ad29f"/>
    <ellipse id="Ellipse_43" data-name="Ellipse 43" cx="3.208" cy="6.416" rx="3.208" ry="6.416" transform="translate(357.965 141.568) rotate(-16.99)" fill="#3ad29f"/>
    <line id="Line_5" data-name="Line 5" y1="65.468" x2="27.821" transform="translate(356.172 140.216)" fill="none" stroke="#3ad29f" stroke-miterlimit="10" stroke-width="3"/>
    <path id="Path_317" data-name="Path 317" d="M730.875,219.478a5.242,5.242,0,0,0-2.3-.4,5.08,5.08,0,0,0-.923-.519c-3.843-1.651-8.889,1.644-11.319,7.411s-1.3,11.65,2.5,13.265a5.242,5.242,0,0,0,2.3.4,5.082,5.082,0,0,0,.923.519c3.807,1.615,8.86-1.7,11.283-7.411S734.652,221.057,730.875,219.478Z" transform="translate(-338 -95.807)" fill="#f55f44"/>
    <ellipse id="Ellipse_44" data-name="Ellipse 44" cx="6.416" cy="3.208" rx="6.416" ry="3.208" transform="translate(375.733 154.056) rotate(-40.41)" fill="#3ad29f"/>
    <ellipse id="Ellipse_45" data-name="Ellipse 45" cx="3.208" cy="6.416" rx="3.208" ry="6.416" transform="translate(370.143 147.757) rotate(-3.54)" fill="#3ad29f"/>
    <line id="Line_6" data-name="Line 6" x1="11.838" y1="70.14" transform="translate(335.164 131.031)" fill="none" stroke="#3ad29f" stroke-miterlimit="10" stroke-width="3"/>
    <path id="Path_318" data-name="Path 318" d="M648.125,204.914a5.241,5.241,0,0,1,2.329.144,5.085,5.085,0,0,1,1.024-.288c4.081-.721,8.219,3.713,9.25,9.826s-1.442,11.636-5.515,12.321a5.241,5.241,0,0,1-2.329-.144,5.08,5.08,0,0,1-1.024.288c-4.081.721-8.219-3.713-9.25-9.826S644.051,205.592,648.125,204.914Z" transform="translate(-317.719 -92.058)" fill="#f55f44"/>
    <ellipse id="Ellipse_46" data-name="Ellipse 46" cx="3.208" cy="6.416" rx="3.208" ry="6.416" transform="matrix(0.808, -0.59, 0.59, 0.808, 327.242, 139.815)" fill="#3ad29f"/>
    <ellipse id="Ellipse_47" data-name="Ellipse 47" cx="6.435" cy="3.217" rx="6.435" ry="3.217" transform="translate(336.601 149.845) rotate(-73.191)" fill="#3ad29f"/>
    <path id="Path_319" data-name="Path 319" d="M647.42,257.356s11.232-3.742,18.744,0,14.974,0,22.464,0,0,7.491,11.232,7.491-33.7,33.7-18.744,74.876H658.652S673.626,306.005,647.42,257.356Z" transform="translate(-319.127 -106.29)" fill="#f5f5f5"/>
    <path id="Path_320" data-name="Path 320" d="M460.11,156.865l1.29,3.864.714-4.369Z" transform="translate(-128.385 -43.626)" opacity="0.1"/>
    <path id="Path_321" data-name="Path 321" d="M488.72,156.665l1.29,3.864.714-4.369Z" transform="translate(-136.369 -43.57)" opacity="0.1"/>
    <path id="Path_322" data-name="Path 322" d="M515.03,157.487l.678,4.023,1.377-4.21Z" transform="translate(-143.712 -43.888)" opacity="0.1"/>
    <path id="Path_323" data-name="Path 323" d="M540.293,171.1l-.353,4.059,2.394-3.72Z" transform="translate(-150.663 -47.739)" opacity="0.1"/>
    <path id="Path_324" data-name="Path 324" d="M665.59,256.49s7.094,30.943,7.094,42.535-1.932,40.61-1.932,40.61h2.581s-2.588-77.991-3.843-82.5Z" transform="translate(-324.198 -106.512)" opacity="0.1"/>
    <path id="Path_325" data-name="Path 325" d="M685.194,260.06s-6.445,28.362-6.445,39.969,1.932,40.61,1.932,40.61H678.1s1.932-75.417,3.223-79.93Z" transform="translate(-327.689 -107.509)" opacity="0.1"/>
    <path id="Path_326" data-name="Path 326" d="M693,259.17s-7.094,29-7.094,40.61,1.932,40.61,1.932,40.61H685.26s2.581-76.059,3.864-80.572Z" transform="translate(-329.687 -107.26)" opacity="0.1"/>
    <path id="Path_328" data-name="Path 328" d="M195.01,706.719v16h16V700.31Z" transform="translate(-54.406 -195.422)" fill="#fda57d"/>
    <path id="Path_329" data-name="Path 329" d="M279.39,752.371v19.206l16.012-3.2-3.2-19.206Z" transform="translate(-77.953 -209.057)" fill="#fda57d"/>
    <path id="Path_330" data-name="Path 330" d="M413.328,304.9s-38.21,28.636-19.386,140.705Z" transform="translate(-246.936 -120.022)" fill="#f55f44"/>
    <path id="Path_331" data-name="Path 331" d="M413.328,304.9s-38.21,28.636-19.386,140.705Z" transform="translate(-246.936 -120.022)" fill="#3ad29f"/>
    <path id="Path_332" data-name="Path 332" d="M294.044,763.46l-1.6-9.61-12.8,3.2v6.409Z" transform="translate(-78.023 -210.363)" opacity="0.05"/>
    <path id="Path_333" data-name="Path 333" d="M195.25,714.6h16.012V705l-16.012,6.4Z" transform="translate(-54.473 -196.731)" opacity="0.05"/>
    <path id="Path_334" data-name="Path 334" d="M269.761,230.03l-3.2,22.414,28.816,16.012V236.432Z" transform="translate(-74.373 -64.185)" fill="#fda57d"/>
    <path id="Path_335" data-name="Path 335" d="M383.13,691.469l12.811-89.656L389.179,509l83.254,22.349s10.317,79.692,3.554,105.661l-12.811,89.713H443.963l9.6-99.259-12.811-66.881-16.012-9.6s6.762,56.954-6.4,79.692l-12.8,60.8Z" transform="translate(-245.373 -176.979)" fill="#6c63ff"/>
    <path id="Path_336" data-name="Path 336" d="M684.308,316.63c-3.2-9.6-22.234,3.381-22.234,3.381l-1.564,2.12,7.563,14.022.238-.324S687.538,326.219,684.308,316.63Z" transform="translate(-322.78 -122.308)" fill="#fda57d"/>
    <path id="Path_337" data-name="Path 337" d="M442.75,306.252s-25.615-6.762-32.017,3.2S391.52,453.54,391.52,453.54s38.065,32.017,83.247,22.414l16.012-105.661Z" transform="translate(-247.715 -119.773)" opacity="0.05"/>
    <path id="Path_338" data-name="Path 338" d="M551.611,364.608l-101.2-56.521a50.523,50.523,0,0,0-24-6.488c-6.4-.079-12.883,1.081-15.68,5.436-6.409,9.927-19.213,144.086-19.213,144.086s38.065,31.981,83.254,22.349l16-105.632L554.8,390.252s6.4,6.4,12.977-12.631c6.15-17.793,23.02-41.634,25.233-44.7l-7.57-14.015Z" transform="translate(-247.715 -119.1)" fill="#3ad29f"/>
    <path id="Path_339" data-name="Path 339" d="M462.47,284.714a28.758,28.758,0,0,0,22.666,11.03,29.108,29.108,0,0,0,3.2-.18v-6.222l-25.615-6.4Z" transform="translate(-267.514 -113.894)" opacity="0.05"/>
    <circle id="Ellipse_48" data-name="Ellipse 48" cx="28.816" cy="28.816" r="28.816" transform="translate(188.986 121.025)" fill="#fda57d"/>
    <path id="Path_340" data-name="Path 340" d="M382.63,775.052v16.012s44.467-2.848,51.23-12.811-35.218-3.2-35.218-3.2Z" transform="translate(-245.234 -250.598)" fill="#333"/>
    <path id="Path_341" data-name="Path 341" d="M466.28,819.7v16.012s44.5-2.848,51.23-12.826-35.218-3.2-35.218-3.2Z" transform="translate(-268.578 -263.053)" fill="#333"/>
    <path id="Path_342" data-name="Path 342" d="M456.4,252.128l11.261-16.113a27.375,27.375,0,0,1,5.71-6.561c2.336-1.745,5.436-2.718,8.2-1.824a16.792,16.792,0,0,1,4.484,2.725c4.2,3.057,9.372,5.328,14.512,4.4,5.357-.966,9.473-5.147,13.2-9.113,3.093-3.287,6.416-7.325,5.566-11.758-.663-3.446-3.778-5.955-7.08-7.159s-6.863-1.4-10.309-2.076c-8.211-1.608-15.637-5.9-23.647-8.327a53.789,53.789,0,0,0-11.174-2.163,16.27,16.27,0,0,0-8.031.894c-2.725,1.226-4.7,3.6-6.885,5.674a31.341,31.341,0,0,1-9.026,5.876c-4.96,2.12-10.5,2.97-15,5.948a8.853,8.853,0,0,0-3.021,3.035c-1.154,2.163-.858,4.744-.512,7.152.786,5.5,1.687,11.138,4.477,15.947,2.278,3.929,5.674,7.065,9.026,10.136l7.519,6.9c1.521,1.4,3.208,3.129,5.176,3.828C450.5,257.081,454.98,254.161,456.4,252.128Z" transform="translate(-256.874 -89.087)" opacity="0.05"/>
    <path id="Path_343" data-name="Path 343" d="M456.4,250.648l11.261-16.113a27.375,27.375,0,0,1,5.71-6.561c2.336-1.745,5.436-2.718,8.2-1.824a16.792,16.792,0,0,1,4.484,2.725c4.2,3.057,9.372,5.328,14.512,4.4,5.357-.966,9.473-5.147,13.2-9.113,3.093-3.287,6.416-7.325,5.566-11.758-.663-3.446-3.778-5.955-7.08-7.159s-6.863-1.4-10.309-2.076c-8.211-1.608-15.637-5.9-23.647-8.327a53.791,53.791,0,0,0-11.174-2.163,16.27,16.27,0,0,0-8.031.894c-2.725,1.226-4.7,3.6-6.885,5.674a31.339,31.339,0,0,1-9.026,5.883c-4.96,2.12-10.5,2.97-15,5.948a8.853,8.853,0,0,0-3.021,3.035c-1.154,2.163-.858,4.744-.512,7.152.786,5.5,1.687,11.138,4.477,15.947,2.278,3.929,5.674,7.065,9.026,10.136l7.519,6.9c1.521,1.4,3.208,3.129,5.176,3.828C450.5,255.6,454.98,252.681,456.4,250.648Z" transform="translate(-256.874 -88.674)" fill="#333"/>
  </g>
</svg>
